<?xml version="1.0" encoding="UTF-8"?><svg xmlns="http://www.w3.org/2000/svg" xmlns:xlink="http://www.w3.org/1999/xlink" height="500.0" preserveAspectRatio="xMidYMid meet" version="1.0" viewBox="0.0 0.0 240.0 500.0" width="240.0" zoomAndPan="magnify"><defs><clipPath id="a"><path d="M 0 0 L 240.039062 0 L 240.039062 500 L 0 500 Z M 0 0"/></clipPath><clipPath id="b"><path d="M 110 0 L 240.039062 0 L 240.039062 500 L 110 500 Z M 110 0"/></clipPath></defs><g><g id="change1_1"><path d="M 15.878906 101.996094 L 65.648438 15.789062 C 66.597656 14.144531 68.351562 13.132812 70.25 13.132812 L 169.789062 13.132812 C 171.691406 13.132812 173.445312 14.144531 174.394531 15.789062 L 224.164062 101.996094 C 225.113281 103.640625 225.113281 105.667969 224.164062 107.3125 L 174.394531 193.515625 C 173.445312 195.160156 171.691406 196.175781 169.789062 196.175781 L 70.25 196.175781 C 68.351562 196.175781 66.597656 195.160156 65.648438 193.515625 L 15.878906 107.3125 C 14.925781 105.667969 14.925781 103.640625 15.878906 101.996094" fill="#ee2742"/></g><g id="change2_1"><path d="M 224.164062 107.3125 L 174.394531 193.515625 C 173.445312 195.160156 171.691406 196.175781 169.789062 196.175781 L 120.019531 196.175781 L 120.019531 13.132812 L 169.789062 13.132812 C 171.691406 13.132812 173.445312 14.144531 174.394531 15.789062 L 224.164062 101.996094 C 225.113281 103.640625 225.113281 105.667969 224.164062 107.3125" fill="#ee252f"/></g><g clip-path="url(#a)" id="change3_1"><path d="M 125.769531 104.621094 C 125.769531 110.128906 126.816406 114.261719 128.910156 117.015625 C 131.003906 119.769531 133.597656 121.148438 136.695312 121.148438 C 139.8125 121.148438 142.398438 119.78125 144.445312 117.046875 C 146.496094 114.316406 147.519531 110.117188 147.519531 104.457031 C 147.519531 98.90625 146.523438 94.800781 144.527344 92.144531 C 142.53125 89.488281 139.921875 88.160156 136.695312 88.160156 C 133.46875 88.160156 130.839844 89.5 128.8125 92.179688 C 126.78125 94.855469 125.769531 99.003906 125.769531 104.621094 Z M 117.605469 104.945312 C 117.605469 99.242188 118.445312 94.546875 120.136719 90.855469 C 121.820312 87.164062 124.027344 84.414062 126.75 82.605469 C 129.46875 80.800781 132.769531 79.898438 136.644531 79.898438 C 142.261719 79.898438 146.839844 82.042969 150.378906 86.332031 C 153.917969 90.621094 155.6875 96.730469 155.6875 104.652344 C 155.6875 112.667969 153.8125 118.925781 150.066406 123.433594 C 146.78125 127.417969 142.316406 129.410156 136.679688 129.410156 C 130.996094 129.410156 126.507812 127.4375 123.222656 123.5 C 119.476562 118.992188 117.605469 112.808594 117.605469 104.945312 Z M 95.492188 128.59375 L 95.492188 88.8125 L 83.832031 88.8125 L 83.832031 80.714844 L 115.023438 80.714844 L 115.023438 88.8125 L 103.398438 88.8125 L 103.398438 128.59375 Z M 48.070312 112.980469 L 55.808594 112.066406 C 56.679688 118.1875 59.535156 121.246094 64.367188 121.246094 C 66.761719 121.246094 68.644531 120.617188 70.019531 119.367188 C 71.390625 118.117188 72.074219 116.566406 72.074219 114.714844 C 72.074219 113.628906 71.835938 112.703125 71.355469 111.941406 C 70.878906 111.179688 70.148438 110.554688 69.167969 110.0625 C 68.1875 109.574219 65.816406 108.753906 62.046875 107.601562 C 58.671875 106.578125 56.203125 105.472656 54.636719 104.273438 C 53.066406 103.078125 51.820312 101.507812 50.894531 99.558594 C 49.96875 97.609375 49.507812 95.519531 49.507812 93.277344 C 49.507812 90.664062 50.101562 88.316406 51.285156 86.226562 C 52.472656 84.140625 54.113281 82.5625 56.203125 81.496094 C 58.292969 80.429688 60.871094 79.898438 63.941406 79.898438 C 68.558594 79.898438 72.160156 81.148438 74.753906 83.652344 C 77.34375 86.15625 78.714844 89.738281 78.867188 94.398438 L 70.933594 94.824219 C 70.582031 92.253906 69.832031 90.457031 68.679688 89.433594 C 67.523438 88.410156 65.878906 87.898438 63.746094 87.898438 C 61.613281 87.898438 59.96875 88.34375 58.816406 89.234375 C 57.660156 90.125 57.085938 91.230469 57.085938 92.554688 C 57.085938 93.855469 57.609375 94.953125 58.65625 95.84375 C 59.703125 96.734375 62.109375 97.710938 65.875 98.777344 C 69.859375 99.933594 72.738281 101.148438 74.511719 102.421875 C 76.285156 103.695312 77.640625 105.339844 78.574219 107.351562 C 79.511719 109.367188 79.980469 111.808594 79.980469 114.683594 C 79.980469 118.84375 78.699219 122.335938 76.140625 125.164062 C 73.582031 127.996094 69.582031 129.410156 64.140625 129.410156 C 54.515625 129.410156 49.15625 123.933594 48.070312 112.980469 Z M 224.164062 107.3125 L 174.394531 193.515625 C 173.445312 195.160156 171.691406 196.175781 169.789062 196.175781 L 70.25 196.175781 C 68.351562 196.175781 66.597656 195.160156 65.648438 193.515625 L 15.878906 107.3125 C 14.925781 105.667969 14.925781 103.640625 15.878906 101.996094 L 65.648438 15.789062 C 66.597656 14.144531 68.351562 13.132812 70.25 13.132812 L 169.789062 13.132812 C 171.691406 13.132812 173.445312 14.144531 174.394531 15.789062 L 224.164062 101.996094 C 225.113281 103.640625 225.113281 105.667969 224.164062 107.3125 Z M 239.328125 101.996094 L 181.976562 2.65625 C 181.027344 1.011719 179.273438 0 177.375 0 L 62.667969 0 C 60.769531 0 59.015625 1.011719 58.066406 2.65625 L 0.710938 101.996094 C -0.238281 103.640625 -0.238281 105.667969 0.710938 107.3125 L 58.066406 206.648438 C 59.015625 208.292969 60.769531 209.308594 62.667969 209.308594 L 110.78125 209.308594 L 110.78125 481.519531 L 97.691406 481.519531 L 97.691406 500 L 142.351562 500 L 142.351562 481.519531 L 129.261719 481.519531 L 129.261719 209.308594 L 177.375 209.308594 C 179.273438 209.308594 181.027344 208.292969 181.976562 206.648438 L 239.328125 107.3125 C 240.28125 105.667969 240.28125 103.640625 239.328125 101.996094" fill="#f4f2f3"/></g><g clip-path="url(#b)" id="change4_1"><path d="M 239.328125 101.996094 L 181.976562 2.65625 C 181.027344 1.011719 179.273438 0 177.375 0 L 120.019531 0 L 120.019531 13.132812 L 169.789062 13.132812 C 171.691406 13.132812 173.445312 14.144531 174.394531 15.789062 L 224.164062 101.996094 C 225.113281 103.640625 225.113281 105.667969 224.164062 107.3125 L 174.394531 193.515625 C 173.445312 195.160156 171.691406 196.175781 169.789062 196.175781 L 120.019531 196.175781 L 120.019531 209.308594 L 110.78125 209.308594 L 110.78125 217.023438 L 120.019531 217.023438 L 120.019531 500 L 142.351562 500 L 142.351562 481.519531 L 129.261719 481.519531 L 129.261719 209.308594 L 177.375 209.308594 C 179.273438 209.308594 181.027344 208.292969 181.976562 206.648438 L 239.328125 107.3125 C 240.28125 105.667969 240.28125 103.640625 239.328125 101.996094 Z M 169.796875 88.8125 L 169.796875 102.433594 L 174.183594 102.433594 C 177.128906 102.433594 179.132812 102.226562 180.191406 101.8125 C 181.246094 101.394531 182.113281 100.648438 182.792969 99.566406 C 183.46875 98.488281 183.808594 97.160156 183.808594 95.589844 C 183.808594 93.996094 183.457031 92.65625 182.757812 91.5625 C 182.0625 90.472656 181.199219 89.742188 180.171875 89.371094 C 179.148438 89 176.976562 88.8125 173.660156 88.8125 Z M 161.890625 128.59375 L 161.890625 80.714844 L 174.628906 80.714844 C 179.375 80.714844 182.480469 80.941406 183.9375 81.398438 C 186.265625 82.140625 188.1875 83.71875 189.703125 86.136719 C 191.214844 88.550781 191.972656 91.664062 191.972656 95.476562 C 191.972656 98.9375 191.320312 101.839844 190.011719 104.179688 C 188.707031 106.519531 187.074219 108.164062 185.113281 109.109375 C 183.152344 110.058594 179.777344 110.53125 174.988281 110.53125 L 169.796875 110.53125 L 169.796875 128.59375 Z M 144.445312 117.046875 C 142.398438 119.78125 139.8125 121.148438 136.695312 121.148438 C 133.597656 121.148438 131.003906 119.769531 128.910156 117.015625 C 126.816406 114.261719 125.769531 110.128906 125.769531 104.621094 C 125.769531 99.003906 126.78125 94.855469 128.8125 92.179688 C 130.839844 89.5 133.46875 88.160156 136.695312 88.160156 C 139.921875 88.160156 142.53125 89.488281 144.527344 92.144531 C 146.523438 94.800781 147.519531 98.90625 147.519531 104.457031 C 147.519531 110.117188 146.496094 114.316406 144.445312 117.046875 Z M 136.644531 79.898438 C 132.769531 79.898438 129.46875 80.800781 126.75 82.605469 C 124.027344 84.414062 121.820312 87.164062 120.136719 90.855469 C 120.09375 90.941406 120.0625 91.039062 120.019531 91.128906 L 120.019531 118.199219 C 120.867188 120.164062 121.925781 121.9375 123.222656 123.5 C 126.507812 127.4375 130.996094 129.410156 136.679688 129.410156 C 142.316406 129.410156 146.78125 127.417969 150.066406 123.433594 C 153.8125 118.925781 155.6875 112.667969 155.6875 104.652344 C 155.6875 96.730469 153.917969 90.621094 150.378906 86.332031 C 146.839844 82.042969 142.261719 79.898438 136.644531 79.898438" fill="#e3e2e0"/></g></g></svg>