<?xml version="1.0" encoding="UTF-8" standalone="no"?><svg xmlns="http://www.w3.org/2000/svg" xmlns:xlink="http://www.w3.org/1999/xlink" fill="#000000" height="158.7" preserveAspectRatio="xMidYMid meet" version="1" viewBox="4.2 7.6 205.5 158.7" width="205.5" zoomAndPan="magnify"><g id="change1_1"><path d="M27.5,166.3l-8.9-4.7l-8.9,4.7l1.7-9.9l-7.2-7l9.9-1.4l4.4-9l4.4,9l9.9,1.4l-7.2,7L27.5,166.3z M18.6,159.4 l6.2,3.3l-1.2-6.9l5-4.9l-6.9-1l-3.1-6.3l-3.1,6.3l-6.9,1l5,4.9l-1.2,6.9L18.6,159.4z M82.3,129.6l1.2-7.3l-5.3-5.1l7.3-1.1l3.3-6.6 l3.3,6.6l7.3,1.1l-5.3,5.1l1.2,7.3l-6.5-3.4L82.3,129.6z M88.8,123.9l3.9,2l-0.7-4.3l3.1-3l-4.3-0.6l-1.9-3.9L87,118l-4.3,0.6l3.1,3 l-0.7,4.3L88.8,123.9z M145.6,122.6l-4.7-2.5l-4.7,2.5l0.9-5.2l-3.8-3.7l5.2-0.8l2.3-4.7l2.3,4.7l5.2,0.8l-3.8,3.7L145.6,122.6z M137.7,115.1l1.6,1.6l-0.4,2.2l2-1.1l2,1.1l-0.4-2.2l1.6-1.6l-2.2-0.3l-1-2l-1,2L137.7,115.1z M202.8,104.6l-11.5-6l-11.5,6 l2.2-12.8l-9.3-9.1l12.8-1.9l5.7-11.6l5.7,11.6l12.8,1.9l-9.3,9.1L202.8,104.6z M191.3,96.4l8.8,4.6l-1.7-9.8l7.1-7l-9.9-1.4 l-4.4-8.9l-4.4,8.9l-9.9,1.4l7.1,7l-1.7,9.8L191.3,96.4z M162.7,103.7l-6.3-3.3l-6.3,3.3l1.2-7l-5.1-5l7.1-1l3.2-6.4l3.2,6.4l7.1,1 l-5.1,5L162.7,103.7z M150.5,93.1l3,2.9l-0.7,4.1l3.7-1.9l3.7,1.9l-0.7-4.1l3-2.9l-4.1-0.6l-1.8-3.7l-1.8,3.7L150.5,93.1z M146.9,80 l-13-6.8L121,80l2.5-14.4L113,55.3l14.5-2.1l6.5-13.1l6.5,13.1l14.5,2.1l-10.5,10.2L146.9,80z M117.3,56.7l8.3,8.1l-2,11.5l10.3-5.4 l10.3,5.4l-2-11.5l8.3-8.1L139,55l-5-10.4L128.8,55L117.3,56.7z M178.3,69.3l-7.5-3.9l-7.5,3.9l1.4-8.3l-6.1-5.9l8.4-1.2l3.7-7.6 l3.7,7.6L183,55l-6.1,5.9L178.3,69.3z M163.1,56.4l3.9,3.8l-0.9,5.4l4.8-2.5l4.8,2.5l-0.9-5.4l3.9-3.8l-5.4-0.8l-2.4-4.9l-2.4,4.9 L163.1,56.4z M131.8,34.5l-8.7-4.6l-8.7,4.6l1.7-9.7l-7.1-6.9l9.8-1.4l4.4-8.9l4.4,8.9l9.8,1.4l-7.1,6.9L131.8,34.5z M123.1,27.7 l6.1,3.2l-1.2-6.8l4.9-4.8l-6.8-1l-3-6.2l-3,6.2l-6.8,1l4.9,4.8l-1.2,6.8L123.1,27.7z" fill="#fddc30"/></g></svg>