<?xml version="1.0" encoding="UTF-8"?><svg xmlns="http://www.w3.org/2000/svg" xmlns:xlink="http://www.w3.org/1999/xlink" height="181.2" preserveAspectRatio="xMidYMid meet" version="1.0" viewBox="6.0 6.3 179.7 181.2" width="179.7" zoomAndPan="magnify"><g id="change1_2"><path d="M73.39,185.43l-24.71-60c-.23-.56-.78-.93-1.39-.93h-10.59c-.61,0-1.16,.37-1.39,.93l-24.71,60c-.19,.46-.14,.99,.14,1.41s.75,.67,1.25,.67h15.55c.61,0,1.16-.37,1.39-.93l2.71-6.57h20.71l2.71,6.57c.23,.56,.78,.93,1.39,.93h15.55c.5,0,.97-.25,1.25-.67s.33-.94,.14-1.41Zm-28.02-20.43h-6.74l3.37-8.18,3.37,8.18Z" fill="#e44e91"/></g><g><g><g id="change2_1"><path d="M182.04,6.57l-35.1,5.01c-2.45,.35-3.45,3.34-1.7,5.09l8.68,8.68-27.92,27.92-26.38-26.38c-1.17-1.17-3.07-1.17-4.24,0l-39.11,39.11,12.73,12.73,28.5-28.5,26.38,26.38c1.17,1.17,3.07,1.17,4.24,0l38.53-38.53,8.68,8.68c1.75,1.75,4.74,.75,5.09-1.7l5.01-35.1c.28-1.98-1.41-3.68-3.39-3.39Z" fill="#4ddcbe"/></g><g id="change3_1"><path d="M123.88,76.61c1.17,1.17,3.07,1.17,4.24,0l38.53-38.53,8.68,8.68c1.75,1.75,4.74,.75,5.09-1.7l4.52-31.64-31.64,4.52c-2.45,.35-3.45,3.34-1.7,5.09l8.68,8.68-34.29,34.29-26.38-26.38c-1.17-1.17-3.07-1.17-4.24,0l-32.74,32.74,6.36,6.36,28.5-28.5,26.38,26.38Z" fill="#3cc8aa"/></g></g><g id="change4_3"><path d="M168.75 132L168.75 154.5 144.75 154.5 144.75 132 135.75 132 135.75 186 144.75 186 144.75 163.5 168.75 163.5 168.75 186 177.75 186 177.75 132 168.75 132z" fill="#dc286e"/></g><g fill="#e44e91" id="change1_1"><path d="M177.75,124.5h-15c-.83,0-1.5,.67-1.5,1.5v21h-15v-21c0-.83-.67-1.5-1.5-1.5h-15c-.83,0-1.5,.67-1.5,1.5v60c0,.83,.67,1.5,1.5,1.5h15c.83,0,1.5-.67,1.5-1.5v-21h15v21c0,.83,.67,1.5,1.5,1.5h15c.83,0,1.5-.67,1.5-1.5v-60c0-.83-.67-1.5-1.5-1.5Z"/><path d="M117,124.5h-45c-.83,0-1.5,.67-1.5,1.5v15c0,.83,.67,1.5,1.5,1.5h13.5v43.5c0,.83,.67,1.5,1.5,1.5h15c.83,0,1.5-.67,1.5-1.5v-43.5h13.5c.83,0,1.5-.67,1.5-1.5v-15c0-.83-.67-1.5-1.5-1.5Z"/></g><g fill="#dc286e" id="change4_1"><path d="M171.75,130.5c-.83,0-1.5,.67-1.5,1.5v21h-24v-21c0-.83-.67-1.5-1.5-1.5h-6c-.83,0-1.5,.67-1.5,1.5v54c0,.83,.67,1.5,1.5,1.5h6c.83,0,1.5-.67,1.5-1.5v-21h15v21c0,.83,.67,1.5,1.5,1.5h15c.83,0,1.5-.67,1.5-1.5v-54c0-.83-.67-1.5-1.5-1.5h-6Z"/><path d="M117,130.5h-36c-.83,0-1.5,.67-1.5,1.5v9c0,.83,.67,1.5,1.5,1.5h12v43.5h1.5c0,.83,.67,1.5,1.5,1.5h6c.83,0,1.5-.67,1.5-1.5v-43.5h13.5c.83,0,1.5-.67,1.5-1.5v-9c0-.83-.67-1.5-1.5-1.5Z"/></g><g><g id="change5_1"><circle cx="39" cy="81" fill="#fae15a" r="33"/></g><g id="change6_1"><path d="M54.79,52.01c2.56,4.69,4.01,10.07,4.01,15.79,0,18.23-14.77,33-33,33-5.72,0-11.1-1.45-15.79-4.01,5.6,10.26,16.48,17.21,28.99,17.21,18.23,0,33-14.77,33-33,0-12.51-6.96-23.39-17.21-28.99Z" fill="#f5c115"/></g><g id="change7_1"><circle cx="39" cy="81" fill="#efa400" r="27"/></g><g id="change8_1"><path d="M58.24,62.07c.33,1.87,.56,3.77,.56,5.73,0,18.23-14.77,33-33,33-1.96,0-3.86-.23-5.73-.56,4.87,4.79,11.55,7.76,18.93,7.76,14.91,0,27-12.09,27-27,0-7.37-2.96-14.05-7.76-18.93Z" fill="#e68c00"/></g><g id="change6_2"><circle cx="39" cy="81" fill="#f5c115" r="24"/></g><g id="change7_2"><path d="M58.78,67.41c0,.13,.02,.26,.02,.39,0,18.23-14.77,33-33,33-.13,0-.26-.02-.39-.02,3.86,2.66,8.54,4.22,13.59,4.22,13.25,0,24-10.75,24-24,0-5.05-1.56-9.72-4.22-13.59Z" fill="#efa400"/></g><g id="change7_3"><path d="M43.01,93.99l-10.76-5.38v-10.61h-4.5v12c0,.85,.48,1.63,1.24,2.01l10.76,5.38v7.57c1.54-.05,3.05-.23,4.5-.56v-8.41c0-.85-.48-1.63-1.24-2.01Z" fill="#efa400"/></g><g id="change8_2"><path d="M44.25,96c0-.26-.06-.51-.14-.75-1.38,.92-2.84,1.71-4.36,2.42v7.29c1.54-.05,3.05-.23,4.5-.56v-8.41Z" fill="#e68c00"/></g><g id="change7_4"><path d="M34.99,68.01l10.76,5.38v10.61h4.5v-12c0-.85-.48-1.63-1.24-2.01l-10.76-5.38v-7.57c-1.54,.05-3.05,.23-4.5,.56v8.41c0,.85,.48,1.63,1.24,2.01Z" fill="#efa400"/></g><g id="change5_2"><circle cx="48" cy="84" fill="#fae15a" r="4.5"/></g><g id="change5_3"><circle cx="30" cy="78" fill="#fae15a" r="4.5"/></g></g></g><g id="change4_2"><path d="M73.39,185.43l-22.62-54.93h-5.06c-.61,0-1.16,.37-1.39,.93l-23.09,56.07h6.32c.61,0,1.16-.37,1.39-.93l2.71-6.57h20.71l2.71,6.57c.23,.56,.78,.93,1.39,.93h15.55c.5,0,.97-.25,1.25-.67s.33-.94,.14-1.41Zm-28.02-20.43h-6.74l3.37-8.18,3.37,8.18Z" fill="#dc286e"/></g></svg>