<?xml version="1.0" encoding="UTF-8"?><svg xmlns="http://www.w3.org/2000/svg" xmlns:xlink="http://www.w3.org/1999/xlink" clip-rule="evenodd" fill-rule="evenodd" height="835.5" preserveAspectRatio="xMidYMid meet" stroke-linejoin="round" stroke-miterlimit="2" version="1.0" viewBox="5.0 -0.0 1304.2 835.5" width="1304.2" zoomAndPan="magnify"><g><g id="change1_1"><path d="M1271.01,603.129c-33.124,-8.474 -110.507,14.341 -119.056,-12.985c-22.187,-70.917 -87.823,-92.306 -122.156,-55.011c-13.509,14.675 -20.202,42.585 -40.702,47.017c-31.575,6.827 -62.781,-25.476 -95.549,-8.595c-22.468,11.574 -7.58,43.684 -27.687,56.008c-25.309,15.512 -100.061,-10.955 -103.905,41.983c-3.076,42.365 72.386,51.943 106.71,47.232c14.583,-2.002 32.419,-13.305 46.779,-11.129c25.319,3.836 35.343,34.473 65.237,34.473c34.276,0 51.535,-38.825 88.672,-30.673c44.937,9.864 60.592,50.339 117.627,34.564c22.193,-6.139 30.665,-30.72 49.222,-42.255c21.825,-13.567 65.779,-19.636 69.606,-47.289c3.447,-24.907 -8.893,-46.713 -34.798,-53.34Z" fill="#fff5ef"/></g><g id="change2_1"><path d="M645.375,87.282c-74.002,58.909 -121.468,149.748 -121.468,251.586c-0,177.387 144.015,321.402 321.402,321.402c91.425,0 173.986,-38.256 232.536,-99.622c-44.68,158.49 -190.446,274.807 -363.165,274.807c-208.22,0 -377.268,-169.048 -377.268,-377.268c-0,-184.546 132.792,-338.321 307.963,-370.905Z" fill="#dcb9a6"/></g><g id="change3_1"><path d="M773.637,106.766c0.489,-0.799 1.359,-1.287 2.297,-1.287c0.938,-0 1.808,0.488 2.297,1.287l17.11,27.963l31.882,7.632c0.912,0.218 1.645,0.895 1.934,1.787c0.29,0.892 0.095,1.87 -0.514,2.583l-21.307,24.913l2.594,32.68c0.074,0.934 -0.344,1.841 -1.102,2.392c-0.759,0.551 -1.749,0.668 -2.616,0.308l-30.278,-12.565l-30.279,12.565c-0.866,0.36 -1.856,0.243 -2.615,-0.308c-0.759,-0.551 -1.176,-1.458 -1.102,-2.392l2.594,-32.68l-21.307,-24.913c-0.609,-0.713 -0.804,-1.691 -0.514,-2.583c0.289,-0.892 1.022,-1.569 1.934,-1.787l31.882,-7.632l17.11,-27.963Z" fill="#d9af98"/></g><g id="change3_2"><path d="M911.785,329.102c0.264,-0.432 0.734,-0.695 1.24,-0.695c0.506,0 0.976,0.263 1.24,0.695l9.238,15.097l17.212,4.12c0.493,0.118 0.888,0.484 1.045,0.965c0.156,0.482 0.051,1.01 -0.278,1.394l-11.504,13.451l1.401,17.643c0.04,0.505 -0.186,0.994 -0.595,1.292c-0.41,0.297 -0.944,0.36 -1.412,0.166l-16.347,-6.784l-16.347,6.784c-0.468,0.194 -1.002,0.131 -1.412,-0.166c-0.41,-0.298 -0.635,-0.787 -0.595,-1.292l1.401,-17.643l-11.504,-13.451c-0.329,-0.384 -0.434,-0.912 -0.278,-1.394c0.157,-0.481 0.552,-0.847 1.045,-0.965l17.212,-4.12l9.238,-15.097Z" fill="#d9af98"/></g><g id="change3_3"><path d="M1011.82,155.691l-12.184,19.913c-0,0 -22.704,5.435 -22.704,5.435c-1.744,0.417 -3.145,1.712 -3.699,3.417c-0.554,1.705 -0.181,3.575 0.984,4.938c0,-0 15.174,17.742 15.174,17.742c-0,-0 -1.847,23.271 -1.847,23.271c-0.142,1.788 0.656,3.52 2.106,4.574c1.451,1.054 3.345,1.277 5.001,0.59c-0,0 21.562,-8.948 21.562,-8.948c-0,-0 21.562,8.948 21.562,8.948c1.656,0.687 3.55,0.464 5,-0.59c1.451,-1.054 2.249,-2.786 2.107,-4.574c-0,0 -1.847,-23.271 -1.847,-23.271c-0,-0 15.173,-17.742 15.173,-17.742c1.165,-1.363 1.538,-3.233 0.984,-4.938c-0.554,-1.705 -1.955,-3 -3.699,-3.417c0,0 -22.703,-5.435 -22.703,-5.435c-0,0 -12.185,-19.913 -12.185,-19.913c-0.936,-1.529 -2.599,-2.462 -4.392,-2.462c-1.793,0 -3.457,0.933 -4.393,2.462Zm4.393,4.797l11.922,19.485c0.434,0.708 1.131,1.214 1.938,1.408l22.216,5.318l-14.847,17.36c-0.54,0.631 -0.806,1.451 -0.74,2.278l1.807,22.772l-21.098,-8.756c-0.767,-0.318 -1.629,-0.318 -2.396,0l-21.099,8.756l1.808,-22.772c0.065,-0.827 -0.201,-1.647 -0.741,-2.278l-14.847,-17.36l22.216,-5.318c0.807,-0.194 1.505,-0.7 1.938,-1.408l11.923,-19.485Z" fill="#d9af98"/></g><g id="change3_4"><path d="M466.774,2.126l-7.721,12.618c0,0 -14.387,3.444 -14.387,3.444c-1.505,0.361 -2.715,1.478 -3.194,2.951c-0.478,1.472 -0.156,3.087 0.85,4.264c0,0 9.615,11.242 9.615,11.242c-0,0 -1.17,14.747 -1.17,14.747c-0.123,1.544 0.566,3.04 1.819,3.95c1.252,0.91 2.888,1.103 4.318,0.509c-0,0 13.663,-5.67 13.663,-5.67c0,0 13.664,5.67 13.664,5.67c1.43,0.594 3.065,0.401 4.318,-0.509c1.252,-0.91 1.941,-2.406 1.819,-3.95c-0,0 -1.171,-14.747 -1.171,-14.747c0,0 9.615,-11.242 9.615,-11.242c1.007,-1.177 1.328,-2.792 0.85,-4.264c-0.478,-1.473 -1.688,-2.59 -3.194,-2.951c0,0 -14.387,-3.444 -14.387,-3.444c0,0 -7.721,-12.618 -7.721,-12.618c-0.808,-1.321 -2.245,-2.126 -3.793,-2.126c-1.548,-0 -2.985,0.805 -3.793,2.126Zm3.793,5.776l6.86,11.211c0.433,0.708 1.131,1.214 1.938,1.408l12.782,3.059l-8.542,9.989c-0.54,0.631 -0.806,1.451 -0.741,2.278l1.04,13.102l-12.139,-5.038c-0.767,-0.318 -1.629,-0.318 -2.396,0l-12.139,5.038l1.04,-13.102c0.066,-0.827 -0.201,-1.647 -0.74,-2.278l-8.543,-9.989l12.782,-3.059c0.808,-0.194 1.505,-0.7 1.938,-1.408l6.86,-11.211Z" fill="#d9af98"/></g><g id="change1_2"><path d="M517.146,505.684c-33.124,-8.474 -110.507,14.341 -119.056,-12.985c-22.187,-70.917 -87.823,-92.306 -122.156,-55.011c-13.509,14.675 -20.202,42.585 -40.702,47.017c-31.575,6.827 -62.781,-25.476 -95.549,-8.595c-22.468,11.574 -7.58,43.684 -27.687,56.008c-25.309,15.512 -100.061,-10.955 -103.905,41.983c-3.076,42.365 72.386,51.943 106.71,47.232c14.583,-2.002 32.419,-13.305 46.779,-11.129c25.319,3.836 35.343,34.473 65.237,34.473c34.276,0 51.535,-38.825 88.672,-30.673c44.937,9.864 60.592,50.339 117.627,34.564c22.193,-6.139 30.665,-30.72 49.222,-42.255c21.825,-13.567 65.779,-19.636 69.606,-47.289c3.447,-24.907 -8.893,-46.713 -34.798,-53.34Z" fill="#fff5ef"/></g></g></svg>