<?xml version="1.0" encoding="UTF-8" standalone="no"?><svg xmlns="http://www.w3.org/2000/svg" xmlns:xlink="http://www.w3.org/1999/xlink" fill="#fddc30" height="827.3" preserveAspectRatio="xMidYMid meet" version="1" viewBox="-0.0 86.4 1001.2 827.3" width="1001.2" zoomAndPan="magnify"><g id="change1_1"><path d="M 929.207031 173.734375 C 929.136719 173.347656 929.070312 172.960938 929.003906 172.578125 C 928.914062 172.230469 928.902344 172.328125 929.214844 173.8125 C 929.210938 173.789062 929.210938 173.765625 929.207031 173.738281 C 929.207031 173.738281 929.207031 173.734375 929.207031 173.734375"/><path d="M 105.726562 759.035156 C 105.726562 759.039062 105.730469 759.042969 105.734375 759.042969 C 105.644531 758.96875 105.5625 758.902344 105.492188 758.84375 C 105.570312 758.910156 105.648438 758.972656 105.726562 759.035156"/><path d="M 978.980469 181.84375 C 978.882812 183.058594 978.742188 184.269531 978.621094 185.484375 C 978.609375 185.566406 978.605469 185.632812 978.597656 185.703125 C 978.46875 186.578125 978.335938 187.449219 978.1875 188.320312 C 977.207031 194.117188 975.792969 199.835938 974.085938 205.460938 C 970.128906 218.476562 965.417969 229.089844 959.164062 241.179688 C 941.351562 275.625 917.867188 307.015625 893.003906 336.640625 C 892.992188 336.652344 892.984375 336.667969 892.972656 336.679688 C 892.433594 337.175781 891.953125 337.738281 891.539062 338.371094 C 863.589844 371.402344 833.382812 402.492188 801.949219 432.207031 C 766.300781 465.90625 729 497.851562 690.503906 528.246094 C 651.023438 559.421875 610.164062 588.886719 568.140625 616.539062 C 526.636719 643.851562 483.929688 669.410156 439.886719 692.425781 C 393.777344 716.515625 346.113281 738.011719 296.503906 753.84375 C 252.644531 767.84375 206.691406 778.285156 160.488281 775.507812 C 158.144531 775.367188 155.800781 775.183594 153.464844 774.964844 C 152.421875 774.863281 151.382812 774.753906 150.339844 774.636719 C 149.9375 774.59375 148.179688 774.367188 148.011719 774.355469 C 144.097656 773.796875 140.203125 773.09375 136.347656 772.210938 C 132.683594 771.375 129.050781 770.378906 125.484375 769.183594 C 123.945312 768.671875 122.425781 768.101562 120.90625 767.53125 C 120.578125 767.40625 120.253906 767.269531 119.929688 767.140625 C 119.183594 766.804688 118.433594 766.476562 117.691406 766.125 C 114.847656 764.777344 112.082031 763.265625 109.429688 761.574219 C 108.265625 760.832031 107.136719 760.042969 106.011719 759.246094 C 105.910156 759.171875 105.820312 759.109375 105.734375 759.042969 C 105.8125 759.105469 105.878906 759.160156 105.96875 759.234375 C 105.886719 759.167969 105.804688 759.101562 105.726562 759.035156 C 105.089844 758.566406 104.925781 758.390625 105.492188 758.84375 C 104.96875 758.414062 104.445312 757.992188 103.933594 757.546875 C 101.914062 755.796875 100.007812 753.910156 98.246094 751.902344 C 97.773438 751.363281 97.335938 750.792969 96.859375 750.257812 C 96.128906 749.183594 95.355469 748.144531 94.65625 747.046875 C 93.222656 744.789062 92.046875 742.433594 90.859375 740.042969 C 90.835938 739.996094 90.816406 739.960938 90.796875 739.917969 C 90.621094 739.460938 90.425781 739.003906 90.253906 738.546875 C 89.75 737.195312 89.289062 735.824219 88.871094 734.441406 C 88.089844 731.832031 87.464844 729.175781 86.980469 726.492188 C 86.871094 725.867188 86.78125 725.238281 86.667969 724.617188 C 86.578125 723.160156 86.347656 721.707031 86.246094 720.253906 C 85.84375 714.476562 85.980469 708.664062 86.5 702.898438 C 86.640625 701.367188 86.828125 699.839844 86.996094 698.308594 C 86.996094 698.300781 86.996094 698.296875 86.996094 698.289062 C 87 698.261719 87.003906 698.238281 87.007812 698.210938 C 87.136719 697.371094 87.257812 696.53125 87.394531 695.695312 C 87.90625 692.527344 88.511719 689.371094 89.203125 686.238281 C 92.097656 673.054688 96.367188 660.195312 101.324219 647.652344 C 101.972656 646.015625 102.632812 644.378906 103.308594 642.75 C 103.515625 642.246094 103.726562 641.742188 103.9375 641.242188 C 104.027344 641.03125 104.449219 640.042969 104.648438 639.578125 C 106.058594 636.316406 107.511719 633.074219 109.003906 629.851562 C 111.976562 623.429688 115.101562 617.074219 118.351562 610.785156 C 129.007812 590.140625 140.949219 570.1875 153.507812 550.648438 C 158.796875 560.21875 164.488281 569.558594 170.574219 578.648438 C 151.757812 613.394531 132.921875 666.949219 171.726562 693.976562 C 187.847656 705.207031 209.589844 706.996094 228.632812 706.347656 C 253.875 705.484375 278.953125 700.066406 303.121094 693 C 337.679688 682.898438 371.144531 669.070312 403.730469 653.84375 C 441.1875 636.34375 477.589844 616.601562 513.164062 595.554688 C 551.085938 573.117188 588.09375 549.140625 624.242188 523.949219 C 660.703125 498.535156 696.304688 471.867188 730.90625 443.976562 C 762.753906 418.304688 793.765625 391.546875 823.375 363.320312 C 848.601562 339.273438 872.964844 314.160156 894.992188 287.125 C 910.960938 267.523438 926.363281 246.851562 937.476562 224.039062 C 945.019531 208.546875 951.777344 190.703125 949.867188 173.136719 C 948.378906 159.503906 942.234375 148.105469 931.035156 140.027344 C 917.738281 130.441406 899.882812 128.050781 883.953125 127.503906 C 873.851562 127.152344 863.742188 127.726562 853.6875 128.738281 C 850.753906 124.351562 847.726562 120.027344 844.621094 115.761719 C 867.566406 111.378906 890.867188 108.882812 914.359375 111.109375 C 915.695312 111.238281 917.027344 111.394531 918.363281 111.542969 C 918.476562 111.554688 918.566406 111.5625 918.640625 111.570312 C 919.40625 111.683594 920.175781 111.796875 920.941406 111.917969 C 923.722656 112.363281 926.488281 112.894531 929.234375 113.527344 C 934.066406 114.644531 938.773438 116.113281 943.40625 117.867188 C 943.738281 117.996094 944.066406 118.132812 944.398438 118.269531 C 944.523438 118.324219 944.648438 118.378906 944.730469 118.421875 C 945.691406 118.902344 946.683594 119.324219 947.644531 119.804688 C 949.753906 120.859375 951.808594 122.007812 953.808594 123.257812 C 954.777344 123.867188 955.734375 124.5 956.679688 125.15625 C 956.863281 125.289062 957.902344 126.066406 958.390625 126.421875 C 958.910156 126.859375 959.941406 127.714844 960.1875 127.933594 C 961.019531 128.664062 961.835938 129.421875 962.628906 130.195312 C 964.117188 131.65625 965.488281 133.210938 966.851562 134.785156 C 967.046875 135.011719 967.226562 135.246094 967.414062 135.480469 C 967.4375 135.515625 967.460938 135.550781 967.480469 135.582031 C 968.152344 136.605469 968.894531 137.582031 969.558594 138.613281 C 970.625 140.28125 971.609375 142.003906 972.515625 143.761719 C 973.03125 144.769531 973.488281 145.800781 973.980469 146.816406 C 973.984375 146.824219 973.984375 146.824219 973.988281 146.828125 C 974.171875 147.296875 974.359375 147.761719 974.535156 148.230469 C 976.179688 152.597656 977.371094 157.128906 978.195312 161.722656 C 978.242188 161.984375 978.472656 163.425781 978.578125 164.070312 C 978.644531 164.707031 978.859375 166.554688 978.902344 167.003906 C 979.136719 169.585938 979.269531 172.171875 979.269531 174.765625 C 979.269531 177.125 979.167969 179.488281 978.980469 181.84375 Z M 978.550781 186.171875 C 978.496094 186.6875 978.515625 186.496094 978.550781 186.171875 Z M 943.953125 118.074219 C 943.835938 118.027344 943.859375 118.035156 943.953125 118.074219 Z M 967.394531 135.453125 C 966.546875 134.390625 967.085938 135.023438 967.394531 135.453125 Z M 981.734375 120.417969 C 968.324219 104.027344 947.367188 95.371094 926.925781 92.015625 C 892.660156 86.394531 857.382812 91.464844 823.808594 98.964844 C 815.445312 100.832031 814.757812 110.621094 819.234375 116.28125 C 826.492188 125.457031 833.214844 135.046875 839.535156 144.886719 C 841.355469 147.71875 844.863281 150.433594 848.484375 150.019531 C 860.050781 148.691406 871.707031 147.84375 883.355469 148.203125 C 892.65625 148.488281 897.863281 148.894531 906.824219 151.441406 C 908.421875 151.898438 909.980469 152.445312 911.554688 152.976562 C 911.796875 153.058594 912.574219 153.378906 912.917969 153.519531 C 913.285156 153.683594 913.65625 153.847656 914.019531 154.023438 C 915.300781 154.644531 916.554688 155.320312 917.773438 156.058594 C 918.355469 156.414062 918.929688 156.777344 919.488281 157.160156 C 919.839844 157.394531 920.714844 158.144531 920.960938 158.347656 C 922.136719 159.433594 923.257812 160.539062 924.332031 161.726562 C 924.238281 161.695312 925.585938 163.449219 925.914062 164 C 926.609375 165.167969 927.171875 166.382812 927.765625 167.605469 C 926.253906 164.480469 927.847656 168.058594 928.109375 168.9375 C 928.449219 170.0625 928.730469 171.199219 928.964844 172.351562 C 928.976562 172.425781 928.988281 172.503906 929.003906 172.578125 C 929.070312 172.851562 929.179688 173.390625 929.207031 173.734375 C 929.230469 173.859375 929.25 173.984375 929.273438 174.105469 C 929.253906 173.996094 929.234375 173.910156 929.214844 173.8125 C 929.320312 175.222656 929.425781 176.621094 929.441406 178.03125 C 929.460938 179.699219 929.398438 181.371094 929.265625 183.03125 C 929.214844 183.65625 929.144531 184.277344 929.074219 184.898438 C 929.011719 185.253906 928.824219 186.511719 928.789062 186.691406 C 928.011719 191.03125 926.84375 195.292969 925.4375 199.46875 C 918.808594 219.152344 905.769531 238.914062 892.859375 256.390625 C 872.25 284.292969 848.289062 309.804688 823.660156 334.167969 C 796.226562 361.304688 767.382812 387.011719 737.742188 411.714844 C 673.300781 465.414062 604.871094 514.632812 533.402344 559.039062 C 498.679688 580.617188 463.191406 601.007812 426.765625 619.574219 C 394.210938 636.167969 363.160156 650.390625 329.566406 662.53125 C 312.605469 668.660156 295.363281 674.09375 277.820312 678.304688 C 255.710938 683.613281 232.621094 687.316406 209.835938 685.152344 C 206.886719 684.871094 207.265625 684.914062 204.910156 684.515625 C 202.820312 684.160156 200.746094 683.734375 198.6875 683.226562 C 196.71875 682.738281 194.765625 682.175781 192.84375 681.523438 C 192.101562 681.269531 191.363281 680.992188 190.632812 680.710938 C 190.640625 680.683594 188.429688 679.742188 188.160156 679.609375 C 181.054688 676.074219 177.4375 672.859375 174.140625 666.941406 C 173.683594 666.128906 173.265625 665.296875 172.867188 664.453125 C 172.765625 664.234375 172.6875 664.078125 172.621094 663.945312 C 172.582031 663.800781 172.53125 663.628906 172.460938 663.390625 C 171.882812 661.457031 171.246094 659.570312 170.824219 657.589844 C 170.644531 656.746094 170.484375 655.890625 170.351562 655.035156 C 170.382812 655.050781 170.144531 652.777344 170.144531 652.808594 C 169.925781 649.714844 169.945312 646.601562 170.101562 643.503906 C 170.6875 631.804688 173.949219 620.265625 178.363281 609.460938 C 182.058594 600.421875 186.8125 591.824219 191.664062 583.367188 C 193.40625 580.335938 193.738281 575.914062 191.664062 572.910156 C 181.109375 557.628906 171.65625 541.628906 163.421875 524.980469 C 159.765625 517.589844 149.515625 518.949219 145.53125 524.980469 C 132.691406 544.40625 120.269531 564.109375 108.960938 584.46875 C 94.839844 609.898438 82 636.496094 73.523438 664.386719 C 66.125 688.726562 61.257812 716.621094 69.355469 741.433594 C 78.128906 768.316406 101.132812 784.652344 127.785156 791.457031 C 169.988281 802.226562 216.441406 795.707031 258.164062 785.996094 C 311.976562 773.46875 363.761719 752.578125 413.492188 728.773438 C 458.574219 707.195312 502.21875 682.644531 544.621094 656.207031 C 588.871094 628.617188 631.804688 598.90625 673.390625 567.449219 C 714.195312 536.585938 753.804688 504.121094 791.765625 469.8125 C 826.257812 438.636719 859.484375 405.960938 890.40625 371.222656 C 893.886719 367.3125 897.335938 363.378906 900.75 359.414062 C 903.101562 356.683594 906.503906 353.546875 908.65625 350.09375 C 932.351562 321.78125 954.882812 292.023438 972.769531 259.652344 C 986.199219 235.34375 997.96875 208.554688 999.796875 180.496094 C 1001.191406 159.101562 995.394531 137.113281 981.734375 120.417969"/><path d="M 46.46875 545.191406 C 45.75 546.152344 45.085938 547.144531 44.445312 548.148438 C 43.804688 547.144531 43.140625 546.152344 42.417969 545.191406 C 39.265625 540.996094 35.625 537.550781 31.632812 534.605469 C 35.628906 531.660156 39.265625 528.214844 42.417969 524.019531 C 43.140625 523.054688 43.804688 522.066406 44.441406 521.0625 C 45.082031 522.066406 45.746094 523.058594 46.46875 524.019531 C 49.625 528.210938 53.261719 531.65625 57.253906 534.601562 C 53.261719 537.546875 49.621094 540.996094 46.46875 545.191406 Z M 68.871094 551.464844 C 69.003906 551.386719 69.785156 550.808594 70.167969 550.546875 C 71.929688 549.351562 73.773438 548.273438 75.65625 547.277344 C 76.792969 546.679688 77.945312 546.113281 79.105469 545.570312 C 79.421875 545.421875 82.882812 543.925781 81.265625 544.59375 C 91.03125 540.554688 91.046875 528.664062 81.265625 524.613281 C 82.882812 525.28125 79.421875 523.785156 79.105469 523.636719 C 78.085938 523.160156 77.074219 522.667969 76.078125 522.148438 C 74.046875 521.09375 72.0625 519.945312 70.167969 518.660156 C 70.019531 518.558594 68.867188 517.703125 68.753906 517.644531 C 68.089844 517.09375 67.441406 516.53125 66.816406 515.941406 C 66.1875 515.351562 65.578125 514.742188 64.992188 514.109375 C 64.746094 513.847656 63.222656 511.933594 63.398438 512.238281 C 62.320312 510.710938 61.34375 509.117188 60.476562 507.460938 C 60.335938 507.195312 59.25 504.800781 59.304688 505.019531 C 58.988281 504.214844 58.695312 503.402344 58.417969 502.589844 C 56.609375 497.25 55.453125 491.566406 54.804688 486.042969 C 53.242188 472.746094 35.648438 472.71875 34.082031 486.042969 C 33.433594 491.566406 32.28125 497.25 30.46875 502.589844 C 30.195312 503.402344 29.898438 504.214844 29.585938 505.019531 C 29.640625 504.796875 28.550781 507.191406 28.414062 507.460938 C 27.558594 509.097656 26.589844 510.671875 25.527344 512.183594 C 25.585938 512.054688 24.429688 513.523438 24.1875 513.789062 C 23.511719 514.535156 22.804688 515.253906 22.074219 515.941406 C 21.410156 516.566406 20.71875 517.164062 20.015625 517.742188 C 19.886719 517.820312 19.105469 518.398438 18.71875 518.660156 C 16.957031 519.855469 15.113281 520.9375 13.230469 521.929688 C 12.097656 522.53125 10.945312 523.097656 9.78125 523.636719 C 9.636719 523.707031 8.839844 524.054688 8.164062 524.351562 C 4.550781 525.296875 1.316406 528.464844 0.386719 531.851562 C 0.261719 532.292969 0.179688 532.730469 0.113281 533.15625 C 0.105469 533.214844 0.101562 533.277344 0.09375 533.335938 C 0.0546875 533.621094 0.0234375 533.902344 0.0117188 534.179688 C 0.0117188 534.1875 0.0117188 534.191406 0.0117188 534.199219 C -0.0390625 535.246094 0.0820312 536.238281 0.34375 537.175781 C 0.359375 537.234375 0.367188 537.296875 0.386719 537.359375 C 1.308594 540.726562 4.542969 543.910156 8.167969 544.859375 C 8.84375 545.15625 9.640625 545.503906 9.78125 545.570312 C 10.800781 546.046875 11.8125 546.539062 12.808594 547.058594 C 14.839844 548.113281 16.824219 549.261719 18.71875 550.546875 C 18.871094 550.648438 20.019531 551.503906 20.136719 551.566406 C 20.796875 552.113281 21.449219 552.675781 22.074219 553.265625 C 22.699219 553.855469 23.308594 554.46875 23.894531 555.097656 C 24.140625 555.359375 25.664062 557.273438 25.492188 556.972656 C 26.566406 558.5 27.546875 560.089844 28.414062 561.746094 C 28.550781 562.015625 29.636719 564.40625 29.585938 564.191406 C 29.898438 564.992188 30.195312 565.804688 30.46875 566.621094 C 32.28125 571.957031 33.433594 577.640625 34.082031 583.164062 C 35.648438 596.460938 53.238281 596.488281 54.804688 583.164062 C 55.453125 577.640625 56.609375 571.957031 58.417969 566.621094 C 58.695312 565.804688 58.988281 564.992188 59.304688 564.191406 C 59.246094 564.410156 60.335938 562.015625 60.476562 561.746094 C 61.332031 560.109375 62.296875 558.539062 63.359375 557.023438 C 63.300781 557.15625 64.457031 555.683594 64.703125 555.417969 C 65.378906 554.671875 66.082031 553.953125 66.816406 553.265625 C 67.476562 552.640625 68.167969 552.042969 68.871094 551.464844"/><path d="M 653.625 760.5625 C 650.757812 764.375 648.371094 768.441406 646.359375 772.679688 C 644.347656 768.441406 641.960938 764.375 639.09375 760.5625 C 633.296875 752.859375 626.234375 746.933594 618.398438 742.066406 C 626.234375 737.199219 633.296875 731.273438 639.09375 723.570312 C 641.960938 719.757812 644.347656 715.691406 646.359375 711.453125 C 648.371094 715.691406 650.757812 719.757812 653.625 723.570312 C 659.421875 731.273438 666.484375 737.199219 674.320312 742.066406 C 666.484375 746.933594 659.421875 752.859375 653.625 760.5625 Z M 699.855469 732.074219 C 699.527344 731.941406 699.304688 731.851562 699.136719 731.78125 C 698.984375 731.714844 698.804688 731.636719 698.558594 731.527344 C 697.648438 731.125 696.738281 730.722656 695.835938 730.304688 C 694.371094 729.625 692.921875 728.925781 691.488281 728.191406 C 688.492188 726.660156 685.5625 724.988281 682.757812 723.128906 C 682.019531 722.640625 681.289062 722.140625 680.570312 721.625 C 680.414062 721.515625 679.269531 720.613281 679.195312 720.570312 C 678.316406 719.84375 677.445312 719.105469 676.601562 718.332031 C 675.335938 717.167969 674.121094 715.949219 672.960938 714.675781 C 672.476562 714.144531 672.015625 713.589844 671.535156 713.050781 C 671.3125 712.785156 671.09375 712.515625 670.871094 712.246094 C 668.945312 709.609375 667.222656 706.839844 665.726562 703.9375 C 665.359375 703.230469 665.007812 702.519531 664.667969 701.800781 C 664.636719 701.742188 664.027344 700.355469 663.90625 700.117188 C 663.269531 698.550781 662.691406 696.957031 662.15625 695.351562 C 659.390625 687.066406 657.714844 678.320312 656.71875 669.738281 C 655.179688 656.445312 637.542969 656.414062 635.996094 669.738281 C 635.023438 678.148438 633.394531 686.714844 630.730469 694.847656 C 630.132812 696.675781 629.480469 698.492188 628.75 700.273438 C 628.636719 700.527344 628.398438 701.0625 628.253906 701.363281 C 627.914062 702.085938 627.570312 702.808594 627.210938 703.519531 C 625.628906 706.636719 623.789062 709.585938 621.730469 712.410156 C 621.714844 712.429688 621.707031 712.441406 621.695312 712.457031 C 621.632812 712.527344 621.558594 712.609375 621.460938 712.71875 C 620.886719 713.363281 620.34375 714.035156 619.757812 714.675781 C 618.695312 715.84375 617.585938 716.964844 616.429688 718.039062 C 615.394531 719.003906 614.316406 719.921875 613.222656 720.816406 C 613.734375 720.363281 610.855469 722.53125 610.328125 722.882812 C 607.542969 724.753906 604.632812 726.433594 601.652344 727.972656 C 600.082031 728.785156 598.488281 729.558594 596.882812 730.304688 C 595.980469 730.722656 595.070312 731.125 594.160156 731.527344 C 593.886719 731.648438 593.710938 731.722656 593.601562 731.773438 C 589.910156 732.65625 586.574219 735.863281 585.628906 739.3125 C 585.503906 739.757812 585.421875 740.191406 585.355469 740.621094 C 585.347656 740.679688 585.34375 740.734375 585.339844 740.789062 C 585.300781 741.078125 585.269531 741.363281 585.253906 741.644531 C 585.253906 741.652344 585.253906 741.65625 585.253906 741.664062 C 585.203125 742.707031 585.324219 743.699219 585.585938 744.632812 C 585.601562 744.695312 585.609375 744.757812 585.628906 744.820312 C 586.570312 748.25 589.902344 751.476562 593.601562 752.359375 C 593.75 752.425781 593.925781 752.503906 594.160156 752.605469 C 595.070312 753.007812 595.980469 753.414062 596.882812 753.832031 C 598.347656 754.507812 599.796875 755.207031 601.230469 755.941406 C 604.226562 757.476562 607.15625 759.144531 609.960938 761.003906 C 610.699219 761.492188 611.429688 761.992188 612.148438 762.507812 C 612.304688 762.621094 613.449219 763.519531 613.519531 763.5625 C 614.402344 764.289062 615.273438 765.027344 616.113281 765.800781 C 617.382812 766.964844 618.597656 768.183594 619.757812 769.457031 C 620.242188 769.988281 620.707031 770.542969 621.183594 771.085938 C 621.40625 771.347656 621.628906 771.617188 621.847656 771.890625 C 623.773438 774.523438 625.496094 777.292969 626.992188 780.195312 C 627.359375 780.902344 627.710938 781.613281 628.050781 782.332031 C 628.082031 782.394531 628.691406 783.777344 628.8125 784.019531 C 629.449219 785.585938 630.027344 787.175781 630.5625 788.78125 C 633.328125 797.066406 635.003906 805.8125 635.996094 814.394531 C 637.539062 827.6875 655.175781 827.71875 656.71875 814.394531 C 657.695312 805.984375 659.324219 797.421875 661.988281 789.285156 C 662.585938 787.457031 663.238281 785.640625 663.96875 783.859375 C 664.082031 783.605469 664.320312 783.070312 664.464844 782.769531 C 664.804688 782.050781 665.148438 781.328125 665.507812 780.613281 C 667.089844 777.496094 668.929688 774.546875 670.988281 771.722656 C 671.003906 771.703125 671.011719 771.691406 671.023438 771.675781 C 671.085938 771.605469 671.160156 771.523438 671.257812 771.414062 C 671.832031 770.769531 672.378906 770.097656 672.960938 769.457031 C 674.023438 768.289062 675.136719 767.171875 676.289062 766.09375 C 677.324219 765.128906 678.398438 764.214844 679.492188 763.316406 C 678.984375 763.769531 681.863281 761.601562 682.390625 761.25 C 685.175781 759.378906 688.085938 757.699219 691.066406 756.160156 C 692.636719 755.347656 694.230469 754.574219 695.835938 753.832031 C 696.738281 753.414062 697.648438 753.007812 698.558594 752.605469 C 698.84375 752.480469 699.019531 752.402344 699.128906 752.351562 C 699.261719 752.300781 699.480469 752.210938 699.855469 752.058594 C 709.621094 748.03125 709.636719 736.109375 699.855469 732.074219"/><path d="M 915.441406 662.421875 C 914.382812 663.828125 913.417969 665.28125 912.523438 666.769531 C 911.632812 665.28125 910.664062 663.828125 909.605469 662.421875 C 906.007812 657.644531 901.816406 653.765625 897.195312 650.484375 C 901.820312 647.203125 906.015625 643.324219 909.605469 638.546875 C 910.664062 637.140625 911.628906 635.6875 912.523438 634.199219 C 913.414062 635.6875 914.382812 637.140625 915.441406 638.546875 C 919.039062 643.324219 923.230469 647.199219 927.851562 650.480469 C 923.226562 653.761719 919.035156 657.640625 915.441406 662.421875 Z M 952.1875 640.492188 C 953.855469 641.183594 950.378906 639.691406 950.0625 639.542969 C 948.902344 639.011719 947.753906 638.453125 946.617188 637.871094 C 944.464844 636.761719 942.355469 635.554688 940.339844 634.214844 C 940.050781 634.019531 938.132812 632.585938 938.308594 632.769531 C 937.632812 632.210938 936.96875 631.640625 936.328125 631.042969 C 935.496094 630.269531 934.691406 629.460938 933.925781 628.621094 C 933.683594 628.355469 932.183594 626.449219 932.359375 626.753906 C 929.355469 622.519531 927.929688 619.367188 926.652344 615.503906 C 924.777344 609.804688 923.566406 603.691406 922.886719 597.871094 C 921.328125 584.574219 903.722656 584.546875 902.164062 597.871094 C 901.480469 603.691406 900.269531 609.804688 898.394531 615.503906 C 897.117188 619.367188 895.691406 622.519531 892.6875 626.753906 C 892.867188 626.449219 891.367188 628.355469 891.121094 628.621094 C 890.351562 629.460938 889.550781 630.269531 888.71875 631.042969 C 888.078125 631.640625 887.414062 632.210938 886.738281 632.769531 C 886.914062 632.585938 884.996094 634.019531 884.707031 634.214844 C 882.691406 635.554688 880.585938 636.761719 878.433594 637.871094 C 877.296875 638.453125 876.144531 639.011719 874.984375 639.542969 C 874.847656 639.609375 874.082031 639.9375 873.421875 640.226562 C 869.800781 641.164062 866.554688 644.335938 865.621094 647.730469 C 865.5 648.175781 865.417969 648.609375 865.351562 649.039062 C 865.34375 649.09375 865.339844 649.152344 865.332031 649.210938 C 865.292969 649.496094 865.261719 649.78125 865.25 650.0625 C 865.25 650.066406 865.25 650.070312 865.25 650.078125 C 865.199219 651.125 865.316406 652.117188 865.582031 653.050781 C 865.597656 653.113281 865.605469 653.175781 865.621094 653.238281 C 866.550781 656.613281 869.796875 659.800781 873.429688 660.742188 C 874.085938 661.03125 874.847656 661.359375 874.984375 661.421875 C 876.144531 661.957031 877.296875 662.511719 878.433594 663.097656 C 880.585938 664.207031 882.691406 665.410156 884.707031 666.753906 C 884.996094 666.945312 886.914062 668.382812 886.738281 668.199219 C 887.414062 668.757812 888.078125 669.328125 888.71875 669.925781 C 889.550781 670.699219 890.351562 671.503906 891.121094 672.34375 C 891.367188 672.613281 892.867188 674.515625 892.6875 674.210938 C 895.691406 678.445312 897.117188 681.601562 898.394531 685.464844 C 900.269531 691.164062 901.480469 697.277344 902.164062 703.097656 C 903.722656 716.390625 921.324219 716.417969 922.886719 703.097656 C 923.566406 697.277344 924.777344 691.164062 926.652344 685.464844 C 927.929688 681.601562 929.355469 678.445312 932.359375 674.210938 C 932.183594 674.515625 933.683594 672.613281 933.925781 672.34375 C 934.691406 671.503906 935.496094 670.699219 936.328125 669.925781 C 936.96875 669.328125 937.632812 668.757812 938.308594 668.199219 C 938.132812 668.382812 940.050781 666.945312 940.339844 666.753906 C 942.355469 665.410156 944.464844 664.207031 946.617188 663.097656 C 947.753906 662.511719 948.902344 661.957031 950.0625 661.421875 C 950.378906 661.277344 953.855469 659.785156 952.1875 660.476562 C 961.953125 656.4375 961.972656 644.539062 952.1875 640.492188"/><path d="M 406.410156 860.140625 C 405.40625 861.476562 404.488281 862.859375 403.636719 864.269531 C 402.777344 862.855469 401.855469 861.476562 400.847656 860.140625 C 397.304688 855.453125 393.203125 851.640625 388.691406 848.414062 C 393.214844 845.183594 397.320312 841.367188 400.847656 836.671875 C 401.851562 835.335938 402.769531 833.949219 403.621094 832.539062 C 404.480469 833.953125 405.402344 835.335938 406.410156 836.671875 C 409.953125 841.359375 414.054688 845.167969 418.566406 848.398438 C 414.042969 851.628906 409.9375 855.441406 406.410156 860.140625 Z M 442.859375 838.414062 C 444.511719 839.097656 441.039062 837.605469 440.722656 837.460938 C 439.5625 836.925781 438.410156 836.363281 437.273438 835.777344 C 435.117188 834.664062 433.011719 833.453125 431 832.101562 C 430.683594 831.886719 428.53125 830.226562 429.058594 830.695312 C 428.359375 830.109375 427.667969 829.515625 427.003906 828.886719 C 426.171875 828.101562 425.410156 827.261719 424.617188 826.4375 C 424.257812 826.039062 423.910156 825.636719 423.570312 825.226562 C 422.320312 823.496094 421.195312 821.683594 420.203125 819.792969 C 420.070312 819.539062 419.042969 817.355469 419.007812 817.367188 C 418.566406 816.277344 418.164062 815.164062 417.792969 814.050781 C 415.890625 808.351562 414.675781 802.257812 413.988281 796.410156 C 412.429688 783.117188 394.828125 783.089844 393.269531 796.410156 C 392.582031 802.257812 391.367188 808.351562 389.464844 814.050781 C 389.09375 815.164062 388.691406 816.277344 388.25 817.367188 C 388.214844 817.351562 387.1875 819.539062 387.054688 819.792969 C 386.0625 821.683594 384.9375 823.496094 383.6875 825.226562 C 383.347656 825.636719 383 826.039062 382.640625 826.4375 C 381.847656 827.261719 381.085938 828.101562 380.253906 828.886719 C 379.589844 829.515625 378.898438 830.109375 378.199219 830.695312 C 378.722656 830.230469 376.574219 831.886719 376.257812 832.101562 C 374.246094 833.453125 372.140625 834.664062 369.984375 835.777344 C 368.847656 836.363281 367.695312 836.925781 366.535156 837.460938 C 366.394531 837.523438 365.621094 837.859375 364.960938 838.148438 C 361.339844 839.089844 358.09375 842.257812 357.160156 845.652344 C 357.039062 846.097656 356.957031 846.527344 356.890625 846.960938 C 356.882812 847.019531 356.878906 847.078125 356.871094 847.136719 C 356.832031 847.421875 356.800781 847.703125 356.789062 847.980469 C 356.785156 847.988281 356.789062 847.992188 356.785156 848 C 356.738281 849.046875 356.855469 850.039062 357.121094 850.972656 C 357.136719 851.035156 357.144531 851.097656 357.160156 851.160156 C 358.089844 854.53125 361.332031 857.722656 364.964844 858.664062 C 365.625 858.953125 366.394531 859.285156 366.535156 859.351562 C 367.695312 859.886719 368.847656 860.445312 369.984375 861.03125 C 372.140625 862.144531 374.246094 863.359375 376.257812 864.710938 C 376.574219 864.921875 378.726562 866.582031 378.199219 866.113281 C 378.898438 866.699219 379.589844 867.296875 380.253906 867.921875 C 381.085938 868.710938 381.847656 869.550781 382.640625 870.371094 C 383 870.769531 383.347656 871.175781 383.6875 871.585938 C 384.9375 873.3125 386.0625 875.128906 387.054688 877.019531 C 387.1875 877.269531 388.214844 879.457031 388.25 879.441406 C 388.691406 880.535156 389.09375 881.644531 389.464844 882.757812 C 391.367188 888.457031 392.582031 894.554688 393.269531 900.398438 C 394.824219 913.695312 412.429688 913.722656 413.988281 900.398438 C 414.675781 894.554688 415.890625 888.457031 417.792969 882.757812 C 418.164062 881.644531 418.566406 880.535156 419.007812 879.441406 C 419.042969 879.457031 420.070312 877.269531 420.203125 877.019531 C 421.195312 875.128906 422.320312 873.3125 423.570312 871.585938 C 423.910156 871.175781 424.257812 870.769531 424.617188 870.371094 C 425.410156 869.550781 426.171875 868.710938 427.003906 867.921875 C 427.667969 867.296875 428.359375 866.699219 429.0625 866.113281 C 428.53125 866.585938 430.683594 864.921875 431 864.710938 C 433.011719 863.359375 435.117188 862.144531 437.273438 861.03125 C 438.410156 860.445312 439.5625 859.886719 440.722656 859.351562 C 441.039062 859.203125 444.511719 857.710938 442.859375 858.394531 C 452.625 854.355469 452.640625 842.460938 442.859375 838.414062"/></g></svg>