<?xml version="1.0" encoding="UTF-8"?><svg xmlns="http://www.w3.org/2000/svg" xmlns:xlink="http://www.w3.org/1999/xlink" height="530.4" preserveAspectRatio="xMidYMid meet" version="1.0" viewBox="-24.8 -26.7 528.9 530.4" width="528.9" zoomAndPan="magnify"><g id="change1_2"><path d="M413.8,400.9c4.8,3.4,9.5,6.8,14.3,10.2c1.1,0.8,3,0.2,3.6-0.9c0.7-1.3,0.3-2.7-0.9-3.6 c-4.8-3.4-9.5-6.8-14.3-10.2c-1.1-0.8-3-0.2-3.6,0.9C412.1,398.7,412.6,400.1,413.8,400.9L413.8,400.9z" fill="#fff"/></g><g id="change1_3"><path d="M394.6,418.4c5.6,6.8,12.6,12.5,20.5,16.6c1.3,0.6,2.8,0.3,3.6-0.9c0.7-1.2,0.3-2.9-0.9-3.6 c-7.5-3.9-14.1-9.2-19.4-15.7c-0.9-1.1-2.8-0.9-3.7,0C393.5,415.8,393.7,417.3,394.6,418.4L394.6,418.4z" fill="#fff"/></g><g id="change1_4"><path d="M386.9,427.7c1.9-1.1,1.8-3.7,0-4.8c-1.6-1-3.9-0.2-4.3,1.8c-0.4,1.9,0.8,3,2,4.1c0.9,0.8,1.9,1.7,2.8,2.5 c3.7,3.3,7.4,6.6,11,9.9c1,0.9,2.7,1.1,3.7,0c0.9-1,1.1-2.7,0-3.7c-2.5-2.3-5.1-4.5-7.6-6.8c-1.2-1.1-2.5-2.2-3.7-3.3 c-0.6-0.6-1.3-1.1-1.9-1.7c-0.3-0.3-0.7-0.6-1-0.9c-0.1-0.1-0.3-0.3-0.4-0.4c-0.1-0.1-0.1-0.1-0.2-0.2c-0.2-0.2-0.1-0.1,0.3,0.5 c0,0.5,0,0.9,0,1.4c0-0.1,0-0.1,0.1-0.2c-0.2,0.4-0.4,0.8-0.7,1.2c0,0,0-0.1,0.1-0.1c-0.4,0.2-0.8,0.4-1.2,0.7 c-0.2,0-0.3,0.1-0.5,0.1c-0.4-0.1-0.9-0.2-1.3-0.4c0.2,0.1,0.1,0-0.3-0.2c-0.2-0.4-0.4-0.8-0.7-1.2c0,0,0,0.1,0,0.1 c0-0.5,0-0.9,0-1.4c0,0,0,0,0,0.1c0.4-0.5,0.8-1,1.2-1.6c0,0-0.1,0-0.1,0c-1.2,0.7-1.7,2.4-0.9,3.6 C384.1,428,385.7,428.4,386.9,427.7L386.9,427.7z" fill="#fff"/></g><g id="change1_5"><path d="M374.5,434.6c6.1,5.6,12.2,11.3,18.3,16.9c1,1,2.7,1,3.7,0c1-1,1-2.7,0-3.7c-6.1-5.6-12.2-11.3-18.3-16.9 c-1-1-2.7-1-3.7,0C373.5,431.9,373.4,433.6,374.5,434.6L374.5,434.6z" fill="#fff"/></g><g id="change1_6"><path d="M358.3,442.5c-0.5-1.6-2.1-2.5-3.7-2c-1.8,0.6-2.7,2.8-1.7,4.4c0.5,0.9,1.4,1.6,2.1,2.3 c0.8,0.7,1.6,1.5,2.4,2.2c3.1,2.9,6.3,5.9,9.4,8.8c1,0.9,2.7,1.1,3.7,0c0.9-1,1.1-2.7,0-3.7c-2.3-2.1-4.5-4.2-6.8-6.4 c-1.1-1-2.2-2.1-3.4-3.1c-0.6-0.5-1.1-1-1.7-1.6c-0.3-0.2-0.5-0.5-0.8-0.7c-0.1-0.1-0.3-0.3-0.5-0.4c-0.1-0.1-0.1-0.1,0,0.1 c0.3,0.4,0.4,0.9,0.3,1.5c-0.2,0.4-0.4,0.8-0.7,1.2c-0.6,0.5-1.2,0.6-2,0.5c-0.4-0.2-0.8-0.4-1.2-0.7c0,0,0,0,0.1,0.1 c-0.2-0.4-0.4-0.8-0.7-1.2c0,0,0,0.1,0,0.1c0.4,1.3,1.8,2.3,3.2,1.8C357.8,445.2,358.8,443.8,358.3,442.5L358.3,442.5z" fill="#fff"/></g><g id="change2_1"><path d="M459.6,148.6c8.3,44.9,15.8,91,7.7,135.9c-5.8,31.9-19.4,62.3-38.6,88.5c-31.6,43.3-78.4,75.3-130.3,89.1 c-51.9,13.7-117.4,6.8-166.3-15.2c-0.7,7.3-9.8,4.2-3.5,8c35.7,21.8,103.8,37.8,145.6,38.3c19.3,0.2,38.9-0.5,57.2-6.6 c9.6-3.2,18.6-7.8,27.6-12.5c11.5-6,23-12.1,33.7-19.4c34-23.1,59.3-57.3,77.9-94c10.4-20.5,19-42.3,22.3-65.1 c4.1-28.7-0.3-57.8-5.1-86.3c-3.9-23.1-9.1-48.2-27.3-62.9" fill="#dfb461"/></g><g id="change3_1"><path d="M494.6,244.5c-0.1-2.3-0.2-3.9-0.2-5.2c0-0.8,0-1.6,0-2.3c0-1.8,0-3.7-0.4-7.2c0-0.1,0-0.2,0-0.3 c-0.6-3.7-1.2-5.5-1.8-7.3c-0.6-1.8-1.1-3.6-2-7.2c-1.3-6-1.6-7-2.8-11.2c-0.3-0.9-0.5-2-0.9-3.3c-1-3.8-1-5.7-1.1-7.8 c-0.1-1.8-0.3-3.7-1.3-7.1c-1.1-3.6-2.2-5.2-3.1-6.9c-1-1.6-1.8-3.3-3.2-6.8c-3-6.8-1.3-7.6-4.6-14.4c-3.3-6.8-4.8-6-8.4-12.5 c-1.7-3.3-2.6-5-3.3-6.8c-0.7-1.7-1.4-3.5-3.4-6.7c-2.1-3.1-3.1-4.7-4.1-6.3c-1-1.6-2-3.2-4.3-6.1c-2.3-3-3.4-4.5-4.6-6 c-1.2-1.4-2.5-2.8-4.9-5.7c-2.4-2.9-3.8-4.2-5.1-5.5c-1.4-1.3-2.7-2.6-5.2-5.4c-2.6-2.7-4-4-5.3-5.3c-1.3-1.3-2.6-2.7-5.4-5.2 c-5.6-5-5.6-5-11.4-9.7c-2.9-2.4-4.5-3.3-6.2-4.2c-1.7-0.9-3.3-1.8-6.3-4c-3-2.2-4.5-3.4-5.8-4.7c-1.4-1.2-2.7-2.7-6-4.6 c-6.4-3.8-6-4.5-12.7-8.1c-6.6-3.6-7.1-2.6-13.8-5.9c-3.4-1.7-5.2-2.2-6.9-2.9c-1.8-0.7-3.5-1.3-7-2.7c-3.5-1.3-5.4-1.7-7.2-2.1 c-1.8-0.4-3.6-0.9-7.2-1.9c-7.1-2.1-7-2.5-14.3-4.2c-7.2-1.8-7.1-2.5-14.4-3.9c-2-0.4-3.5,1.9-4,4.9c0,0.1,0,0.1,0,0.2 c0,0,0.2,5,2.2,5.4c7,1.4,6.8,2.5,13.7,4.2c6.9,1.7,6.7,2.5,13.5,4.6c3.4,1,5.2,1.1,7.1,1.1c1.9,0,3.8,0,7.2,1.2 c3.3,1.4,4.9,2.1,6.6,2.9c1.6,0.8,3.3,1.4,6.5,3c6.5,3.1,5.6,4.9,11.8,8.3c6.3,3.3,6.6,2.8,12.7,6.4c3.1,1.8,4.7,2.6,6.4,3.3 c1.7,0.7,3.4,1.3,6.3,3.4c2.9,2.1,4.3,3.2,5.7,4.3c1.4,1.1,2.9,2.2,5.6,4.5c5.6,4.5,5.1,5,10.4,9.8c2.7,2.4,3.9,3.6,5.2,4.9 c1.3,1.2,2.6,2.5,5.1,5c2.4,2.6,3.5,4.1,4.6,5.5c1.1,1.4,2.2,2.8,4.4,5.6c2.3,2.7,3.3,4.2,4.3,5.7c1,1.5,1.9,3,4.1,5.9 c2.2,2.8,3.2,4.2,4.3,5.7c1.1,1.4,2.1,2.9,4.1,5.8c1.9,3,2.9,4.5,3.8,6c0.9,1.5,2,2.9,3.7,6.1c3.4,6.3,3.4,6.3,6.5,12.7 c3.2,6.4,2.7,6.6,5.5,13.1c0.6,1.4,1.1,2.5,1.5,3.4c-0.1-0.1-0.2-0.2-0.3-0.3c-1.8-1.4-2.1-0.9-3.9-2.3c-1.8-1.4-1.7-1.5-3.4-2.9 c-1.8-1.4-1.4-1.8-3.2-3.2c-0.5-0.4-1.8,0.8-3.1,2.4c0,0-1.8,2.8-1.3,3.2c1.8,1.4,1.2,2.1,3,3.5c1.8,1.4,1.4,1.8,3.2,3.2 c1.8,1.4,2.8,0.1,4.5,1.5c1.8,1.4,1.7,1.5,3.4,2.9c1.8,1.4,0.9,2.5,2.6,3.9c1.8,1.4,2.1,1,3.8,2.4c0.4,0.3,0.7,0.5,1,0.7 c0.6,2.4,0.9,4,2,8.4c1.9,6.9,1.9,6.9,3.4,13.9c0.3,1.4,0.5,2.6,0.5,3.6c-0.5-0.2-1-0.5-1.8-1.1c-1.8-1.4-1.7-1.5-3.4-2.9 c-1.8-1.4-1.4-1.8-3.2-3.2c-0.5-0.4-1.8,0.8-3.1,2.4c0,0-1.8,2.8-1.3,3.2c1.8,1.4,1.2,2.1,3,3.5c1.8,1.4,1.4,1.8,3.2,3.2 c1.8,1.4,2.8,0.1,4.5,1.5c1.1,0.9,1.5,1.3,2.1,1.8c0.1,0.7,0.2,1.5,0.3,2.5c0.4,3.5,0.8,5.3,1.2,7c0.4,1.7,0.8,3.5,1,7.1 c0.4,7.1-0.2,7.1-0.2,14.2c0,0.4,0,0.7,0,1c-0.5-0.2-1-0.5-1.7-1c-1.8-1.4-1.9-1.3-3.6-2.7c-1.8-1.4-2.1-0.9-3.9-2.3 c-1.8-1.4-1.7-1.5-3.4-2.9c-1.8-1.4-1.4-1.8-3.2-3.2c-0.5-0.4-1.8,0.8-3.1,2.4c0,0-1.8,2.8-1.3,3.2c1.8,1.4,1.2,2.1,3,3.5 c1.8,1.4,1.4,1.8,3.2,3.2c1.8,1.4,2.8,0.1,4.5,1.5c1.8,1.4,1.7,1.5,3.4,2.9c1.8,1.4,0.9,2.5,2.6,3.9c1.7,1.3,2.1,1,3.6,2.2 c0,0.8,0,1.6-0.1,2.6c-0.4,7.1-0.5,7.1-1.1,14.2c-0.5,3.5-0.6,5.3-0.8,7.1c-0.2,1.6-0.2,3.3-0.8,6.3c-0.9-0.7-1.3-0.8-2.7-1.9 c-1.8-1.4-2.1-0.9-3.9-2.3c-1.8-1.4-1.7-1.5-3.4-2.9c-1.8-1.4-1.4-1.8-3.2-3.2c-0.5-0.4-1.8,0.8-3.1,2.4c0,0-1.8,2.8-1.3,3.2 c1.8,1.4,1.2,2.1,3,3.5c1.8,1.4,1.4,1.8,3.2,3.2c1.8,1.4,2.8,0.1,4.5,1.5c1.8,1.4,1.7,1.5,3.4,2.9c1.6,1.3,1,2.3,2.2,3.5 c-0.1,1.3-0.4,2.9-1,5.2c-1.7,7-4,6.3-6,13.1c-1,3.4-1.5,5.1-1.9,6.8c-0.4,1.7-0.9,3.4-2,6.8c-0.2-0.2-0.4-0.3-0.6-0.5 c-1.8-1.4-2.1-0.9-3.9-2.3c-1.8-1.4-1.9-1.3-3.6-2.7c-1.8-1.4-2.1-0.9-3.9-2.3c-1.8-1.4-1.7-1.5-3.4-2.9c-1.8-1.4-1.4-1.8-3.2-3.2 c-0.5-0.4-1.8,0.8-3.1,2.4c0,0-1.8,2.8-1.3,3.2c1.8,1.4,1.2,2.1,3,3.5c1.8,1.4,1.4,1.8,3.2,3.2c1.8,1.4,2.8,0.1,4.6,1.5 c1.8,1.4,1.7,1.5,3.4,2.9c1.8,1.4,0.9,2.5,2.6,3.9c1.4,1.1,1.9,1.1,2.8,1.7c-0.5,1.2-1.2,2.7-2.2,4.9c-3.1,6.4-1.8,7-5.3,13.3 c-3.3,6.3-2.8,6.6-6.5,12.8c-0.1,0.2-0.2,0.3-0.3,0.5c-1.7-1.4-1.5-1.7-3.2-3.1c-1.8-1.4-2.1-0.9-3.9-2.3c-1.8-1.4-1.9-1.3-3.6-2.7 c-1.8-1.4-2.1-0.9-3.9-2.3c-1.8-1.4-1.7-1.5-3.4-2.9c-1.8-1.4-1.4-1.8-3.2-3.2c-0.5-0.4-1.8,0.8-3.1,2.4c0,0-1.8,2.8-1.3,3.2 c1.8,1.4,1.2,2.1,3,3.5c1.8,1.4,1.4,1.8,3.2,3.2c1.8,1.4,2.8,0.1,4.5,1.5c1.8,1.4,1.7,1.5,3.4,2.9c1.8,1.4,0.9,2.5,2.6,3.9 c1.4,1.1,1.9,1.1,2.9,1.7c-1.1,0.9-2.3,2.1-3.9,4.2c-2.1,2.8-3,4.4-3.9,5.9c-0.9,1.6-1.8,3.1-4.1,5.8c-4.5,5.5-3.7,6.2-8.5,11.5 c-1.3,1.5-2.3,2.4-3.2,3.2c-0.3-0.4-0.6-0.8-1.3-1.3c-1.8-1.4-1.5-1.7-3.3-3.1c-1.8-1.4-2.1-0.9-3.9-2.3c-1.8-1.4-1.9-1.3-3.6-2.7 c-1.8-1.4-2.1-0.9-3.9-2.3c-1.8-1.4-1.7-1.5-3.4-2.9c-1.8-1.4-1.4-1.8-3.2-3.2c-0.5-0.4-1.8,0.8-3.1,2.4c0,0-1.8,2.8-1.3,3.2 c1.8,1.4,1.2,2.1,3,3.5c1.8,1.4,1.4,1.8,3.2,3.2c1.8,1.4,2.8,0.1,4.6,1.5c1.8,1.4,1.7,1.5,3.4,2.9c1.8,1.4,0.9,2.5,2.6,3.9 c1.8,1.4,2.1,1,3.8,2.4c0,0,0.1,0.1,0.1,0.1c-0.4,0.4-0.8,0.7-1.2,1.2c-2.6,2.4-3.9,3.7-5.1,5c-1.2,1.3-2.5,2.6-5.2,4.9 c-2.8,2.3-4.3,3.2-5.9,4.1c-1.6,0.8-3.2,1.7-6.1,3.8c-2.8,2.2-4,3.6-5.1,5.1c-0.7,0.9-1.4,1.7-2.4,2.7c-0.2-0.1-0.5-0.3-0.8-0.6 c-1.8-1.4-1.3-2-3-3.4c-1.8-1.4-1.5-1.7-3.3-3.1c-1.8-1.4-2.1-0.9-3.9-2.3c-1.8-1.4-1.9-1.3-3.6-2.7c-1.8-1.4-2.1-0.9-3.9-2.3 c-1.8-1.4-1.7-1.5-3.4-2.9c-1.8-1.4-1.4-1.8-3.2-3.2c-0.5-0.4-1.8,0.8-3.1,2.4c0,0-1.8,2.8-1.3,3.2c1.8,1.4,1.2,2.1,3,3.5 c1.8,1.4,1.4,1.8,3.2,3.2c1.8,1.4,2.8,0.1,4.6,1.5c1.8,1.4,1.7,1.5,3.4,2.9c1.8,1.4,0.9,2.5,2.6,3.9c1.8,1.4,2.1,1,3.8,2.4 c1.5,1.2,2.2,0.8,3.4,1.5c-1.5,0.9-2.5,1.6-3.5,2.2c-1.5,0.9-3,2-6.2,3.7c-6.3,3.4-7.4,1.4-13.8,4.4c-3.4,1.7-4.8,2.8-6.4,4 c-0.2-0.3-0.6-0.7-1.1-1.2c-1.8-1.4-1.5-1.7-3.3-3.1s-2.1-0.9-3.9-2.3c-1.8-1.4-1.9-1.3-3.6-2.7c-1.8-1.4-2.1-0.9-3.9-2.3 c-1.8-1.4-1.7-1.5-3.4-2.9c-1.8-1.4-1.4-1.8-3.2-3.2c-0.5-0.4-1.8,0.8-3.1,2.4c0,0-1.8,2.8-1.3,3.2c1.8,1.4,1.2,2.1,3,3.5 c1.8,1.4,1.4,1.8,3.2,3.2c1.8,1.4,2.8,0.1,4.6,1.5c1.8,1.4,1.7,1.5,3.4,2.9c1.8,1.4,0.9,2.5,2.6,3.9c1,0.8,1.6,1,2.2,1.3 c-2.1,0.9-3.4,1.5-4.7,2.1c-1.6,0.7-3.2,1.7-6.6,2.7c-6.9,2.1-7.4,0.4-14.3,2.2c-5.7,1.6-6.6,2.1-10.8,3.2c-0.4-0.6-0.6-1.1-1.6-1.9 c-1.8-1.4-1.5-1.7-3.3-3.1c-1.8-1.4-2.1-0.9-3.9-2.3c-1.8-1.4-1.9-1.3-3.6-2.7c-1.8-1.4-2.1-0.9-3.9-2.3c-1.8-1.4-1.7-1.5-3.4-2.9 c-1.8-1.4-1.4-1.8-3.2-3.2c-0.5-0.4-1.8,0.8-3.1,2.4c0,0-1.8,2.8-1.3,3.2c1.8,1.4,1.2,2.1,3,3.5c1.8,1.4,1.4,1.8,3.2,3.2 c1.8,1.4,2.8,0.1,4.5,1.5c1.8,1.4,1.7,1.5,3.4,2.9c1.8,1.4,0.9,2.5,2.6,3.9c0.2,0.2,0.4,0.3,0.6,0.4c-1.7,0.5-3.4,1.1-6.8,1.6 c-3.6,0.4-5.4,0.5-7.1,0.6c-1.8,0.1-3.6,0.2-7.1,0.4c-7.1,0.4-7.2-0.8-14.3-0.7c-3.6,0.1-5.4,0-7.1-0.1c-0.1,0-0.1-0.1-0.2-0.1 c-1.8-1.4-1.5-1.7-3.3-3.1c-1.8-1.4-2.1-0.9-3.9-2.3c-1.8-1.4-1.9-1.3-3.6-2.7c-1.8-1.4-2.1-0.9-3.9-2.3c-1.8-1.4-1.7-1.5-3.4-2.9 c-1.8-1.4-1.4-1.8-3.2-3.2c-0.5-0.4-1.8,0.8-3.1,2.4c0,0-1.8,2.8-1.3,3.2c1.8,1.4,1.2,2.1,3,3.5c1.8,1.4,1.4,1.8,3.2,3.2 c1.8,1.4,2.8,0.1,4.5,1.5c1.6,1.2,1.7,1.5,2.9,2.5c-2.7,0-4.3,0.2-9.1-0.2c-3.5-0.5-5.3-0.6-7.1-0.7c-1.8-0.1-3.6-0.1-7.1-0.9 c-0.1,0-0.3,0-0.4,0c-1.7-0.7-3.4-1.3-7-2c-0.4-0.1-0.8-0.2-1.2-0.3c-0.1,0-0.1-0.1-0.2-0.1c-1.8-1.4-1.8-1.4-3.6-2.8 c-1.8-1.4-2.2-0.8-4-2.2c-1.8-1.4-1.3-2-3-3.4c-1.8-1.4-1.5-1.7-3.3-3.1s-2.1-0.9-3.9-2.3c-1.8-1.4-1.9-1.3-3.6-2.7 c-1.8-1.4-2.1-0.9-3.9-2.3c-1.8-1.4-1.7-1.5-3.4-2.9c-1.8-1.4-1.4-1.8-3.2-3.2c-0.5-0.4-1.8,0.8-3.1,2.4c0,0-1.8,2.8-1.3,3.2 c1.8,1.4,1.2,2.1,3,3.5c1.8,1.4,1.4,1.8,3.2,3.2c1.8,1.4,2.8,0.1,4.6,1.5c1.8,1.4,1.7,1.5,3.4,2.9c1.7,1.3,0.9,2.5,2.4,3.8 c-1.8,0.1-3.7,0.1-6.9-1.1c-3.4-1.2-5.1-1.8-6.7-2.6c-1.6-0.7-3.3-1.5-6.6-2.9c-3.3-1.3-4.7-2.6-6.1-3.9c-1.4-1.3-2.8-2.5-6-4 c-3.2-1.6-4.8-2.3-6.5-3c-1.6-0.7-3.4-1.2-6.4-3.1c-6.1-3.7-7-2.3-12.9-6.3c-6-3.9-5.9-4.1-11.6-8.4c-2.9-2.1-4.1-3.5-5.4-4.7 c-1.3-1.3-2.6-2.5-5.3-4.8c-2.6-2.4-4-3.6-5.4-4.7c-1.4-1.1-2.7-2.3-5.2-4.9c-5.1-5-4.6-5.5-9.4-10.8c-2.4-2.6-3.4-4.1-4.5-5.6 c-1-1.5-2.1-2.9-4.3-5.7c-2.1-2.9-3.3-4.2-4.4-5.6c-1.1-1.4-2.3-2.7-4.3-5.7c-2-3-3-4.4-4.1-5.9c-1-1.5-1.9-3-3.8-6 c-1.9-3-2.7-4.6-3.5-6.2c-0.8-1.6-1.7-3.1-3.4-6.3c-1.6-3.2-2.3-4.8-3-6.5c-0.7-1.6-1.5-3.2-2.9-6.5c-2.8-6.5-4.3-5.9-6.8-12.7 c-2.6-6.7-1.8-7-4.1-13.7c-1.1-3.4-1.5-5.2-2-6.9c-0.5-1.7-1.1-3.4-1.8-6.9c-1.4-7-0.2-7.3-1.2-14.3c-1.2-7-1.8-6.9-2.6-14 c-0.4-3.5-0.3-5.3-0.2-7.1c0.1-1.8,0.1-3.6-0.1-7.1c0-7.1-0.6-7.1-0.4-14.2c0.3-7.1,0.1-7.1,0.8-14.2c0.6-7.1,0.3-7.1,1.3-14.2 c0.5-3.5,0.6-5.3,0.7-7.1c0.1-1.8,0.2-3.6,0.9-7.1c1.7-7,3.8-6.5,5.7-13.3c2.1-6.8,1.2-7.1,3.6-13.8c1.2-3.3,1.8-5,2.4-6.7 c0.7-1.6,1.4-3.3,2.7-6.6c1.3-3.3,1.8-5,2.3-6.8c0.5-1.7,1-3.5,2.5-6.7c1.6-3.2,2.4-4.8,3-6.5c0.7-1.7,1.3-3.4,3.2-6.5 c3.7-6.2,5.8-4.9,9.8-10.7c3.9-5.9,3.4-6.3,7.6-12.1c2.1-2.9,3.1-4.3,4-5.9c0.9-1.5,1.8-3.2,4.1-5.9c2.4-2.7,3.8-3.8,5.2-5 c1.4-1.2,2.8-2.3,5.3-4.8c5-5.1,4.7-5.4,10-10.2c2.6-2.4,4.3-3.3,5.8-4.2c1.6-0.9,3.1-1.8,5.9-4.1c2.8-2.1,3.9-3.6,5-5.2 c1.1-1.5,2.2-3.1,5.2-5.1c3-2,4.4-3.1,5.9-4.1c1.5-0.9,3.1-1.9,6.1-3.8c3-1.9,4.9-2.2,6.8-2.5c1.9-0.3,3.7-0.6,6.8-2.3 c3.2-1.6,4.6-2.7,6-3.9c1.4-1.1,2.8-2.4,6.1-3.7c6.6-2.8,6.3-3.5,13-6c6.7-2.6,7.4-0.4,14.2-2.6c3.4-1,5.1-1.5,6.8-2.2 c1.7-0.6,3.4-1.3,6.8-2c7-1.4,6.7-2.6,13.8-3.7c7.1-1.2,7.2-0.6,14.3-1.4c3.6-0.4,5.4-0.1,7.2,0c1.8,0.2,3.6,0.4,7.1,0.2 c7.1,0,7.1,0,14.2,0.2c7.1,0.3,7.2-0.7,14.3,0c7.1,0.6,7.2,0.2,14.3,1.1c1.7,0.2,3.7-3.7,4.1-4.5c0-0.1,0.1-0.2,0.1-0.2 c0.5-3-0.6-5.1-2.7-5.4c-7.4-1-7.4-0.8-14.9-1.4c-7.4-0.7-7.4-0.7-14.9-1c-3.7-0.2-5.6-0.1-7.5-0.2c-1.9-0.1-3.7-0.1-7.5-0.1 c-3.7,0.2-5.6,0-7.5-0.2c-1.9-0.2-3.8-0.5-7.5,0c-7.5,0.8-7.5,0.6-14.9,1.8c-7.4,1.1-7.3,1.9-14.6,3.4c-3.7,0.8-5.5,1.2-7.3,1.7 c-1.8,0.4-3.7,0.7-7.3,1.8c-7.1,2.3-7,2.9-14,5.5c-7,2.6-6.6,3.6-13.5,6.5c-3.4,1.4-5.3,1.9-7.2,2.2c-1.9,0.4-3.8,0.7-7.2,2.4 c-3.3,1.8-4.7,3.2-6,4.6c-1.4,1.4-2.7,2.8-5.9,4.7c-3.2,1.9-4.8,2.8-6.5,3.7c-1.6,1-3.2,1.9-6.3,4c-3.1,2.1-4.9,2.7-6.8,3.4 c-1.9,0.6-3.7,1.3-6.7,3.6c-2.9,2.4-4.2,3.8-5.5,5.2c-1.3,1.4-2.6,2.8-5.3,5.3C92.8,88.5,93,88.7,87.7,94c-2.7,2.6-3.9,4-5.2,5.4 c-1.2,1.4-2.5,2.8-5,5.6c-2.5,2.8-3.7,4.2-5,5.6c-1.2,1.4-2.6,2.7-4.9,5.7c-4.4,6-4.5,6-8.7,12.2c-4.2,6.2-3.2,6.9-7.1,13.2 c-2,3.2-3,4.8-4.2,6.2c-1.1,1.5-2.3,3-4,6.4c-1.6,3.4-2.5,5.1-3.3,6.7c-0.9,1.7-1.8,3.3-3.2,6.8c-1.4,3.5-2,5.3-2.6,7.1 c-0.5,1.8-1,3.6-2.2,7.2c-1.3,3.5-2,5.3-2.5,7.1c-0.6,1.8-1.2,3.5-2.3,7.1c-2,7.2-2.2,7.2-3.9,14.5c-0.7,3.7-0.7,5.6-0.7,7.5 c0,1.9,0,3.8-0.5,7.5c-1,7.4-1.8,7.3-2.5,14.8c-0.7,7.5,0.2,7.5-0.2,15c-0.2,3.7,0,5.6,0.1,7.5c0.1,1.9,0.2,3.7,0.2,7.5 c0.2,3.7,0.1,5.6,0,7.5c-0.1,1.9-0.3,3.8,0.2,7.5c0.8,7.4,0,7.5,1.2,15c1.1,7.4,2.6,7.1,4.1,14.4c0.8,3.7,1.4,5.4,2,7.2 c0.5,1.8,1.1,3.6,2.1,7.2c2.3,7.1,0.2,7.8,2.9,14.8c2.6,7.1,3.8,6.6,6.7,13.5c1.4,3.5,2,5.3,2.4,7.2c0.5,1.9,0.9,3.8,2.6,7.1 c1.8,3.3,3.1,4.8,4.3,6.2c1.3,1.5,2.5,2.9,4.5,6.1c2,3.2,2.7,5,3.4,6.7c0.8,1.7,1.6,3.4,3.7,6.6c2.1,3.1,3.2,4.6,4.3,6.2 c1.1,1.5,2.2,3.1,4.5,6.1c2.4,2.9,3.6,4.3,4.9,5.8c1.2,1.4,2.4,2.9,5,5.6c5.1,5.6,5.4,5.3,10.7,10.5c2.6,2.7,4,4,5.4,5.2 c1.4,1.3,2.8,2.5,5.5,5.1c2.8,2.5,4.3,3.6,5.8,4.8c1.5,1.1,2.9,2.4,5.9,4.6c6.1,4.4,6.6,3.7,12.8,7.8c6.2,4.2,5.6,5.1,12.1,9 c3.2,2,4.8,2.9,6.4,3.9c1.6,1,3.2,2.1,6.5,3.8c3.4,1.6,5.2,2.2,7,2.8c1.8,0.6,3.6,1.2,7.1,2.6c3.5,1.4,5.2,2.1,7,2.8 c1.8,0.6,3.6,1.2,7.1,2.4c3.5,1.3,5.4,1.7,7.2,2c1.9,0.3,3.7,0.7,7.3,1.7c7.2,1.9,7.2,2.1,14.4,3.9c1.2,0.2,2.3,0.6,3.5,0.9 c2.7,0.9,5.5,2,8.3,2.3c2,0.2,4-0.1,5.9-0.2c1.6-0.1,3.3-0.2,4.9,0c7.4,0.7,7.4,0.9,14.8,1.4c5.7,0.2,7,0.6,10.7,0.7 c1.1,0,2.5,0,4.2,0c4.1,0,5.9,0.3,8,0.6c1.7,0.2,3.6,0.3,7,0.1c3.8-0.2,5.6-0.4,7.5-0.6c1.9-0.2,3.7-0.3,7.5-0.7 c3.7-0.6,5.5-1,7.4-1.4c1.8-0.5,3.7-0.8,7.3-1.6c1.4-0.3,2.6-0.5,3.6-0.7c3.7-0.7,5-0.8,9.5-1.9c0.5-0.1,1.1-0.3,1.7-0.4 c7.3-1.9,7-2.9,14.1-5.1c3.6-1.1,5.2-2.1,6.9-3c1.7-0.9,3.3-1.7,6.8-3.1c1.8-0.8,3.2-1.2,4.4-1.5c3-0.7,4.8-0.4,8.8-2.2 c0.4-0.2,0.8-0.3,1.3-0.6c6.8-3.2,5.7-5.4,12.2-8.9c3.3-1.7,4.9-2.7,6.5-3.6c1.5-0.9,3.2-1.7,6-3.5c0.2-0.1,0.3-0.2,0.4-0.3 c3.1-2.1,5-2.6,6.8-3.2c0.1,0,0.2-0.1,0.3-0.1c1.8-0.5,3.7-1.2,6.5-3.3c3-2.3,4.4-3.6,5.7-5c1.3-1.4,2.5-2.8,5.4-5.2 c2.9-2.4,4.2-3.7,5.6-5c1.3-1.3,2.7-2.6,5.4-5.2c1.1-1.1,2-2,2.7-2.8c1-1,1.8-1.8,2.5-2.6c0.8-0.8,1.6-1.6,2.7-2.8 c0.7-0.7,1.5-1.6,2.4-2.7c5-5.5,5.4-5.2,10.2-11c2.4-2.9,3.5-4.4,4.6-5.9c1.1-1.5,2.2-3,4.4-6c1.6-2.2,2.4-3.8,3.1-5.1 c0.2-0.5,0.5-0.9,0.7-1.4c0.7-1.4,1.4-2.8,2.8-5.1c0.3-0.5,0.6-0.9,0.9-1.5c3.8-6.4,5-5.7,8.5-12.4c3.6-6.6,3.7-6.5,6.9-13.3 c0.5-1,0.9-1.9,1.2-2.7c0.7-1.8,1.1-3.1,1.5-4.3c0.3-1,0.6-1.9,1-3.1c0.4-1.1,0.9-2.3,1.5-3.9c1.3-3.5,2-5.3,2.7-7 c0.7-1.7,1.5-3.5,2.5-7.1c2.1-7.2,2.5-7.1,4.3-14.4c0.2-0.6,0.3-1.2,0.4-1.7c0.8-3.9,0.5-5.5,0.7-8.3c0.1-1.3,0.2-2.8,0.6-4.9 c0.8-3.6,1.1-5.5,1.5-7.3c0.4-1.8,0.9-3.6,1.4-7.4c0.5-5.5,0.3-7,0.4-10.4c0-1.2,0.1-2.6,0.2-4.5c0.1-1.9,0.1-3.4,0.1-4.6 c0.1-3.4,0-4.8-0.1-10.3C494.3,252,495.1,252,494.6,244.5z" fill="#040000"/></g><g id="change4_1"><path d="M141.8,26.9c116.9-53.6,255.1-2.4,308.7,114.5s2.4,255.1-114.5,308.7S80.9,452.5,27.3,335.6 C-24.8,222.1,22.2,88.4,132.1,31.7" fill="#eac836"/></g><g id="change1_7"><path d="M131.8,52.8c-5.7,3.4-5.6,3.5-11.1,7.1c-5.4,3.8-5.6,3.6-10.9,7.5c-5.2,4.1-5.4,3.9-10.5,8.1 c-4.9,4.4-5.5,3.8-10.4,8.2c-4.7,4.7-4.7,4.7-9.4,9.4c-4.4,5-4.1,5.3-8.4,10.3c-4.1,5.2-4.2,5.1-8.2,10.4c-2,2.6-2.7,4.2-3.5,5.6 c-0.8,1.5-1.6,2.9-3.4,5.7c-1.8,2.8-2.5,4.3-3.1,5.8c-0.7,1.5-1.3,3.1-2.9,5.9c-1.6,2.9-2.7,4.2-3.7,5.5c-1,1.3-2.1,2.7-3.5,5.7 c-2.9,6-1.3,6.7-3.7,12.8c-1.2,3.1-1.9,4.6-2.5,6.1c-0.6,1.6-1.1,3.1-2.1,6.3c-2,6.3-3.7,5.8-5.2,12.3c-1.5,6.5-1,6.6-2.1,13.2 c-0.6,3.3-0.8,4.9-1,6.6c-0.2,1.6-0.5,3.3-0.8,6.6c-0.6,6.6-0.7,6.6-1.2,13.2c-0.2,6.6-0.6,6.6-0.8,13.2c0.2,6.6,0.1,6.6,0.5,13.3 c0.6,6.6,1.1,6.6,2,13.1c0.8,6.6,0,6.7,1.2,13.2c0.5,3.3,0.9,4.9,1.2,6.5c0.3,1.6,0.7,3.3,1.4,6.5c1.8,6.4,2.2,6.3,4.1,12.6 c2.2,6.3,1.8,6.4,4.3,12.6c2.4,6.2,2.3,6.2,5,12.3c2.8,6.1,3.9,5.5,6.8,11.4c3.3,5.7,2.8,6,6.3,11.7c3.6,5.6,3.9,5.4,7.8,10.7 c3.8,5.4,4.1,5.2,8.1,10.4c4.2,5.1,3.8,5.4,8.2,10.4c4.6,4.7,4.1,5.3,8.9,9.8c4.8,4.6,5.4,3.9,10.4,8.2c5,4.3,5.3,4,10.4,8.1 c5.4,3.8,4.5,5.1,10.1,8.7c5.6,3.6,6,3,11.7,6.2c5.7,3.3,5.3,4.2,11.2,7.3c6,2.9,6.5,1.8,12.6,4.5c3.1,1.2,4.5,2,6,2.8 c1.5,0.8,2.9,1.6,6.1,2.7c3.1,1.1,4.7,1.6,6.3,2.2c1.6,0.5,3.2,0.9,6.4,1.9c3.2,0.9,4.8,1.3,6.5,1.6c1.6,0.4,3.2,0.7,6.5,1.4 c6.5,1.3,6.6,0.9,13.1,2c3.3,0.4,4.9,0.6,6.6,0.9c1.6,0.2,3.3,0.5,6.6,0.7c6.6,0.5,6.6,0.5,13.3,0.6c6.6,0.2,6.6-0.7,13.2-0.8 c6.6-0.2,6.7,0.4,13.3,0c6.6-0.8,6.7-0.3,13.2-1.3c6.5-1.2,6.5-1.7,12.9-3.2c6.5-1.5,6.4-1.7,12.8-3.5c3.2-0.9,4.7-1.6,6.2-2.3 c1.5-0.7,3-1.3,6.2-2.4c6.2-2.4,6.3-2.1,12.3-4.8c3.3-1.5,7-2.1,10.1-3.9c2.9-1.7,5-3.8,7.9-5.5c5.7-3.3,5.9-3.1,11.4-6.7 c5.6-3.5,5.7-3.4,11.1-7.2c5.3-3.9,5.8-3.3,11-7.4c5-4.4,5.2-4.1,10-8.7c4.8-4.6,4.6-4.8,9.1-9.6c2.3-2.4,3.5-3.6,4.6-4.8 c1.1-1.2,2.3-2.4,4.4-4.9c4.2-5.2,3.7-5.5,7.7-10.8c3.8-5.4,3.4-5.7,6.9-11.3c3.6-5.5,4.7-4.9,8.1-10.6c3.2-5.8,1.7-6.6,4.7-12.5 c2.7-6,3.1-5.8,5.5-12c2.4-6.1,4-5.5,6.1-11.9c2.2-6.3,1.2-6.6,3.1-12.9c1.7-6.4,1.4-6.5,2.8-12.9c0.6-3.3,0.8-4.9,1.1-6.5 c0.3-1.6,0.6-3.3,1-6.6c0.8-6.6,1.2-6.5,1.7-13.1c0.5-6.6,0.3-6.6,0.5-13.2c0.1-6.6-0.8-6.6-0.9-13.2c-0.5-6.6,0.4-6.7-0.2-13.3 c-0.4-3.3-0.6-4.9-0.7-6.6c-0.1-1.7-0.3-3.3-1-6.6c-0.6-3.3-1-4.9-1.4-6.5c-0.5-1.6-1-3.2-1.7-6.4c-0.7-3.2-1.1-4.8-1.5-6.5 c-0.4-1.6-0.8-3.2-1.7-6.4c-2-6.3-1.8-6.4-4.1-12.6c-2.5-6.2-3.2-5.9-6-11.9c-2.7-6-2.3-6.2-5.3-12.1c-3-5.9-3.7-5.5-6.9-11.3 c-3.6-5.6-3.6-5.5-7.4-11c-3.8-5.4-3.3-5.8-7.4-11c-4-5.2-3.8-5.5-8.1-10.5c-4.5-4.9-5.2-4.3-9.8-9c-4.8-4.5-4.8-4.6-9.8-8.8 c-5-4.3-4.1-5.4-9.3-9.5c-5.2-4.1-5.8-3.3-11.2-7.1c-5.6-3.5-4.9-4.7-10.6-8c-5.8-3.3-6.3-2.4-12.2-5.4c-5.9-3.1-5.6-3.7-11.6-6.5 c-6.1-2.6-6.1-2.6-12.3-5c-3.2-1-4.7-1.6-6.3-2.1c-1.6-0.5-3.2-1-6.4-1.9c-6.4-1.8-6.5-1.5-12.9-3c-6.5-1.5-6.5-1.4-13-2.6 c-6.6-1-6.6-0.8-13.2-1.6c-6.6-0.4-6.7,0.1-13.3-0.1c-6.6-0.1-6.6-1.1-13.2-1c-6.6,0.2-6.7-0.2-13.3,0.3c-3.3,0.3-4.9,0.6-6.6,1 c-1.6,0.3-3.3,0.7-6.5,1.2c-6.5,1-6.5,1.2-13,2.5c-6.5,1.4-6.3,2-12.7,3.7c-6.3,1.8-6.4,1.7-12.7,3.7c-6.2,2.2-6.4,1.7-12.6,4.2 c-1.7,0.7-1.9,2.8-1,4.7c0,0,2.3,2.8,3.9,2.1c5.9-2.4,6.3-1.6,12.2-3.7c6-2,6.2-1.5,12.3-3.3c6.1-1.7,5.7-3.3,12-4.7 c6.3-1.3,6.3-1.1,12.6-2.1c3.2-0.5,4.8-0.3,6.4-0.1c1.6,0.2,3.2,0.4,6.4,0.1c6.3-0.5,6.3-1,12.7-1.3c6.4-0.1,6.4-1,12.8-0.9 c6.4,0.2,6.4,0.4,12.8,0.9c6.4,0.8,6.3,1.1,12.6,2.1c6.3,1.2,6.3,0.8,12.6,2.3c6.2,1.4,6.1,1.9,12.3,3.6c3.1,0.8,4.6,1.4,6,2.1 c1.5,0.6,3,1.2,6,2.2c5.9,2.3,6,2,11.9,4.5c5.8,2.7,5.9,2.4,11.6,5.3c5.7,2.9,5.6,3,11.1,6.2c5.5,3.2,5.3,3.6,10.7,7 c5.1,3.7,5.9,2.7,11,6.6c5,3.9,4.8,4.2,9.6,8.4c2.4,2.1,3.6,3.1,4.8,4.2c1.2,1.1,2.3,2.2,4.7,4.4c4.5,4.6,3.7,5.3,8,10 c4.1,4.8,4.7,4.4,8.6,9.4c4,5,3.5,5.4,7.2,10.5c3.6,5.2,3.7,5.2,7.2,10.5c3.1,5.6,3.3,5.4,6.2,11.1c2.9,5.7,3.2,5.5,5.8,11.3 c2.7,5.8,3.1,5.6,5.5,11.6c2.1,6,0.6,6.6,2.6,12.6c0.9,3.1,1.4,4.5,2,6c0.6,1.5,1.1,3,1.8,6.1c0.7,3.1,1.1,4.7,1.4,6.2 c0.3,1.6,0.6,3.1,1.1,6.3c0.6,3.1,1,4.7,1.4,6.2c0.4,1.6,0.8,3.1,1.2,6.3c0.6,6.4,1.1,6.3,1.6,12.7c0.1,6.4-1.5,6.4-1.6,12.8 c-0.2,6.4,0.5,6.4,0,12.7c-0.4,6.4,0.3,6.4-0.5,12.8c-0.4,3.2-0.9,4.7-1.3,6.3c-0.4,1.5-0.9,3.1-1.5,6.2c-1.4,6.2-1,6.3-2.6,12.5 c-1.8,6.1-2.4,5.9-4.5,12c-2,6-0.6,6.6-2.9,12.5c-2.4,6-2.5,5.9-5.1,11.8c-3,5.7-4.3,5-7.4,10.5c-3.2,5.5-2.1,6.2-5.6,11.5 c-3.4,5.4-3.2,5.6-6.8,10.8c-3.8,5.1-5,4.2-9,9.2c-4.2,4.8-3.7,5.2-8.2,9.8c-4.4,4.6-3.9,5.1-8.5,9.5c-4.6,4.4-5,4-9.8,8.2 c-5.1,3.9-5.5,3.4-10.6,7.1c-5.2,3.7-5.2,3.6-10.6,7c-5.3,3.5-5.1,3.8-10.6,7.1c-5.6,3-5.4,3.3-11.2,6.2c-0.1,0.1-0.2,0.1-0.3,0.2 c-1.6,0.5-3.1,0.9-6.1,2.2c-5.9,2.5-6.1,1.9-12,4.2c-3,1-4.4,1.9-5.8,2.9c-1.4,0.9-2.8,1.9-5.9,2.7c-6.2,1.8-6.2,1.6-12.5,3 c-6.2,1.5-6.6-0.2-12.8,1c-6.3,1-6.2,1.4-12.6,2.2c-6.4,0.4-6.3,1.7-12.7,1.9c-6.4,0.1-6.4,0.3-12.8,0c-6.4-0.1-6.4-0.6-12.8-1.1 c-3.2-0.2-4.8-0.4-6.4-0.6c-1.6-0.2-3.2-0.4-6.4-0.7c-6.3-1-6.2-1.5-12.5-2.7c-3.1-0.7-4.6-1.2-6.2-1.6c-1.5-0.4-3.1-0.9-6.1-1.8 c-3.1-0.9-4.6-1.3-6.2-1.6c-1.5-0.5-3.1-0.9-6.1-1.9c-3-1-4.5-1.5-6-2.1c-1.5-0.6-3-1.1-6-2.3c-5.8-2.6-5.8-2.6-11.6-5.4 c-5.7-3-5.7-3-11.2-6.2c-5.5-3.1-6.1-2.3-11.5-5.7c-5.4-3.5-5.1-3.9-10.3-7.6c-5-4-5.2-3.7-10-7.9c-4.9-4.2-4.2-4.9-8.7-9.4 c-2.3-2.2-3.5-3.2-4.7-4.3c-1.2-1.1-2.4-2.1-4.6-4.4c-4.2-4.8-3.9-5.1-7.9-10c-3.9-5-4.3-4.8-7.9-10c-3.7-5.2-3.7-5.2-7.1-10.6 c-3.4-5.4-3.5-5.3-6.7-10.9c-2.8-5.7-3.7-5.3-6.3-11.2c-2.7-5.8-1.2-6.5-3.5-12.4c-2.4-5.9-2.6-5.8-4.7-11.8 c-1.9-6.1-1.8-6.1-3.5-12.3c-0.7-3.1-1.3-4.6-1.9-6.1c-0.6-1.5-1.2-3-1.7-6.2c-1.1-6.3-1.7-6.2-2.5-12.6c-0.9-6.4,1.2-6.6,0.6-12.9 c-0.4-6.3-0.8-6.3-1-12.7c0.2-6.4-0.6-6.4-0.4-12.8c0.4-6.4,1.3-6.3,1.9-12.7c0.3-3.2,0.5-4.8,0.7-6.3c0.2-1.6,0.4-3.2,0.9-6.3 c1-6.3,2.1-6.1,3.6-12.3c1.5-6.2,0-6.6,2-12.7c1-3.1,1.4-4.6,1.9-6.1c0.5-1.5,1.1-3,2.3-6c2.4-6,3.8-5.4,6.6-11.1 c1.4-2.9,1.8-4.4,2.2-6c0.4-1.6,0.9-3.1,2.5-5.9c1.6-2.8,2.2-4.3,2.9-5.7c0.7-1.5,1.3-2.9,3.1-5.6c1.7-2.7,2.9-3.8,4.1-5 c1.2-1.1,2.2-2.4,4.2-4.9c3.8-5.1,3.4-5.4,7.4-10.4c4.2-4.8,3.6-5.4,7.8-10.2c4.5-4.6,4.7-4.4,9.2-8.9c4.8-4.3,5.4-3.6,10.1-7.9 c4.9-4,5.1-3.9,10.1-7.8c5.1-3.8,4.9-4.1,10.1-7.8c5.3-3.5,5.2-3.7,10.7-7c1.5-0.9,0.8-4.8,0.8-4.8 C135.1,52.4,133.4,51.9,131.8,52.8z" fill="#fff"/></g><g id="change5_1"><path d="M136.1,59.7c-5.5,3.3-5.3,3.6-10.6,7.1c-5.2,3.6-5.4,3.4-10.6,7.1c-5,4-5.3,3.5-10.3,7.6 c-4.7,4.3-5.9,3-10.7,7.3c-4.5,4.6-4.7,4.4-9.2,9.1c-4.3,4.8-3.7,5.4-7.8,10.2c-4,5-4.3,4.8-8.2,9.9c-3.8,5.2-2.6,6-6.2,11.3 c-1.8,2.7-2.2,4.3-2.7,5.8c-0.5,1.6-1,3.1-2.5,5.9c-1.6,2.8-2.9,3.8-4.2,5c-1.3,1.1-2.7,2.3-4.1,5.2c-2.8,5.8,0.3,7.1-2.1,13 c-2.4,5.9-2.8,5.7-4.7,11.8c-1.9,6.1-5.2,5.1-6.7,11.4c-1.5,6.3-0.2,6.6-1.2,12.9c-0.6,3.2-0.7,4.8-0.9,6.4 c-0.2,1.6-0.4,3.2-0.7,6.4c-0.6,6.4-0.7,6.4-1.1,12.8c-0.2,6.4-0.9,6.4-1.1,12.8c0.2,6.4,0.1,6.4,0.5,12.8c0.5,6.4,1.8,6.3,2.7,12.6 c0.8,6.3-0.8,6.6,0.3,12.9c0.6,3.2,0.8,4.8,1.1,6.3c0.3,1.6,0.5,3.2,1.3,6.3c1.7,6.2,2.6,6,4.5,12.1c2.1,6.1,1.5,6.3,3.9,12.2 c2.3,6,2,6.1,4.7,12c2.7,5.9,4.7,4.9,7.5,10.5c3.2,5.5,2.2,6.1,5.6,11.5c3.5,5.4,4.2,4.9,8,10c3.7,5.2,4.1,4.9,8,9.9 c4.1,4.9,3.2,5.6,7.5,10.4c4.4,4.6,3.6,5.5,8.3,9.9c4.6,4.5,5.9,3.1,10.7,7.2c4.9,4.1,5.2,3.7,10.2,7.7c5.2,3.6,3.5,6.1,8.9,9.6 c5.4,3.5,6.3,2.1,11.8,5.3c2.8,1.6,3.9,2.9,5.1,4.1c1.2,1.3,2.3,2.5,5.2,4c5.9,2.7,6.8,0.7,12.7,3.2c6,2.3,5.3,4.1,11.4,6.1 c6.1,2.1,6.1,2.2,12.3,4c6.2,1.7,6.3,1.3,12.6,2.8c6.4,1.1,6.5,0.5,12.8,1.5c6.4,0.8,6.4,1.1,12.8,1.5c6.4,0.5,6.4,0.3,12.8,0.5 c3.2,0.1,4.8-0.3,6.4-0.7c1.6-0.4,3.2-0.8,6.4-0.9c6.4-0.3,6.5,1.3,12.9,0.8c6.4-0.9,6.5,0.2,12.9-0.9c6.4-1.1,6.1-2.3,12.4-3.8 c6.3-1.4,6.1-1.9,12.3-3.6c6.1-1.9,5.7-3.1,11.8-5.2c5.9-2.4,6.1-1.9,11.9-4.5c3.2-1.4,7.1-1.2,10-3.2c2.7-1.7,4.2-4.8,7-6.5 c5.5-3.2,5.6-2.9,11-6.4c5.4-3.4,5.5-3.2,10.8-6.8c5.1-3.9,6.2-2.5,11.1-6.5c4.8-4.2,5.1-3.9,9.7-8.4c4.7-4.4,4.1-5,8.5-9.6 c4.4-4.7,4.6-4.5,8.9-9.3c3.9-5.1,3.2-5.7,6.9-10.9c3.7-5.2,2.6-6,6-11.3c1.7-2.7,3.2-3.6,4.6-4.7c1.4-1,2.8-2.1,4.4-4.9 c3-5.7,0.2-7.1,3-12.8c2.6-5.8,3.2-5.5,5.5-11.4c2.4-5.9,5.4-4.8,7.5-10.9c2-6.1,0.3-6.6,2.1-12.8c1.4-6.3,1.2-6.3,2.4-12.6 c1.1-6.3,1.1-6.3,1.9-12.6c0.8-6.3,1.4-6.3,1.9-12.7c0.3-3.2,0.3-4.8,0.3-6.4c0-1.6,0.1-3.2,0.1-6.4c-0.1-6.4-1.5-6.4-1.8-12.7 c-0.2-3.2,0-4.8,0.3-6.4c0.3-1.6,0.6-3.3,0.2-6.4c-0.8-6.4-0.4-6.4-1.5-12.7c-1.1-6.3-2.2-6.1-3.6-12.3c-1.6-6.2-1.2-6.3-3-12.5 c-1-3-1.4-4.6-1.9-6.1c-0.4-1.6-0.8-3.1-2-6.1c-2.3-6-4.2-5.2-6.8-11c-1.3-2.9-1.8-4.4-2.3-6c-0.5-1.5-1-3.1-2.5-5.9 c-3.1-5.6-4-5.1-7.2-10.5c-3.5-5.3-3.6-5.2-7.3-10.4c-3.6-5.2-2.8-5.8-6.7-10.9c-4-5-3.3-5.6-7.5-10.4c-4.5-4.6-5.6-3.5-10.2-7.9 c-4.6-4.4-4.8-4.1-9.6-8.3c-2.4-2.1-3.2-3.6-4-5.1c-0.8-1.5-1.6-3.1-4.2-5.1c-5.2-3.8-6.1-2.5-11.4-6c-5.4-3.4-4.1-5.5-9.7-8.7 c-5.6-3.3-6.7-1.1-12.4-4c-5.7-2.8-5.1-4.3-10.9-6.9c-6-2.3-5.9-2.7-12-4.8c-6.1-2.1-6.2-1.9-12.4-3.6c-6.2-1.8-6.4-0.9-12.6-2.4 c-6.3-1.3-6.3-1.3-12.6-2.4c-6.4-0.7-6.4-0.8-12.8-1.3c-6.4-0.5-6.5,1-12.8,0.8c-6.4-0.2-6.4-1.8-12.8-1.6c-3.2,0.1-4.8,0-6.4-0.1 c-1.6-0.1-3.2-0.2-6.5,0.1c-6.4,0.7-6.2,2-12.6,2.9c-6.3,1.1-6.3,1.4-12.5,2.8c-3.1,0.7-4.6,1.4-6.1,2.1c-1.5,0.7-2.9,1.4-6,2.3 c-6.1,1.8-6.2,1.5-12.2,3.6c-6,2.2-6.4,1.2-12.3,3.7c-1.6,0.7-1,4.4,0.8,8.3c0,0,3.6,5.9,5.1,5.3c5.5-2.3,6.1-0.7,11.6-2.7 c5.6-1.9,5.9-0.9,11.5-2.6c2.8-0.8,4-2,5.2-3.2c1.2-1.2,2.4-2.4,5.4-3.1c5.8-1.3,5.9-0.9,11.8-1.9c5.9-0.9,6.3,2.1,12.1,1.5 c2.9-0.3,4.4-0.7,5.8-1c1.4-0.4,2.9-0.8,5.8-0.9c5.9-0.2,5.9-2.3,11.8-2.1c6,0.1,5.9,0.3,11.9,0.7c5.9,0.5,5.8,1.6,11.7,2.2 c5.8,1,5.9,0.7,11.7,1.9c5.8,1.4,5.6,2,11.3,3.7c5.7,1.6,5.5,2.4,11,4.2c5.6,1.9,5.6,1.7,11.2,3.8c5.4,2.4,5.5,2.1,10.8,4.7 c5.2,2.7,5.2,2.8,10.3,5.7c5.1,2.9,4.8,3.4,9.8,6.5c4.9,3.3,6.1,1.5,10.9,5c2.3,1.8,3.4,2.9,4.5,4c1.1,1,2.1,2.1,4.3,4.1 c4.5,3.9,4.7,3.7,8.9,7.8c4.3,4.1,2.6,5.7,6.7,9.9c3.8,4.4,4.7,3.7,8.4,8.3c3.6,4.7,2.9,5.2,6.3,10c3.4,4.8,3.8,4.5,7,9.5 c3,5,3.1,5,6,10.2c2.6,5.3,3.4,4.9,5.7,10.3c2.5,5.4,3.7,4.8,5.9,10.4c2.2,5.5-1,6.7,0.9,12.2c1.6,5.6,2.7,5.3,4.1,11 c1.3,5.7,1.4,5.7,2.4,11.5c1.1,5.8,2.7,5.5,3.5,11.4c0.4,2.9,0.8,4.4,1.2,5.9c0.4,1.5,0.8,2.9,1,5.9c0.2,6-3.4,6.1-3.3,11.9 c-0.2,5.8,1.2,5.9,0.7,11.8c-0.5,5.9,1.2,6,0.5,11.9c-0.7,5.9-2.2,5.7-3.2,11.5c-1.1,5.8-0.6,5.9-1.9,11.7c-1.7,5.7-3.1,5.3-5,10.8 c-1.9,5.5,1.2,6.6-1.1,12.2c-2.1,5.6-2.2,5.6-4.6,11c-2.6,5.4-5.7,3.8-8.4,9c-1.5,2.5-1.7,4.1-1.9,5.7c-0.2,1.6-0.5,3.2-2.1,5.6 c-3.2,5-2.4,5.5-5.9,10.4c-3.5,4.9-5.8,3-9.4,7.7c-3.9,4.4-3.1,5.1-7.2,9.4c-4.1,4.3-3,5.3-7.3,9.4c-4.3,4.1-4.8,3.5-9.3,7.4 c-4.6,3.8-5.7,2.3-10.4,5.9c-4.8,3.4-4.9,3.3-9.8,6.4c-4.9,3.2-4.3,4.2-9.4,7.1c-5.1,2.9-4.9,3.5-10.1,6.2c-0.1,0.1-0.2,0.1-0.3,0.2 c-1.6,0.2-3.1,0.4-5.8,1.6c-5.4,2.4-5.9,1.2-11.3,3.4c-5.5,1.9-4.4,5.2-10.2,7c-5.8,1.6-5.8,1.4-11.6,2.7c-5.8,1.4-6.4-1.7-12.2-0.7 c-5.8,1-5.7,1.9-11.5,2.7c-5.9,0.5-5.7,2.6-11.7,2.9c-3,0.1-4.5,0.1-6,0.1c-1.5,0-3,0-6-0.1c-6-0.1-5.9-1-11.8-1.5 c-5.9-0.4-5.9-0.3-11.8-1c-5.9-0.9-5.7-1.8-11.5-2.9c-5.8-1.4-5.6-1.9-11.3-3.5c-5.7-1.6-5.8-1.1-11.4-3.1 c-5.6-1.8-5.6-1.8-11.2-3.9c-5.4-2.3-5.4-2.5-10.7-5c-2.6-1.3-3.9-2.1-5.2-2.9c-1.3-0.8-2.5-1.5-5.1-3c-5.1-2.9-6.2-1.1-11.3-4.3 c-5-3.2-4.5-4-9.4-7.4c-4.7-3.7-4.9-3.4-9.4-7.2c-4.5-3.9-3.1-5.4-7.4-9.5c-4.3-4-4.9-3.4-9-7.7c-4-4.4-3.2-5.1-7-9.6 c-3.6-4.7-4.2-4.2-7.6-9c-3.5-4.8-3.5-4.8-6.7-9.8c-3.2-5-3.5-4.8-6.5-9.9c-2.6-5.3-4-4.6-6.5-10c-2.5-5.5,0.4-6.7-1.7-12.1 c-2.2-5.4-3-5.2-4.9-10.7c-1.8-5.6-1.6-5.7-3.2-11.3c-1.3-5.8-3.2-5.3-4.2-11.2c-1-5.9-2.2-5.7-2.9-11.6c-0.8-5.9,3-6.3,2.5-12.1 c-0.4-5.9-1.4-5.8-1.6-11.7c0.2-5.9-1.4-5.9-1.2-11.9c0.4-6,1.9-5.8,2.5-11.7c0.2-3,0.4-4.4,0.5-5.9c0.1-1.5,0.2-3,0.7-5.9 c1-5.9,2.8-5.5,4.2-11.2c1.3-5.7-1.6-6.6,0.2-12.3c0.9-2.8,1.3-4.3,1.7-5.7c0.5-1.4,1-2.8,2.1-5.6c2.2-5.6,5.2-4.3,7.8-9.6 c1.3-2.7,1.4-4.2,1.5-5.8c0.1-1.6,0.3-3.2,1.7-5.8c1.5-2.6,2-4,2.5-5.4c0.5-1.4,1-2.9,2.7-5.4c3.3-5,5.5-3.6,8.9-8.3 c3.6-4.7,2.8-5.3,6.5-9.9c3.9-4.5,2.7-5.5,6.7-9.9c4.2-4.3,4.6-3.8,8.8-8.1c4.4-4,5.6-2.7,10-6.6c4.6-3.7,4.8-3.4,9.4-7.1 c4.7-3.5,4.1-4.4,9-7.7c4.9-3.2,4.6-3.8,9.7-6.8c1.4-0.8-1.1-7.9-1.1-7.9C140,60.4,137.7,58.8,136.1,59.7z" fill="#c38f41"/></g><g id="change3_2"><path d="M136.3,57.8c-5.5,3.3-5.5,3.4-10.9,6.9c-5.3,3.6-5.4,3.5-10.6,7.2c-5.1,4-5.2,3.7-10.3,7.8 c-4.8,4.3-5.4,3.6-10.2,8c-4.6,4.6-4.6,4.6-9.2,9.1c-4.3,4.8-4,5.1-8.2,10c-4.1,5-4.1,5-8.1,10.1c-2,2.6-2.7,4.1-3.4,5.5 c-0.8,1.4-1.5,2.9-3.3,5.6c-1.8,2.7-2.4,4.2-3.1,5.7c-0.6,1.5-1.3,3-2.9,5.8c-3.2,5.6-4.2,5.1-7.1,10.9c-2.8,5.8-1.2,6.5-3.6,12.5 c-1.2,3-1.8,4.5-2.5,5.9c-0.6,1.5-1.1,3-2.1,6.1c-1.9,6.1-3.7,5.6-5.2,11.9c-0.8,3.1-1,4.8-1.2,6.4c-0.2,1.6-0.3,3.2-0.9,6.4 c-0.6,3.2-0.8,4.8-1,6.4c-0.2,1.6-0.5,3.2-0.8,6.4c-0.6,6.4-0.7,6.4-1.2,12.8c-0.2,6.4-0.5,6.4-0.8,12.9c0.1,6.5,0.1,6.5,0.4,12.9 c0.2,3.2,0.5,4.8,0.9,6.4c0.3,1.6,0.6,3.2,1.1,6.4c0.4,3.2,0.4,4.8,0.4,6.4c0.1,1.6,0.2,3.2,0.7,6.4c0.5,3.2,0.8,4.8,1.2,6.4 c0.3,1.6,0.6,3.2,1.4,6.3c1.7,6.3,2.1,6.1,4,12.3c2.1,6.1,1.7,6.2,4.1,12.2c2.3,6,2.2,6.1,4.9,12c2.7,5.9,3.8,5.3,6.6,11.1 c3.2,5.6,2.7,5.9,6.1,11.4c3.5,5.4,3.8,5.2,7.6,10.4c3.7,5.3,4,5.1,7.9,10.1c4.1,4.9,3.7,5.3,8,10.1c4.5,4.6,4,5.1,8.7,9.6 c4.7,4.5,5.3,3.8,10.2,8c4.9,4.2,5.1,3.9,10.1,7.9c5.3,3.7,4.4,5,9.8,8.5c5.4,3.5,5.8,2.8,11.5,6c5.6,3.3,5.1,4.1,10.9,7.1 c5.9,2.8,6.3,1.7,12.3,4.3c6,2.3,5.6,3.3,11.8,5.4c6.1,2.1,6.1,2.2,12.3,3.9c3.1,0.9,4.7,1.2,6.3,1.6c1.6,0.3,3.2,0.7,6.3,1.4 c6.4,1.2,6.4,0.9,12.8,1.9c6.4,0.7,6.4,1,12.8,1.5c3.2,0.2,4.8,0.3,6.4,0.4c1.6,0,3.2,0.1,6.5,0.1c6.5,0.2,6.5-0.8,12.9-0.9 c6.4-0.3,6.5,0.4,12.9-0.1c6.4-0.9,6.5-0.2,12.9-1.3c6.4-1.2,6.3-1.7,12.6-3.2c6.3-1.4,6.2-1.7,12.4-3.5c6.2-1.9,6-2.6,12-4.6 c6-2.4,6.1-2,12-4.7c3.2-1.5,6.8-2,9.8-3.9c2.8-1.6,4.9-3.7,7.6-5.4c5.6-3.2,5.7-3.1,11.1-6.6c5.4-3.4,5.5-3.4,10.7-7.1 c5.1-3.9,5.7-3.2,10.7-7.3c4.8-4.3,5.1-4,9.7-8.5c4.7-4.4,4.4-4.8,8.8-9.4c4.4-4.7,4.5-4.7,8.7-9.5c3.9-5.1,3.7-5.3,7.4-10.6 c3.8-5.2,3.2-5.6,6.6-11c1.8-2.7,2.9-3.9,4-5.1c1.1-1.2,2.2-2.4,3.8-5.2c3-5.7,1.6-6.4,4.4-12.2c2.6-5.9,3-5.7,5.3-11.7 c2.4-6,3.9-5.4,5.9-11.6c2-6.2,1.1-6.4,2.9-12.6c1.4-6.3,1.4-6.3,2.6-12.6c1.1-6.4,1.2-6.3,1.9-12.7c0.9-6.4,1.1-6.4,1.6-12.8 c0.5-6.4,0.2-6.4,0.4-12.9c-0.1-6.5-0.8-6.4-1.1-12.9c-0.2-3.2-0.2-4.8-0.1-6.4c0.1-1.6,0.2-3.3-0.3-6.5c-0.8-6.4-0.6-6.4-1.8-12.8 c-1.1-6.4-1.8-6.2-3.2-12.5c-1.6-6.2-1.5-6.3-3.3-12.5c-1-3.1-1.5-4.6-2-6.1c-0.5-1.6-0.9-3.1-2.2-6.1c-1.2-3-2-4.4-2.8-5.8 c-0.9-1.4-1.8-2.7-3.1-5.7c-1.3-3-1.9-4.4-2.6-5.9c-0.6-1.5-1.3-3-2.7-5.8c-3.2-5.6-3.5-5.4-6.9-10.9c-3.5-5.4-3.5-5.4-7.3-10.6 c-3.7-5.3-3.3-5.5-7.3-10.6c-4.1-5-3.7-5.3-8-10.1c-2.2-2.3-3.5-3.3-4.8-4.4c-1.3-1-2.5-2-4.9-4.2c-4.6-4.5-4.8-4.3-9.6-8.5 c-4.8-4.2-4.1-5.1-9.2-9.2c-5.3-3.7-5.7-3.2-11.1-6.7c-5.4-3.5-4.8-4.5-10.4-7.7c-5.6-3.3-6.2-2.1-11.9-5.1 c-5.8-2.8-5.5-3.5-11.4-6.1c-3-1.2-4.5-1.8-6-2.4c-1.5-0.6-3-1.2-6.1-2.2c-3.1-1-4.6-1.5-6.2-2c-1.6-0.4-3.1-0.9-6.2-1.7 c-3.1-0.9-4.7-1.2-6.3-1.5c-1.6-0.3-3.2-0.6-6.3-1.3c-6.3-1.2-6.3-1.3-12.7-2.3c-3.2-0.4-4.8-0.6-6.4-0.8c-1.6-0.2-3.2-0.4-6.4-0.6 c-3.2-0.2-4.8-0.2-6.5-0.1c-1.6,0.1-3.2,0.3-6.4,0.2c-6.4-0.2-6.4-0.9-12.9-0.8c-6.4,0.3-6.5-0.1-12.9,0.5 c-6.4,0.7-6.3,1.4-12.7,2.3c-6.4,1.1-6.3,1.3-12.6,2.7c-3.1,0.7-4.7,1.3-6.2,1.8c-1.5,0.5-3,1.1-6.1,2c-6.1,1.9-6.2,1.7-12.3,3.9 c-6,2.3-6.2,1.7-12.2,4.3c-1.6,0.7-1.7,2.8-0.8,4.7c0,0,2.3,2.7,3.8,2.1c5.7-2.5,6.1-1.6,11.8-3.8c5.8-2.1,6-1.6,11.9-3.4 c3-0.9,4.3-1.7,5.7-2.5c1.4-0.8,2.8-1.6,5.8-2.3c6.1-1.3,6.1-1.2,12.2-2.2c6.2-0.9,6.4,0.6,12.5-0.1c6.1-0.6,6.1-1.1,12.3-1.4 c6.2-0.2,6.2-1.3,12.4-1.1c3.1,0.1,4.7,0.1,6.2,0.2c1.6,0.1,3.1,0.2,6.2,0.5c3.1,0.2,4.6,0.5,6.2,0.8c1.5,0.3,3.1,0.6,6.1,1 c6.1,1,6.2,0.9,12.3,2c3,0.7,4.5,1.2,6,1.6c1.5,0.4,3,0.9,5.9,1.8c3,0.8,4.4,1.4,5.9,1.9c1.4,0.6,2.9,1.2,5.8,2.2 c2.9,1,4.4,1.5,5.9,2c1.5,0.5,2.9,1,5.8,2.2c5.7,2.5,5.7,2.3,11.3,5c5.5,2.9,5.5,2.8,10.9,5.9c5.4,3.1,5.2,3.3,10.5,6.6 c5.2,3.4,5.7,2.6,10.8,6.2c4.9,3.9,4.8,4,9.5,8.1c4.7,4.1,4.8,3.9,9.3,8.3c2.3,2.1,3.2,3.4,4,4.7c0.9,1.3,1.8,2.6,3.9,4.8 c4.1,4.7,4.5,4.3,8.5,9.1c3.8,4.9,3.5,5.1,7.1,10.2c3.6,5,3.7,4.9,7.1,10.1c3.2,5.3,3.2,5.3,6.3,10.7c1.4,2.8,2.2,4.1,3,5.4 c0.8,1.3,1.6,2.7,2.8,5.5c1.3,2.8,2.1,4.2,2.9,5.5c0.7,1.4,1.5,2.8,2.6,5.7c1.2,2.9,1.3,4.5,1.4,6.1c0.1,1.6,0.2,3.2,1.2,6.1 c1.7,5.9,2.3,5.8,3.8,11.8c1.3,6,1.5,6,2.6,12.1c1.1,6.1,1.9,6,2.7,12.1c0.4,3.1,0.7,4.6,0.9,6.2c0.3,1.5,0.5,3.1,0.7,6.2 c0.3,6.2-1.6,6.3-1.5,12.5c-0.2,6.2,0.6,6.2,0.1,12.4c-0.5,6.2,0.4,6.3-0.4,12.4c-0.7,6.2-1.6,6.1-2.6,12.2c-1.2,6.1-1,6.1-2.4,12.2 c-1.8,6-2.4,5.8-4.3,11.6c-2,5.8-0.4,6.4-2.7,12.2c-2.2,5.8-2.3,5.8-4.9,11.5c-2.7,5.6-4.3,4.8-7.1,10.3c-1.5,2.7-2.1,4.2-2.6,5.7 c-0.5,1.5-1,3-2.8,5.6c-3.3,5.3-3,5.5-6.6,10.6c-3.6,5.1-4.9,4.1-8.7,9c-4.1,4.7-3.6,5-7.9,9.6c-4.3,4.5-3.7,5-8.2,9.3 c-4.5,4.3-4.8,3.9-9.5,8c-4.8,3.9-5.4,3.2-10.3,7c-5.1,3.5-5,3.6-10.3,6.9c-5.2,3.4-4.9,3.8-10.3,6.9c-5.4,3.1-5.3,3.2-10.8,6.1 c-0.1,0-0.2,0.1-0.3,0.2c-1.5,0.4-3,0.9-5.9,2.2c-5.7,2.6-5.9,1.8-11.7,4.2c-5.9,2-5.3,3.7-11.2,5.5c-6,1.7-6,1.6-12.1,3 c-6.1,1.4-6.4-0.2-12.5,0.9c-6.1,1-6,1.4-12.2,2.2c-6.2,0.5-6.1,1.6-12.3,1.9c-6.2,0.1-6.2,0.3-12.5,0.1c-3.1-0.1-4.7-0.2-6.2-0.4 c-1.5-0.2-3.1-0.5-6.2-0.7c-6.2-0.4-6.2-0.5-12.4-1.2c-6.2-0.9-6.1-1.4-12.2-2.6c-3-0.7-4.5-1.1-6-1.6c-1.5-0.4-3-0.9-6-1.7 c-6-1.7-6-1.4-11.9-3.5c-5.9-1.9-5.9-2-11.7-4.2c-5.7-2.5-5.7-2.6-11.3-5.2c-5.5-2.9-5.5-2.9-10.8-6c-5.4-3.1-5.9-2.2-11.2-5.5 c-5.2-3.4-4.9-3.8-10-7.4c-4.9-3.9-5.1-3.6-9.8-7.7c-4.7-4.1-4-4.8-8.5-9.1c-4.5-4.2-4.7-4-9.1-8.5c-4.1-4.6-3.8-5-7.7-9.7 c-3.8-4.9-4.2-4.6-7.7-9.7c-3.6-5-3.6-5.1-6.9-10.3c-3.3-5.3-3.4-5.2-6.5-10.6c-2.8-5.6-3.6-5.2-6.1-10.8c-2.6-5.7-1.1-6.3-3.4-12 c-1.2-2.9-1.8-4.3-2.4-5.7c-0.6-1.4-1.2-2.9-2.2-5.8c-1.8-5.9-1.8-5.9-3.4-11.9c-0.7-3-1.3-4.5-1.8-5.9c-0.6-1.5-1.1-2.9-1.6-6 c-0.5-3.1-1-4.6-1.4-6.1c-0.3-1.5-0.7-3.1-1.1-6.1c-0.4-3.1-0.1-4.7,0.2-6.3c0.3-1.6,0.7-3.2,0.4-6.2c-0.3-6.2-0.8-6.2-0.9-12.4 c0.2-6.2-0.6-6.2-0.4-12.5c0.5-6.2,1.3-6.1,1.9-12.3c0.3-3.1,0.6-4.6,0.7-6.2c0.2-1.5,0.4-3.1,0.9-6.1c0.5-3.1,1-4.5,1.6-6 c0.6-1.5,1.2-2.9,1.9-5.9c1.4-6,0.1-6.4,1.9-12.4c0.9-3,1.4-4.5,1.9-6c0.6-1.5,1.1-2.9,2.3-5.8c2.3-5.8,3.8-5.2,6.5-10.7 c2.7-5.5,1.5-6.2,4.6-11.6c1.5-2.7,2.2-4.1,2.8-5.5c0.6-1.4,1.3-2.9,3-5.4c1.7-2.6,2.9-3.7,4-4.8c1.2-1.1,2.2-2.3,4.1-4.7 c3.8-4.9,3.3-5.3,7.2-10.1c4.1-4.7,3.5-5.2,7.6-9.9c4.4-4.4,4.6-4.2,9-8.6c4.6-4.1,5.2-3.5,9.9-7.6c4.8-3.9,5-3.7,9.8-7.5 c5-3.6,4.7-4,9.9-7.5c5.2-3.4,5.1-3.5,10.4-6.8c1.5-0.9,0.8-4.7,0.8-4.7C139.5,57.4,137.8,56.9,136.3,57.8z" fill="#040000"/></g><g id="change1_8"><path d="M463.8,166.7c-1.4-3.5-1.8-3.3-3.2-6.8c-1.4-3.5-1.4-3.5-2.9-6.9c-1.6-3.4-1.3-3.5-2.9-7 c-1.8-3.3-0.7-3.9-2.5-7.2c-1.8-3.3-1.6-3.5-3.5-6.7c-1.9-3.2-2.4-3-4.3-6.2c-2-3.2-1.8-3.4-3.8-6.5c-2.1-3.1-2.7-2.7-4.9-5.8 c-2.2-3-3-2.5-5.3-5.5c-2.2-3-0.7-4.2-3.1-7.2c-2.4-2.9-4.1-1.5-6.5-4.4c-2.5-2.8-2.2-3-4.7-5.8c-2.5-2.8-0.8-4.4-3.4-7.1 c-2.7-2.7-3.4-1.9-6.1-4.6c-2.7-2.6-2.9-2.4-5.7-5c-2.8-2.5-2.8-2.5-5.6-5c-2.9-2.4-2.6-2.8-5.5-5.2c-2.9-2.5-3-2.3-5.9-4.6 c-3-2.3-3.6-1.5-6.6-3.7c-3.1-2.2-2.4-3.1-5.5-5.3c-3.1-2.2-2.9-2.4-6.1-4.4c-3.2-2-3.5-1.5-6.7-3.5c-3.2-1.9-3.1-2.1-6.4-4 c-3.3-1.9-3.1-2.2-6.5-3.9c-3.4-1.7-4-0.5-7.3-2.2c-3.3-1.7-3.1-2.2-6.5-3.8c-3.4-1.5-3.7-1-7.1-2.4c-3.5-1.4-3.6-1.2-7-2.6 c-3.5-1.4-3.2-2.1-6.8-3.4c-3.6-1.2-3.3-2-6.9-3.2c-3.6-1.1-4,0.1-7.6-1c-3.6-1.1-3.7-0.8-7.3-1.7c-3.6-0.9-3.2-2.8-6.8-3.7 c-3.7-0.7-3.9,0.4-7.6-0.3c-3.7-0.7-3.4-2.4-7.2-2.9c-3.8-0.6-4,1-7.7,0.5c-3.7-0.4-3.6-1.6-7.4-2c-3.8-0.3-3.8-0.6-7.5-0.8 c-3.8-0.2-3.8,0-7.6-0.2c-3.8-0.1-3.8,0.5-7.6,0.5c-3.8,0.1-3.8-0.2-7.6,0.1c-3.8,0.3-3.8,0.3-7.6,0.5c-3.8,0.2-3.7,1.4-7.4,1.8 c-3.7,0.4-3.9-0.8-7.7-0.3c-3.7,0.6-3.8,0-7.6,0.6c-3.8,0.6-3.6,1.6-7.3,2.4c-3.7,0.8-3.7,1-7.3,1.9c-3.6,1-3.4,1.8-7,2.9 c-3.6,1-3.7,0.8-7.3,2c-1.9,0.7-4.3,0.2-6.2,1.1c-1.7,0.8-2.7,2.8-4.4,3.5c-3.4,1.4-3.5,1.3-6.9,2.7c-3.4,1.6-3.6,1.3-7,2.9 c-3.4,1.6-4,0.5-7.3,2.3c-3.3,1.8-3.4,1.6-6.8,3.4c-3.3,1.9-3,2.4-6.2,4.3c-3.3,1.9-3.4,1.6-6.6,3.7c-3.1,2.1-2.7,2.8-5.8,4.9 c-3,2.2-2.5,3-5.5,5.3c-3,2.2-4.2,0.6-7.2,3.1c-2.9,2.4-1.5,4.1-4.4,6.5c-2.8,2.5-3,2.2-5.8,4.7c-2.8,2.5-4.4,0.8-7.1,3.5 c-2.7,2.7-1.9,3.4-4.6,6.1c-2.6,2.8-2.3,3-4.9,5.7c-2.6,2.8-2.5,2.9-4.9,5.7c-2.4,2.9-2.8,2.6-5.2,5.5c-2.3,3-2.3,3-4.5,6 c-2.3,3-1.4,3.6-3.6,6.7c-2.1,3.1-3.1,2.4-5.2,5.6c-2,3.2-2.2,3.1-4.2,6.3c-2,3.2-1.4,3.6-3.3,6.8c-1.8,3.3-2.2,3.1-3.9,6.4 c-1.7,3.4-2,3.2-3.7,6.6c-1.7,3.4-0.4,4-1.9,7.4c-1.5,3.4-2.2,3.1-3.7,6.6c-1.4,3.5-0.7,3.8-2.1,7.2c-1.4,3.5-1.1,3.6-2.4,7.1 c-1.2,3.5-2,3.3-3.2,6.8c-1.1,3.6-1.8,3.4-2.9,7c-1.1,3.6,0.2,4-0.7,7.6c-0.9,3.6-0.7,3.7-1.5,7.3c-0.7,3.7-2.7,3.3-3.4,7 c-0.8,3.7,0.5,3.9-0.1,7.6c-0.6,3.7-2.2,3.5-2.7,7.2c-0.4,3.8,1.2,3.9,0.8,7.7c-0.4,3.7-1.5,3.6-1.8,7.4c-0.2,3.8-0.4,3.8-0.6,7.5 c0,3.8,0.1,3.8,0.1,7.6c-0.1,3.8,0.5,3.8,0.6,7.5c0.1,3.8,0,3.8,0.2,7.5c0.4,3.8,0.4,3.8,0.7,7.5c0.3,3.8,1.4,3.6,1.9,7.4 c0.5,3.7-0.7,3.9-0.1,7.6c0.7,3.7,0.1,3.8,0.8,7.5c0.7,3.7,1.6,3.5,2.4,7.2c0.9,3.7,1.1,3.6,2,7.3c1,3.6,1.9,3.4,2.9,7 c1.1,3.6,0.7,3.7,2,7.2c1.2,3.5,0.5,3.8,1.7,7.4c0.3,1,2.9,0.6,5.8-0.5c0,0,4.3-2.2,4-3.1c-1.2-3.4,0-3.8-1.2-7.2 c-1.2-3.4-0.4-3.6-1.4-7.1c-1-3.4-3.4-2.8-4.3-6.2c-0.8-3.5-0.6-3.6-1.4-7.1c-0.9-3.5,1.3-4,0.6-7.5c-0.7-3.5-1.4-3.4-2.1-6.9 c-0.5-3.5-1.9-3.3-2.4-6.9c-0.5-3.6-0.5-3.6-0.8-7.2c-0.3-3.6,0.3-3.6,0-7.2c-0.2-3.6-0.3-3.6-0.5-7.2c-0.1-3.6,0.4-3.6,0.5-7.2 c0-3.6,0.6-3.6,0.6-7.2c0.1-3.6-0.1-3.6,0.1-7.2c0.2-3.6,0-3.6,0.4-7.2c0.4-3.6,0.4-3.6,0.9-7.1c0.5-3.6,0.8-3.5,1.3-7.1 c0.6-3.5-1-3.8-0.3-7.4c0.7-3.5,1.2-3.4,1.9-7c0.8-3.5,0.7-3.5,1.5-7c0.9-3.5,2.3-3.1,3.3-6.6c1-3.4,0.3-3.6,1.4-7.1 c1.1-3.4,1.8-3.2,3-6.6c1.2-3.4,0.7-3.5,2.1-6.9c1.3-3.3,1.3-3.3,2.6-6.7c1.4-3.3,1.1-3.4,2.6-6.7c1.5-3.3,0.6-3.7,2.2-6.9 c1.6-3.2,3.6-2.2,5.3-5.4c1.7-3.1,1.1-3.5,2.9-6.6c1.8-3.1,1.7-3.1,3.7-6.2c1.9-3,0.9-3.7,2.8-6.7c2-3,1.4-3.4,3.4-6.4 c2.1-3,4.1-1.5,6.3-4.3c2.2-2.8,1.5-3.3,3.7-6.2c2.3-2.8,1.4-3.5,3.7-6.3c2.3-2.8,3-2.2,5.5-4.8c2.4-2.6,2.1-3,4.5-5.6 c2.5-2.6,3.4-1.7,5.9-4.2c2.5-2.5,1-4.2,3.7-6.6c2.6-2.5,2.6-2.5,5.3-4.9c2.8-2.3,4.3-0.5,7.1-2.7c2.8-2.3,1.7-3.6,4.7-5.7 c2.9-2.1,2.5-2.7,5.4-4.8c3-2,4.1-0.4,7.1-2.4c3-2,2.6-2.5,5.7-4.3c3.1-1.8,2.6-2.7,5.7-4.5c3.2-1.7,3.4-1.3,6.6-3 c3.2-1.7,3.7-0.6,6.9-2.1c3.2-1.5,3.3-1.3,6.5-2.8c3.3-1.4,3-2.2,6.4-3.5c3.4-1.4,3.2-1.9,6.5-3c0.1,0,0.1-0.1,0.2-0.1 c1,0,1.9,0,3.6-0.6c3.4-1.2,3.6-0.5,7-1.4c3.4-1,2.8-3.3,6.3-4.3c3.5-0.9,3.6-0.6,7.1-1.4c3.5-0.8,3.9,1.2,7.4,0.7 c3.5-0.6,3.4-1.4,6.9-1.9c3.5-0.5,3.4-1.9,6.9-2.3c3.6-0.4,3.6-0.4,7.2-0.6c3.6-0.2,3.6,0.4,7.2,0.2c3.6-0.2,3.6-0.3,7.2-0.3 c3.6,0,3.6,0.5,7.2,0.7c3.6,0.2,3.6,0.7,7.1,0.9c3.6,0.1,3.6-0.1,7.2,0.3c3.6,0.4,3.6,0.1,7.2,0.6c3.5,0.6,3.5,0.6,7.1,1.2 c3.6,0.5,3.5,0.8,7,1.5c3.5,0.7,3.8-0.8,7.4-0.1c3.5,0.9,3.4,1.4,6.9,2.2c3.5,0.9,3.6,0.7,7,1.7c3.5,1,3,2.5,6.5,3.5 c3.4,1.1,3.6,0.5,7,1.7c3.4,1.2,3.2,1.8,6.5,3.2c3.3,1.4,3.5,1,6.8,2.3c3.3,1.4,3.3,1.4,6.6,2.9c3.3,1.5,3.5,1.1,6.7,2.7 c3.2,1.7,3.6,0.8,6.9,2.5c3.2,1.6,2.1,3.7,5.2,5.5c3.1,1.8,3.5,1.2,6.6,3c3,1.9,3,1.9,6.1,3.9c3,1.9,3.7,0.9,6.7,3 c3,2.1,3.4,1.4,6.4,3.5c2.9,2.2,1.3,4.2,4.2,6.4c2.8,2.2,3.4,1.5,6.1,3.8c2.7,2.3,3.5,1.5,6.2,3.8c2.8,2.3,2,3.1,4.7,5.6 c2.6,2.5,3,2.1,5.6,4.6c2.5,2.6,1.7,3.4,4.2,6c2.5,2.5,4.1,1.1,6.5,3.8c2.5,2.7,2.5,2.7,4.9,5.3c2.3,2.8,0.5,4.3,2.7,7.1 c2.3,2.8,3.6,1.7,5.7,4.7c2.1,2.9,2.7,2.5,4.8,5.4c2.1,2.9,0.4,4.1,2.4,7.1c2,3,2.6,2.6,4.4,5.7c1.8,3.1,2.7,2.6,4.6,5.7 c1.9,3.1,1.4,3.4,3.1,6.5c1.7,3.2,0.6,3.8,2.3,6.9c1.5,3.2,1.3,3.3,2.9,6.6c1.5,3.2,2.4,2.9,3.7,6.2c1.4,3.3,1.9,3.1,3.2,6.5 c0.4,0.9,5.5-0.3,5.5-0.3C462.8,168.9,464.2,167.6,463.8,166.7z" fill="#fff"/></g><g id="change3_3"><path d="M126.7,28.8c-6.5,3.6-6.4,3.8-12.6,7.7c-6.3,3.8-6.3,3.9-12.5,8c-3,2.1-4.6,3.2-6.1,4.3c-1.5,1.1-3.1,2-6,4.4 c-5.6,4.8-6.6,3.7-12.1,8.8c-5.5,5-5.6,5-10.8,10.3c-2.7,2.6-3.7,4.2-4.9,5.6c-1.1,1.5-2.3,2.9-4.8,5.8c-2.4,2.9-3.6,4.3-4.8,5.7 c-1.3,1.4-2.5,2.8-4.7,5.8c-4.5,6-3.8,6.5-7.9,12.7c-2.1,3.1-2.8,4.8-3.5,6.5c-0.7,1.7-1.5,3.4-3.4,6.6c-1.8,3.3-3.1,4.6-4.4,6 c-1.4,1.4-2.7,2.8-4.3,6.2c-3.3,6.7-1.2,7.7-4.1,14.5c-1.4,3.4-2.2,5.1-2.9,6.8c-0.7,1.7-1.5,3.4-2.7,6.9c-1.1,3.5-2.3,5.1-3.4,6.7 c-1.2,1.6-2.3,3.2-3.2,6.8c-2,7.2-0.8,7.5-2.4,14.8c-0.9,3.6-1,5.5-1.3,7.3c-0.2,1.8-0.5,3.7-1.1,7.4c-0.4,3.7-0.7,5.5-0.9,7.4 c-0.2,1.8-0.4,3.7-0.7,7.4c-0.6,7.4-1,7.4-1.2,14.8c-0.2,3.7,0,5.6,0,7.4c0,1.9,0.1,3.7,0.2,7.4c0.2,3.7,0.6,5.6,1,7.4 c0.4,1.8,0.7,3.7,1.2,7.3c0.4,3.7,0.3,5.6,0.3,7.4c0,1.9,0,3.8,0.6,7.4c0.6,3.7,0.9,5.5,1.2,7.4c0.3,1.8,0.6,3.7,1.4,7.3 c1.9,7.2,2.4,7.1,4.6,14.2c2.3,7.1,1.8,7.2,4.5,14.2c2.6,7,2.4,7,5.4,13.9c3,6.8,4.5,6.1,7.7,12.8c3.6,6.5,2.9,6.9,6.7,13.3 c4,6.3,4.4,6,8.7,12.1c4.2,6.1,4.5,5.9,9,11.8c2.2,3,3.3,4.5,4.4,6c1,1.5,2.1,3.1,4.5,5.9c5.1,5.4,4.5,6,9.7,11.3 c5.4,5.1,6.2,4.3,11.8,9.1c5.6,4.9,5.8,4.6,11.6,9.2c2.9,2.3,4.2,3.7,5.4,5.2c1.2,1.5,2.4,3,5.5,5.1c3.1,2,4.9,2.8,6.6,3.5 c1.7,0.8,3.4,1.5,6.7,3.3c3.2,1.8,4.6,3.2,6,4.4c1.5,1.2,2.9,2.4,6.3,4.2c3.3,1.7,5.2,2.1,7.1,2.5c1.9,0.4,3.7,0.8,7.1,2.3 c3.4,1.4,5.1,2.4,6.7,3.3c1.6,1,3.2,2,6.8,3.2c7.1,2.4,7,2.7,14.2,4.7c7.2,2.1,7.3,1.7,14.5,3.6c3.6,0.8,5.5,1,7.4,1.2 c1.9,0.2,3.7,0.5,7.4,1c7.4,1,7.4,1.3,14.8,1.9c7.4,0.7,7.4,0.5,14.9,0.8c7.5,0.2,7.5-1,14.9-1.1c3.7-0.2,5.6,0,7.4,0.2 c1.9,0.2,3.8,0.4,7.5,0c7.4-0.8,7.5-0.1,14.9-1.3c7.4-1.1,7.2-2.2,14.5-3.7c7.2-1.7,7.2-2,14.4-3.9c3.5-1.1,5.3-1.9,7-2.6 c1.7-0.8,3.4-1.5,6.9-2.8c6.9-2.6,7.1-2.2,13.9-5.2c1.9-0.8,3.8-1.3,5.8-1.9c1.9-0.6,3.9-1.3,5.6-2.3c1.6-0.9,3-2.1,4.4-3.2 c1.4-1.2,2.7-2.4,4.3-3.3c3.3-1.8,4.9-2.7,6.5-3.5c1.6-1,3.2-1.9,6.3-3.9c1.6-1,2.8-1.7,3.8-2.3c1-0.6,1.8-1.1,2.5-1.6 c1.6-1,3.1-2,6.2-4.1c5.9-4.4,6.7-3.4,12.5-8.1c2.8-2.4,4.3-3.6,5.7-4.8c1.5-1.2,2.9-2.4,5.6-5c2.7-2.6,4-3.9,5.2-5.3 c1.2-1.4,2.4-2.9,5-5.6c2.6-2.7,3.9-4,5.2-5.4c1.3-1.3,2.6-2.7,5-5.5c2.3-2.9,3.3-4.5,4.3-6.1c1-1.6,2.1-3.1,4.2-6.2 c4.3-6.1,3.6-6.6,7.5-12.8c4-6.2,5.6-5.2,9.4-11.7c1.9-3.2,2.1-5.2,2.5-7.1c0.3-1.9,0.7-3.8,2.3-7.1c3-6.8,3.6-6.5,6.3-13.4 c2.8-6.8,4.9-6.1,7.4-13.1c1.3-3.5,1.4-5.4,1.7-7.3c0.2-1.9,0.5-3.7,1.5-7.3c0.9-3.6,1.2-5.4,1.6-7.3c0.4-1.8,0.8-3.6,1.4-7.3 c0.7-3.7,1-5.5,1.3-7.3c0.3-1.8,0.5-3.7,1-7.4c0.6-3.7,0.8-5.5,1.1-7.3c0.3-1.8,0.6-3.7,0.9-7.4c0.3-3.7,0.2-5.6,0.3-7.4 c0-1.9,0.2-3.7,0.2-7.4c-0.1-7.4-0.9-7.4-1.4-14.8c-0.4-7.4,0.7-7.5-0.1-14.9c-0.9-7.4-0.8-7.4-1.9-14.8c-0.8-3.6-1.3-5.4-1.8-7.2 c-0.6-1.8-1-3.6-2-7.2c-1.9-7.2-1.5-7.3-3.7-14.4c-2.2-7.1-2.1-7.1-4.6-14.1c-2.7-7-4.2-6.3-7-13.1c-3.3-6.6-2.5-7-6-13.6 c-3.7-6.5-4.1-6.2-8-12.5c-2-3.1-3-4.7-4-6.2c-1.1-1.5-2.2-3-4.3-6c-2.1-3.1-3-4.6-4-6.2c-1-1.6-1.9-3.2-4.2-6.1 c-4.8-5.7-4.2-6.2-9.1-11.8c-5.2-5.4-5.9-4.6-11.3-9.7c-5.3-5.2-5.6-4.9-11.1-9.8c-2.8-2.5-3.9-3.9-5.1-5.5 c-1.1-1.5-2.3-3.1-5.2-5.4c-3-2.2-4.7-3-6.4-3.8c-1.7-0.8-3.3-1.7-6.5-3.7c-6.2-4-5.3-5.5-11.8-9.2c-3.2-1.9-5.1-2.4-6.9-2.9 c-1.8-0.5-3.7-1-7-2.7c-3.3-1.6-4.9-2.6-6.5-3.7c-1.6-1-3.1-2.2-6.6-3.5c-6.9-2.7-6.8-3-13.9-5.4c-7-2.5-7.1-2.2-14.3-4.3 c-3.6-1.1-5.5-1.2-7.3-1.6c-1.8-0.3-3.7-0.7-7.3-1.4c-3.7-0.7-5.5-1.1-7.3-1.4c-1.8-0.4-3.6-0.7-7.3-1.2c-3.7-0.5-5.5-0.8-7.4-1 c-1.9-0.2-3.7-0.3-7.4-0.6c-3.7-0.4-5.6-0.1-7.5,0c-1.9,0.2-3.7,0.4-7.4,0.2c-3.7,0-5.6-0.3-7.4-0.6c-1.9-0.3-3.7-0.7-7.4-0.4 c-7.4,0.4-7.5-0.3-14.9,0.5c-7.4,0.7-7.3,1.8-14.6,2.9c-7.3,1.3-7.3,1.6-14.5,3.2c-3.6,0.9-5.3,1.6-7.1,2.3c-1.7,0.7-3.5,1.3-7,2.4 c-7.1,2.2-7.2,1.9-14.1,4.5c-7,2.5-7.2,1.9-14.1,4.8c-1.9,0.8-1.8,3.6-0.5,6.4c0,0,3,4,4.8,3.3c6.6-2.8,7-1.7,13.6-4.1 c6.6-2.5,6.9-1.7,13.6-3.8c3.3-1.1,4.9-2.1,6.4-3.1c1.6-1,3.1-2.1,6.6-3c7-1.4,7-1.3,14-2.5c7-1,7.3,0.9,14.3,0.3 c7-0.8,6.9-1.4,14-1.8c7-0.3,7-1.6,14.2-1.7c3.6,0.2,5.3,0.3,7.1,0.3c1.8,0.1,3.6,0.1,7.1,0.5c3.5,0.3,5.3,0.6,7,1 c1.7,0.4,3.5,0.8,7,1.3c3.5,0.5,5.3,0.7,7,1c1.8,0.3,3.5,0.6,7,1.2c6.9,1.6,6.8,2.1,13.6,4c6.8,2,6.7,2.4,13.3,4.7 c6.7,2.2,6.7,2.1,13.3,4.7c6.5,2.8,6.6,2.7,13,5.6c3.1,1.6,4.7,2.5,6.3,3.3c1.6,0.8,3.1,1.7,6.2,3.5c6.2,3.5,6,3.8,11.9,7.6 c3,1.9,4.6,2.6,6.3,3.3c1.7,0.7,3.3,1.4,6.2,3.5c5.5,4.5,5.4,4.7,10.7,9.3c5.3,4.7,5.5,4.5,10.6,9.4c5.2,4.9,3.9,6.1,8.8,11.2 c4.7,5.3,5.2,4.8,9.8,10.2c2.2,2.8,3.1,4.3,4,5.8c1,1.5,1.9,3,3.9,5.9c2,2.9,3.1,4.3,4.2,5.7c1,1.4,2,2.9,3.9,5.9 c3.8,6,3.6,6.1,7.1,12.2c3.3,6.3,3.6,6.1,6.7,12.5c2.7,6.5,3.8,6.1,6.4,12.7c2.4,6.7,0.4,7.4,2.5,14.1c2.2,6.7,2.7,6.5,4.5,13.4 c1.7,6.8,1.5,6.9,3,13.8c1,7,2.4,6.8,3.3,13.8c0.7,7.1,1.6,7,2,14.1c0.4,7.1-2.3,7.2-2.3,14.2c-0.1,7,0.6,7.1,0.3,14.1 c-0.3,3.5-0.2,5.3-0.1,7.1c0.2,1.8,0.3,3.6-0.3,7.1c-0.5,3.5-1,5.2-1.5,7c-0.6,1.7-1.1,3.4-1.8,6.9c-0.6,3.5-0.9,5.2-1.3,7 c-0.3,1.7-0.6,3.5-1.4,6.9c-2,6.8-3,6.5-5.2,13.2c-2.3,6.7-0.1,7.5-2.8,14.1c-2.6,6.6-2.7,6.6-5.6,13.1c-3.2,6.4-5.3,5.3-8.7,11.5 c-3.6,6.1-2,7-5.9,13c-3.8,6-3.3,6.3-7.5,12.1c-4.2,5.7-5.9,4.4-10.3,10c-2.3,2.7-3.4,4.1-4.4,5.5c-1,1.4-2.1,2.9-4.6,5.4 c-2.4,2.6-3.5,4-4.5,5.5c-1.1,1.4-2.2,2.8-4.8,5.3c-2.6,2.5-4,3.6-5.4,4.6c-1.4,1.1-2.9,2.1-5.5,4.4c-5.5,4.4-6.3,3.4-12,7.6 c-2.9,2-4.4,3-5.9,3.9c-0.7,0.5-1.5,1-2.4,1.6c-0.9,0.6-2.1,1.3-3.6,2.2c-3,1.9-4.4,3-5.8,4.1c-1.4,1.1-2.9,2.1-6,3.8 c-6.2,3.5-6,3.8-12.4,6.9c-0.1,0.1-0.2,0.1-0.3,0.2c-1.7,0.5-3.5,0.9-6.8,2.3c-6.5,2.8-6.8,2-13.4,4.5c-3.3,1.3-4.8,2.3-6.3,3.5 c-1.5,1.1-3,2.2-6.4,3.3c-6.9,1.8-6.9,1.7-13.9,3.3c-7,1.4-7.4-0.5-14.3,0.5c-7,1.1-6.9,1.8-13.9,2.6c-3.5,0.4-5.3,0.8-7,1.3 c-1.7,0.5-3.5,0.9-7.1,1.1c-7.1,0-7.1,0.1-14.2-0.1c-7.1-0.3-7.1-0.8-14.1-1.5c-7.1-0.6-7.1-0.6-14.1-1.5c-7-1.2-6.9-1.8-13.8-3.2 c-6.9-1.7-6.8-2-13.6-4.1c-6.8-1.9-6.9-1.7-13.6-4c-6.7-2.4-6.7-2.4-13.3-5c-3.2-1.5-4.8-2.2-6.4-3c-1.6-0.8-3.2-1.5-6.3-3.1 c-3.1-1.6-4.7-2.5-6.2-3.4c-1.5-0.9-3-1.9-6.1-3.7c-3.1-1.7-4.8-2.3-6.5-3c-1.7-0.6-3.4-1.3-6.4-3.2c-5.8-4.1-5.6-4.4-11.2-8.7 c-5.6-4.4-5.8-4.2-11.1-8.9c-5.4-4.6-4.3-5.9-9.4-10.7c-5-5-5.5-4.6-10.3-9.7c-2.3-2.7-3.3-4.2-4.3-5.6c-1-1.5-2-2.9-4.2-5.7 c-4.3-5.6-4.7-5.3-8.7-11.1c-4.1-5.8-3.9-5.9-7.7-11.8c-3.6-6.1-3.9-5.9-7.3-12.1c-3.1-6.4-4.1-5.9-7-12.4c-2.8-6.6-0.8-7.4-3.2-14 c-2.5-6.6-3-6.4-5.2-13.1c-2-6.8-1.9-6.8-3.7-13.6c-0.7-3.5-1.4-5.1-2.1-6.8c-0.7-1.7-1.4-3.3-1.9-6.9c-0.6-3.5-1.1-5.2-1.5-7 c-0.4-1.7-0.8-3.5-1.2-7c-0.4-3.5,0.1-5.4,0.7-7.2c0.5-1.8,1.1-3.6,0.8-7.1c-0.1-3.5-0.3-5.3-0.6-7c-0.2-1.8-0.5-3.5-0.4-7.1 c0.2-7.1-1-7.1-0.4-14.2c0.2-3.6,0.7-5.3,1.2-7c0.5-1.7,0.9-3.5,1.4-7c0.5-3.5,0.8-5.3,0.9-7c0.2-1.8,0.3-3.6,1.1-7 c1.5-6.9,2.6-6.7,4.5-13.5c0.9-3.4,0.9-5.3,0.9-7.1c0-1.9,0-3.7,1.1-7.1c1.2-3.4,1.8-5,2.4-6.7c0.6-1.7,1.1-3.4,2.6-6.7 c2.8-6.6,5-5.6,8.1-11.9c1.5-3.2,2-4.9,2.5-6.7c0.5-1.7,1-3.5,2.7-6.6c1.8-3.1,2.6-4.7,3.4-6.3c0.8-1.6,1.5-3.3,3.5-6.2 c4-5.9,5.6-4.8,9.8-10.5c2.1-2.9,3.1-4.3,4.1-5.8c1-1.5,2-2.9,4.2-5.7c2.3-2.7,3.3-4.1,4.3-5.6c1-1.5,1.9-3.1,4.5-5.5 c5-5.1,5.3-4.8,10.5-9.6c5.2-4.9,6.2-3.7,11.6-8.3c5.6-4.3,5.7-4.2,11.4-8.3c5.9-3.9,5.3-4.8,11.3-8.5c6-3.7,5.8-4.2,12-7.6 c1.7-0.9,0.5-6.3,0.5-6.3C130.6,28.8,128.5,27.8,126.7,28.8z" fill="#040000"/></g><g><g fill="#fff" id="change1_1"><path d="M238.1,78.7c2.8,4.7,2.1,5.1,4.9,9.7c2.8,4.7,2.6,4.8,5.4,9.4c2.8,4.7,2.4,4.9,5.2,9.6 c2.8,4.7,2.8,4.7,5.5,9.3c2.7,4.7,2.7,4.7,5.5,9.4c2.9,4.6,2.9,4.6,5.7,9.2c2.8,4.7,3.6,4.2,6.4,8.8c2.8,4.7,3.1,4.5,5.9,9.1 c2.8,4.7,2,5.1,4.8,9.8c2.8,4.7,3.6,4.2,6.4,8.8c2.9,4.6,2.9,4.6,5.7,9.2c2.8,4.7,2.6,4.8,5.4,9.4c2.8,4.7,3.1,4.5,5.9,9.2 c2.8,4.7,1.4,5.5,4.2,10.2c2.8,4.7,3.9,4,6.7,8.7c2.8,4.7,2.7,4.7,5.5,9.4c2.8,4.7,2.8,4.7,5.5,9.4c0.5,0.9,0.9,1.6,1.3,2.2 c0.6,1,1.1,1.9,1.6,2.8c0.9,1.6,1.6,3,2.6,4.8c-1.1,0.5-3.1,1.5-6,3c-1,0.5-1.8,0.9-2.5,1.3c-0.5,0.2-0.9,0.4-1.3,0.6 c-0.8,0.3-1.4,0.6-2,0.9c-1.2,0.5-2.5,1.1-4.9,2.4c-4.8,2.5-4.1,3.9-8.9,6.4c-4.8,2.5-5.1,2-9.9,4.5c-4.8,2.5-5.1,2-9.9,4.5 c-4.8,2.5-4.8,2.5-9.6,5c-4.8,2.5-5.1,2-9.9,4.6c-4.8,2.5-4.8,2.5-9.6,5c-4.8,2.5-4.3,3.5-9.1,6.1c-4.8,2.5-5.1,1.9-9.9,4.5 c-2.4,1.3-3.6,1.8-4.9,2.4c-0.6,0.3-1.2,0.6-2,0.9c-0.4,0.2-0.8,0.4-1.3,0.6c-0.8,0.4-1.6,0.8-2.6,1.4c-0.5,0.3-1,0.5-1,0.5 c-4.9-2.5-5.2-2.7-10.5-5.4c-4.8-2.5-5-2.2-9.8-4.7c-4.8-2.5-5.2-1.7-10-4.3c-4.8-2.5-4.5-3.2-9.3-5.7c-4.8-2.5-5-2.1-9.8-4.7 c-4.8-2.5-4.4-3.4-9.2-5.9c-4.8-2.5-5-2.2-9.8-4.8c-4.8-2.6-4.8-2.6-9.5-5.2c-4.8-2.5-4.6-3-9.4-5.5c-2.4-1.3-3.8-1.6-5.2-1.8 c-0.7-0.1-1.4-0.3-2.2-0.5c-0.4-0.1-0.9-0.3-1.3-0.5c-0.5-0.2-0.8-0.4-2.2-1.1c-3.8-2-6.1-3.2-7.7-4c1.7-2.9,2.9-4.9,5.8-9.8 c2.8-4.7,4.1-3.9,6.9-8.6c2.8-4.7,1.5-5.4,4.3-10.1c2.8-4.7,3-4.5,5.8-9.2c2.8-4.7,3-4.6,5.7-9.2c2.8-4.7,3.3-4.4,6.1-9 c2.8-4.7,3.1-4.5,5.9-9.1c2.8-4.7,3.1-4.5,5.9-9.2c2.8-4.7,2.1-5.1,4.9-9.7c2.8-4.7,2.4-4.9,5.1-9.6c2.7-4.7,2.7-4.7,5.4-9.4 c2.7-4.7,2.7-4.7,5.5-9.4c2.8-4.7,3.2-4.4,5.9-9.1c2.8-4.7,3-4.5,5.8-9.2c2.8-4.7,3.2-4.4,6-9.1c2.8-4.7,2.6-4.8,5.3-9.5 c2.8-4.7,2.2-5,4.9-9.7c2.8-4.7,3-4.5,5.8-9.2c0.8-1.3,4.8-0.2,4.8-0.2c1.8,1.1,3.5,3.4,2.7,4.7c-2.8,4.7-4.2,3.8-7,8.5 c-2.8,4.7-2.8,4.7-5.6,9.3c-2.8,4.7-2.8,4.7-5.5,9.3c-2.8,4.7-1.4,5.5-4.2,10.2c-2.8,4.7-4,3.9-6.8,8.6c-2.8,4.6-2.8,4.6-5.7,9.3 c-2.8,4.7-3,4.5-5.8,9.2c-2.8,4.7-1.2,5.6-4,10.3c-2.8,4.7-3.1,4.5-5.9,9.1c-2.8,4.7-2.8,4.7-5.6,9.3c-2.8,4.7-3.8,4-6.6,8.7 c-2.8,4.7-2.8,4.7-5.6,9.3c-2.8,4.7-3,4.5-5.8,9.2c-2.8,4.7-2.1,5.1-4.9,9.7c-2.8,4.7-3.5,4.2-6.3,8.9c-2.8,4.7-2.1,5-4.9,9.7 c-2.8,4.7-2.2,5-5,9.7c-0.2,0.3-0.4,0.7-0.6,1l-0.1,0.2c0,0,0,0,0,0l0,0c-0.1,0-0.2,0.1-0.2,0.1c-0.2,0.1-0.4,0.2-0.7,0.4 c-0.1,0.1,0.1,0.4,0.6,0.6c0.4,0.2,0.8,0.4,1.1,0.5c0.5,0.2,0.9,0.4,1.3,0.5c0.8,0.3,1.5,0.5,2.1,0.7c1.3,0.4,2.7,0.7,5.1,2 c4.8,2.5,4.2,3.7,9,6.3c4.8,2.6,4.8,2.6,9.6,5.2c4.8,2.5,5.3,1.6,10.1,4.1c4.8,2.5,4.6,2.8,9.4,5.4c4.8,2.5,4.8,2.5,9.6,5 c4.8,2.5,4.9,2.4,9.7,4.9c4.8,2.5,4.8,2.5,9.6,5c4.8,2.5,4.7,2.7,9.5,5.3c2.3,1.2,3.4,1.9,4.5,2.6c0.6,0.3,1.1,0.7,1.8,1.1 c0.5,0.3,0.3,0.2,0.4,0.3c0.1,0.1,0.2,0.1,0.3,0.2c0,0,0.1,0,0.1-0.1c1.7-0.9,2.6-1.3,3.5-1.7c1.2-0.6,2.4-1.2,4.8-2.5 c4.8-2.5,5.1-1.9,9.9-4.5c4.8-2.5,4.8-2.5,9.6-5c4.8-2.5,4.6-2.9,9.4-5.4c4.8-2.5,4.7-2.8,9.5-5.3c4.8-2.5,4.3-3.4,9.1-6 c4.8-2.5,5-2.3,9.8-4.8c4.8-2.5,4.8-2.5,9.6-5c4.8-2.5,4.9-2.3,9.7-4.8c2.4-1.3,3.7-1.7,5-2.1c0.7-0.2,1.3-0.4,2.1-0.7 c0.4-0.2,0.8-0.3,1.3-0.6c0.2-0.1,0.5-0.2,0.8-0.4c0.6-0.3,0.8-0.5,0.8-0.7c-0.3-0.3-0.6-0.5-0.8-0.7c-0.1-0.1-0.2-0.2-0.3-0.3 c0,0.1-0.2-0.4-0.4-0.6c-0.2-0.3-0.4-0.7-0.6-1c-2.7-4.7-2.7-4.7-5.5-9.4c-2.8-4.7-2.3-5-5.1-9.6c-2.9-4.6-2.9-4.6-5.7-9.2 c-2.8-4.6-2.8-4.6-5.7-9.3c-2.8-4.7-3-4.6-5.8-9.2c-2.8-4.7-2.5-4.9-5.3-9.5c-2.9-4.6-2.9-4.6-5.7-9.2c-2.8-4.7-3.6-4.2-6.4-8.8 c-2.7-4.7-2.7-4.7-5.5-9.4c-2.8-4.7-2.8-4.7-5.5-9.3c-2.8-4.7-3-4.5-5.8-9.2c-2.8-4.7-2.3-5-5.1-9.6c-2.8-4.7-3-4.5-5.8-9.2 c-2.8-4.7-3.3-4.4-6.1-9c-2.8-4.7-2.3-5-5.1-9.6c-2.8-4.7-3.2-4.4-6-9c-2.8-4.7-1.8-5.2-4.6-9.9c-0.8-1.3,1.5-3.7,1.5-3.7 C234.5,78,237.3,77.4,238.1,78.7z" fill="inherit"/><path d="M227.9,297.3c0-1.9,0.8-1.9,0.8-3.9c0-1.9,0.3-1.9,0.3-3.9c0-1.9,0.5-1.9,0.5-3.9c0-1.9,0.1-1.9,0.1-3.9 c0-1.9,0.1-1.9,0.1-3.9c0-1.9-0.1-1.9-0.1-3.9c0-1.9-0.9-1.9-0.9-3.9c0-1.9-0.3-1.9-0.3-3.9c0-1.9,0.9-1.9,0.9-3.9 c0-1.9-1-1.9-1-3.9c0-1.9-0.2-1.9-0.2-3.9c0-1.9,0.2-1.9,0.2-3.9c0-1.9-0.3-1.9-0.3-3.9c0-1.9,1.6-1.9,1.6-3.9 c0-1.9-1.2-1.9-1.2-3.9c0-1.9,0.2-1.9,0.2-3.9s0.1-1.9,0.1-3.9c0-1.9,0.5-1.9,0.5-3.9c0-1.9,0.4-1.9,0.4-3.9 c0-1.9-1.6-1.9-1.6-3.9c0-1.9,0.6-1.9,0.6-3.9c0-1.9,0.6-1.9,0.6-3.9c0-1.9,0.1-1.9,0.1-3.9c0-1.9,0.5-1.9,0.5-3.9 c0-1.9,0.1-1.9,0.1-3.9c0-1.9-1.1-1.9-1.1-3.9c0-1.9,0.7-1.9,0.7-3.9c0-1.9,0.3-1.9,0.3-3.9c0-1.9-0.1-1.9-0.1-3.9 c0-1.9-0.4-1.9-0.4-3.9c0-1.9-0.9-1.9-0.9-3.9s0.7-1.9,0.7-3.9c0-1.9-0.5-1.9-0.5-3.9c0-1.9,0.9-1.9,0.9-3.9 c0-1.9-0.4-1.9-0.4-3.9c0-1.9,0.2-1.9,0.2-3.9c0-1.9,0.5-1.9,0.5-3.9s-1.6-1.9-1.6-3.9c0-1.9-0.1-1.9-0.1-3.9 c0-1.9,1.5-1.9,1.5-3.9c0-1.9-1.5-1.9-1.5-3.9c0-1.9,0.3-1.9,0.3-3.9c0-1.9,0.2-1.9,0.2-3.9c0-1.9,0.6-1.9,0.6-3.9 c0-1.9,0.4-1.9,0.4-3.9c0-1.9,0.3-1.9,0.3-3.9c0-1.9-0.8-1.9-0.8-3.9c0-1.9-0.5-1.9-0.5-3.9c0-1.9-0.2-1.9-0.2-3.9 c0-1.9-0.1-1.9-0.1-3.9c0-1.9,0.4-1.9,0.4-3.9c0-1.9,0.3-1.9,0.3-3.9c0-1.9,0.5-1.9,0.5-3.9s-0.3-1.9-0.3-3.9 c0-1.9-0.7-1.9-0.7-3.9c0-1.9,0.2-1.9,0.2-3.9c0-0.5,4-0.9,4-0.9c2.2,0,4.8,0.4,4.8,0.9c0,1.9-1.6,1.9-1.6,3.9c0,1.9,0,1.9,0,3.9 c0,1.9,0,1.9,0,3.9c0,1.9,1.6,1.9,1.6,3.9c0,1.9-1.4,1.9-1.4,3.9c0,1.9-0.1,1.9-0.1,3.9c0,1.9-0.2,1.9-0.2,3.9 c0,1.9,1.8,1.9,1.8,3.9c0,1.9-0.4,1.9-0.4,3.9c0,1.9,0,1.9,0,3.9c0,1.9-1.2,1.9-1.2,3.9c0,1.9,0,1.9,0,3.9c0,1.9-0.3,1.9-0.3,3.9 c0,1.9,0.8,1.9,0.8,3.9c0,1.9-0.8,1.9-0.8,3.9c0,1.9,0.7,1.9,0.7,3.9s0.7,1.9,0.7,3.9c0,1.9-0.8,1.9-0.8,3.9 c0,1.9,1.2,1.9,1.2,3.9c0,1.9-1.4,1.9-1.4,3.9c0,1.9-0.1,1.9-0.1,3.9c0,1.9,1.1,1.9,1.1,3.9c0,1.9-0.3,1.9-0.3,3.9 c0,1.9,0.1,1.9,0.1,3.9c0,1.9,0.2,1.9,0.2,3.9c0,1.9,0.1,1.9,0.1,3.9c0,1.9-0.2,1.9-0.2,3.9c0,1.9-0.4,1.9-0.4,3.9 c0,1.9-0.2,1.9-0.2,3.9c0,1.9-0.6,1.9-0.6,3.9c0,1.9,0,1.9,0,3.9c0,1.9,0.4,1.9,0.4,3.9c0,1.9,0.3,1.9,0.3,3.9c0,1.9,1,1.9,1,3.9 c0,1.9-0.3,1.9-0.3,3.9c0,1.9,0,1.9,0,3.9s-0.3,1.9-0.3,3.9c0,1.9-0.9,1.9-0.9,3.9c0,1.9,0.8,1.9,0.8,3.9c0,1.9-0.2,1.9-0.2,3.9 c0,1.9-0.6,1.9-0.6,3.9c0,1.9,0.1,1.9,0.1,3.9c0,1.9,0.1,1.9,0.1,3.9c0,1.9,0.2,1.9,0.2,3.9c0,1.9-0.4,1.9-0.4,3.9 c0,1.9,0.1,1.9,0.1,3.9c0,1.9,0.9,1.9,0.9,3.9c0,1.9-0.2,1.9-0.2,3.9c0,1.9-0.1,1.9-0.1,3.9c0,1.9,0.2,1.9,0.2,3.9 c0,1.9-0.6,1.9-0.6,3.9c0,1.9,0.2,1.9,0.2,3.9c0,1.9,0.6,1.9,0.6,3.9c0,1.9-0.6,1.9-0.6,3.9c0,1.9,0.5,1.9,0.5,3.9 c0,1.9-1.1,1.9-1.1,3.9c0,0.5-3.2,0.9-3.2,0.9C230.6,298.2,227.9,297.8,227.9,297.3z" fill="inherit"/><path d="M330,249.6c-1.8-0.8-1.4-1.6-3.2-2.4c-1.8-0.8-1.7-1.1-3.4-1.9c-1.8-0.8-1.6-1.3-3.3-2.1 c-1.8-0.9-1.8-0.9-3.5-1.7c-1.8-0.8-1.7-1-3.5-1.8c-1.8-0.8-1.8-0.7-3.6-1.5c-1.8-0.8-2.2,0-3.9-0.8c-1.8-0.8-1.9-0.5-3.7-1.4 c-1.8-0.8-1.4-1.7-3.1-2.5c-1.8-0.8-2.2,0.1-4-0.8c-1.8-0.8-1.8-0.7-3.6-1.5c-1.8-0.8-1.7-1-3.5-1.8c-1.8-0.8-1.9-0.6-3.7-1.4 c-1.8-0.8-1.1-2.3-2.8-3.2c-1.8-0.8-2.3,0.3-4.1-0.6c-1.8-0.8-1.7-1-3.5-1.8c-1.7-0.9-1.7-0.9-3.5-1.7c-1.8-0.8-1.6-1.3-3.3-2.1 c-1.8-0.8-1.6-1.2-3.4-2c-1.8-0.8-2.4,0.6-4.2-0.3c-1.8-0.8-1.5-1.4-3.3-2.2c-1.8-0.8-1.5-1.4-3.3-2.2c-1.8-0.9-1.8-0.9-3.5-1.7 c-1.8-0.8-1.5-1.3-3.3-2.2c-1.8-0.9-1.8-0.9-3.5-1.7c-1.8-0.8-2.3,0.2-4-0.6c-1.8-0.8-1.5-1.4-3.2-2.3c-0.4-0.2-0.8-0.4-1-0.5 c-0.3-0.2-0.5-0.3-0.5-0.4c-0.1-0.1-0.3-0.3-0.6-0.5l0,0c-0.7,0.3-0.2,0.2-2.1,1.1c-1.8,0.8-1.6,1.2-3.4,2 c-1.8,0.8-1.4,1.7-3.1,2.5c-1.8,0.8-2.1,0.2-3.8,1c-1.8,0.8-1.6,1.3-3.3,2.1c-1.8,0.8-2.2,0-3.9,0.8c-1.8,0.8-1.6,1.2-3.4,2 c-1.8,0.8-1.8,0.7-3.6,1.5c-1.8,0.8-2,0.4-3.7,1.2c-1.8,0.8-1.1,2.3-2.9,3.1c-1.7,0.9-1.7,0.9-3.5,1.7c-1.8,0.8-2.4-0.5-4.2,0.3 c-1.8,0.8-1.1,2.2-2.9,3c-1.8,0.8-1.9,0.6-3.7,1.4c-1.8,0.8-1.9,0.6-3.6,1.5c-1.8,0.8-2,0.3-3.8,1.1s-1.9,0.5-3.7,1.3 c-1.8,0.8-1.9,0.5-3.7,1.4c-1.8,0.8-1.4,1.5-3.2,2.4c-1.8,0.8-1.6,1.3-3.3,2.1c-1.8,0.8-1.7,1-3.5,1.8c-1.7,0.9-1.7,0.9-3.5,1.7 c-1.8,0.8-2,0.4-3.7,1.3c-1.8,0.8-1.9,0.6-3.6,1.4c-1.8,0.8-2,0.4-3.7,1.2c-1.8,0.8-1.7,1.1-3.4,1.9c-1.8,0.8-1.5,1.5-3.2,2.3 c-1.8,0.8-1.9,0.6-3.6,1.4c-0.5,0.2-2.6-3.2-2.6-3.2c-0.9-1.9-1.7-4.5-1.2-4.7c1.8-0.8,2.5,0.6,4.2-0.2c1.8-0.8,1.8-0.8,3.5-1.7 c1.8-0.8,1.8-0.8,3.5-1.7c1.8-0.8,1.1-2.3,2.8-3.1c1.8-0.8,2.4,0.5,4.1-0.4c1.8-0.8,1.8-0.7,3.6-1.5c1.8-0.8,1.9-0.6,3.6-1.5 c1.8-0.8,1-2.5,2.7-3.3c1.8-0.8,1.9-0.5,3.7-1.3c1.8-0.8,1.8-0.8,3.5-1.7c1.8-0.8,2.3,0.3,4-0.6c1.8-0.8,1.8-0.8,3.5-1.6 c1.8-0.8,1.9-0.6,3.6-1.4c1.8-0.8,1.4-1.6,3.2-2.4c1.8-0.8,2.1-0.1,3.9-0.9c1.8-0.8,1.4-1.5,3.2-2.3c1.8-0.8,1.5-1.4,3.2-2.3 c1.8-0.8,2.1-0.1,3.9-1c1.8-0.8,1.2-1.9,3-2.8c1.8-0.8,2.3,0.4,4.1-0.4c1.8-0.8,1.8-0.8,3.6-1.6c1.8-0.8,1.3-1.8,3.1-2.6 c1.8-0.8,1.9-0.5,3.7-1.4c1.8-0.9,1.8-0.9,3.5-1.7c1.8-0.8,1.7-1,3.5-1.8c1.7-0.9,1.7-0.9,3.5-1.8c1.8-0.8,1.9-0.6,3.6-1.5 c1.5-0.7,2.3-0.7,5.3-2.1c0,0,0,0,0,0c1.6,0.8,2.4,1.2,3.2,1.6c0.3,0.2,0.6,0.3,0.9,0.5c0.3,0.1,0.6,0.3,1,0.5 c1.8,0.8,1.5,1.4,3.3,2.3c1.8,0.9,1.8,0.9,3.5,1.7c1.8,0.8,1.9,0.4,3.7,1.3c1.8,0.8,1.9,0.6,3.7,1.4c1.8,0.8,2.2-0.1,4,0.7 c1.8,0.8,1.6,1.1,3.4,1.9c1.8,0.9,1.8,0.9,3.5,1.7c1.8,0.8,1.7,1.1,3.4,1.9c1.8,0.8,1.4,1.7,3.1,2.5c1.8,0.8,2.1,0.2,3.9,1 c1.8,0.8,1.7,1,3.5,1.8c1.8,0.8,1.5,1.4,3.3,2.2c1.8,0.8,1.8,0.7,3.6,1.5c1.8,0.8,1.8,0.8,3.6,1.6c1.8,0.8,1.8,0.7,3.6,1.5 c1.8,0.8,1.6,1.2,3.4,2c1.8,0.8,1.8,0.7,3.6,1.5c1.8,0.8,2.2,0,3.9,0.8c1.8,0.8,1.7,1,3.5,1.8c1.8,0.9,1.8,0.9,3.5,1.7 c1.8,0.8,1.9,0.6,3.6,1.5c1.8,0.8,1.5,1.4,3.3,2.2c1.8,0.8,1.9,0.6,3.6,1.5c1.8,0.8,2,0.3,3.8,1.1c1.8,0.8,1.5,1.4,3.3,2.2 c1.8,0.8,2,0.4,3.8,1.2c1.8,0.8,1.3,1.8,3.1,2.7c0.5,0.2-0.6,3.3-0.6,3.3C331.9,247.5,330.5,249.8,330,249.6z" fill="inherit"/><path d="M137.6,262.4c4.3,2.4,3.9,3.1,8.2,5.4c4.3,2.4,4.2,2.6,8.5,4.9c4.3,2.4,4.1,2.8,8.4,5.1 c4.3,2.4,4.3,2.4,8.6,4.8c4.3,2.4,4.3,2.4,8.6,4.8c4.4,2.3,4.4,2.3,8.7,4.6c4.3,2.4,4.8,1.5,9.1,3.9c4.3,2.4,4.5,2,8.8,4.4 c4.3,2.4,3.9,3.2,8.2,5.5c4.3,2.4,4.8,1.5,9.1,3.8c4.3,2.3,4.4,2.2,8.7,4.5c0,0,0.1,0.1,0.1,0.1l0.1,0l0,0l0.6-0.3 c0.9-0.5,2-1,3.6-1.8c4.4-2.3,4.2-2.6,8.6-4.9c4.4-2.3,5.1-0.9,9.5-3.2c4.4-2.3,3.8-3.4,8.1-5.7c4.4-2.3,4.4-2.1,8.8-4.5 c4.4-2.3,4.4-2.3,8.7-4.5c4.4-2.3,4.6-1.9,8.9-4.2c4.4-2.3,4.5-2,8.9-4.3c4.4-2.3,3.6-3.7,8-6c2.2-1.2,3.3-1.6,4.5-2 c0.3-0.1,0.6-0.2,0.9-0.3c0.2-0.1,0.3-0.1,0.5-0.2c0.3-0.1,0.6-0.3,0.9-0.4c1.3-0.6,2.8-1.4,4.9-2.5c6.7-3.5,7.6-3.5,12.4-5.9 c0,0.1,0.3,0.2,0.7,0.3c2,0.6,2,0.6,4.1,1.2c0,0,0,0,0,0.1c0.2,2.1-0.4,2.5-0.8,4.9c-0.1,0.4-0.1,0.7-0.1,0.8 c-3.6,4.5-4.2,5.3-8.4,10.6c-1.2,1.6-2.1,2.7-2.8,3.8c-0.2,0.3-0.3,0.5-0.4,0.6c-0.1,0.2-0.2,0.3-0.2,0.5 c-0.1,0.3-0.3,0.6-0.4,0.9c-0.5,1.1-1.1,2.3-2.6,4.2c-3.1,3.9-3.6,3.4-6.6,7.3c-3.1,3.9-3.3,3.6-6.4,7.5c-3,3.9-3,3.9-6,7.8 c-3.1,3.9-2.7,4.1-5.8,8c-3.1,3.9-2.3,4.4-5.4,8.3c-3.1,3.9-3.6,3.4-6.7,7.3c-3.1,3.9-2.7,4.2-5.7,8c-3.1,3.9-3.8,3.3-6.8,7.2 c-3.1,3.9-2.8,4.1-5.8,8c-3.1,3.8-3.1,3.8-6.2,7.6c-3.1,3.9-3.4,3.6-6.5,7.4c-3.1,3.9-1.8,4.9-4.9,8.7c-3,3.9-3,3.9-6,7.8 c-0.4,0.5-0.8,1-1.2,1.4c-0.5,0.6-0.9,1.1-1.3,1.5c-0.8,0.9-1.5,1.6-2.1,2.2c-1.2,1.1-2.2,1.8-3.4,3c-0.8-1.3-1.7-2.7-3-4.3 c-1.2-1.6-2.2-2.8-3.1-3.7c-0.5-0.6-0.7-0.6-1-0.9c-0.3-0.2-0.5-0.4-0.8-0.6c-1-0.7-2.1-1.5-3.6-3.4c-3-3.9-2.8-4.1-5.8-8 c-3-3.9-2.8-4-5.8-7.9c-3-3.9-2.5-4.3-5.5-8.2c-3-3.9-2.7-4.1-5.7-8c-3-3.9-2.7-4.1-5.7-8c-3-3.9-3.6-3.4-6.6-7.3 c-3-3.9-3.4-3.6-6.4-7.5c-3.1-3.9-3.1-3.9-6.1-7.7c-3-3.9-3-3.9-6.1-7.7c-3-3.9-2.7-4.2-5.7-8.1c-3-3.9-2.8-4.1-5.8-8 c-3-3.9-2.6-4.2-5.6-8.1c-3-3.9-3.2-3.7-6.2-7.6c-3-3.9-3.6-3.5-6.6-7.4c-3-3.9-2.8-4.1-5.8-8c-0.8-1.1,1.7-4.3,1.7-4.3 c1.7-1.3,4.4-2.1,5.2-1c3,3.9,1.7,4.9,4.7,8.8c3,3.9,3,3.9,6,7.8c3,3.9,3,3.9,6,7.8c3,3.9,4.3,2.9,7.3,6.8c3,3.9,1.9,4.8,4.9,8.7 c2.9,3.9,2.9,3.9,5.9,7.9c3,3.9,2.8,4,5.8,7.9c3,3.9,4.5,2.8,7.5,6.7c3,3.9,2.7,4.1,5.7,8c3,3.9,3,3.9,6,7.8c3,3.9,2,4.6,5,8.5 c3,3.9,3,3.9,6,7.8c3,3.9,2.8,4.1,5.8,8c3,3.9,3.6,3.4,6.6,7.3c3,3.9,2.3,4.4,5.3,8.3c1.5,2,2.4,2.8,3.3,3.7 c0.2,0.2,0.4,0.4,0.7,0.7c0.1,0.1,0.2,0.2,0.4,0.4l0.2,0.2l0.1,0c0.2,0.1,0.3,0.2,0.5,0.5c0.2,0.3,0.4,0.4,0.4,0.3 c0.1-0.3,0.2-0.6,0.3-0.9c0-0.1,0-0.2,0.1-0.3l0-0.1l0-0.1c0.1-0.2,0.2-0.3,0.4-0.5c3.1-3.9,3.7-3.4,6.7-7.2 c3.1-3.9,2.1-4.6,5.1-8.5c3.1-3.9,4.1-3,7.2-6.9c3.1-3.8,3.1-3.8,6.2-7.7c3.1-3.9,2.2-4.5,5.3-8.4c3.1-3.9,3.3-3.6,6.4-7.5 c3-3.9,3-3.9,6-7.8c3.1-3.9,2.9-4,6-7.8c3-3.9,3-3.9,6-7.8c3.1-3.9,3.2-3.7,6.3-7.6c3.1-3.9,3.3-3.6,6.4-7.5 c3.1-3.8,3.1-3.8,6.2-7.6c3.1-3.9,3.6-3.5,6.6-7.3c2.5-3.1,2.5-3.1,4.9-6.1c1-1.3,0.6-1.3,1-2c0,0,0.1-0.1,0.2-0.3 c0.9-1.1,0-0.5,0.7-1.3c0,0,0,0,0,0c-0.5,0.3-1.6,1.2-2.4,1.9c-0.9,0.7-1.5,1.3-1.5,1.3s0,0,0,0c0.1-0.1,0.2-0.4-0.1-0.3 c-2.9,1.5-2.9,1.5-5.9,3c-4.4,2.3-4.5,2.1-8.8,4.4c-4.4,2.3-4.8,1.5-9.1,3.8c-4.4,2.3-4,3-8.3,5.3c-4.4,2.2-4.4,2.2-8.8,4.5 c-4.4,2.3-4.6,1.8-9,4.1c-4.3,2.4-4.3,2.4-8.6,4.7c-4.3,2.3-4.3,2.3-8.7,4.7c-4.4,2.3-4.3,2.5-8.6,4.8c-1.6,0.9-2.7,1.3-3.6,1.8 l-0.7,0.3c-0.4,0.2-0.8,0.4-1.2,0.6c-0.8,0.4-1.6,0.8-2.7,1.3c-0.5-0.3-1.8-1.1-3.7-2.1c-4.4-2.3-4.4-2.3-8.8-4.6 c-4.3-2.4-4.8-1.5-9.1-3.9c-4.3-2.4-4.3-2.4-8.6-4.8c-4.3-2.4-4.3-2.4-8.6-4.8c-4.3-2.4-4.4-2.2-8.8-4.5c-4.3-2.4-4-2.9-8.4-5.2 c-4.3-2.4-4.4-2.2-8.8-4.5c-4.3-2.4-4.6-1.8-8.9-4.2c-4.3-2.4-4-2.9-8.4-5.2c-4.3-2.4-4.6-1.9-8.9-4.2s-3.8-3.3-8.1-5.7 c-1.2-0.6-0.4-3.9-0.4-3.9C134.4,263.7,136.4,261.8,137.6,262.4z" fill="inherit"/><path d="M227.9,394.4c0-0.7,0.8-0.7,0.8-1.3c0-0.7,0.3-0.7,0.3-1.3c0-0.7,0.5-0.7,0.5-1.3s0.1-0.7,0.1-1.3 c0-0.7,0.1-0.7,0.1-1.3s-0.1-0.7-0.1-1.3c0-0.7-0.9-0.7-0.9-1.3c0-0.7-0.3-0.7-0.3-1.3c0-0.7,0.9-0.7,0.9-1.3c0-0.7-1-0.7-1-1.3 c0-0.7-0.2-0.7-0.2-1.3c0-0.7,0.2-0.7,0.2-1.3c0-0.7-0.3-0.7-0.3-1.3c0-0.7,1.6-0.7,1.6-1.3c0-0.7-1.2-0.7-1.2-1.3 c0-0.7,0.2-0.7,0.2-1.3c0-0.7,0.1-0.7,0.1-1.3s0.5-0.7,0.5-1.3c0-0.7,0.4-0.7,0.4-1.3c0-0.7-1.6-0.7-1.6-1.3 c0-0.7,0.6-0.7,0.6-1.3c0-0.7,0.6-0.7,0.6-1.3s0.1-0.7,0.1-1.3s0.5-0.7,0.5-1.3c0-0.7,0.1-0.7,0.1-1.3c0-0.7-1.1-0.7-1.1-1.3 c0-0.7,0.7-0.7,0.7-1.3c0-0.7,0.3-0.7,0.3-1.3c0-0.7-0.1-0.7-0.1-1.3c0-0.7-0.4-0.7-0.4-1.3s-0.9-0.7-0.9-1.3 c0-0.7,0.7-0.7,0.7-1.3s-0.5-0.7-0.5-1.3c0-0.7,0.9-0.7,0.9-1.3c0-0.7-0.4-0.7-0.4-1.3c0-0.7,0.2-0.7,0.2-1.3 c0-0.7,0.5-0.7,0.5-1.3c0-0.7-1.6-0.7-1.6-1.3c0-0.7-0.1-0.7-0.1-1.3s1.5-0.7,1.5-1.3c0-0.7-1.5-0.7-1.5-1.3 c0-0.7,0.3-0.7,0.3-1.3c0-0.7,0.2-0.7,0.2-1.3c0-0.7,0.6-0.7,0.6-1.3c0-0.7,0.4-0.7,0.4-1.3s0.3-0.7,0.3-1.3s-0.8-0.7-0.8-1.3 c0-0.7-0.5-0.7-0.5-1.3s-0.2-0.7-0.2-1.3c0-0.7-0.1-0.7-0.1-1.3c0-0.7,0.4-0.7,0.4-1.3c0-0.7,0.3-0.7,0.3-1.3 c0-0.7,0.5-0.7,0.5-1.3c0-0.7-0.3-0.7-0.3-1.3c0-0.7-0.7-0.7-0.7-1.3s0.2-0.7,0.2-1.3c0-0.2,4-0.3,4-0.3c2.2,0,4.8,0.1,4.8,0.3 c0,0.7-1.6,0.7-1.6,1.3s0,0.7,0,1.3c0,0.7,0,0.7,0,1.3s1.6,0.7,1.6,1.3c0,0.7-1.4,0.7-1.4,1.3c0,0.7-0.1,0.7-0.1,1.3 s-0.2,0.7-0.2,1.3c0,0.7,1.8,0.7,1.8,1.3s-0.4,0.7-0.4,1.3c0,0.7,0,0.7,0,1.3c0,0.7-1.2,0.7-1.2,1.3c0,0.7,0,0.7,0,1.3 c0,0.7-0.3,0.7-0.3,1.3c0,0.7,0.8,0.7,0.8,1.3c0,0.7-0.8,0.7-0.8,1.3c0,0.7,0.7,0.7,0.7,1.3c0,0.7,0.7,0.7,0.7,1.3 c0,0.7-0.8,0.7-0.8,1.3c0,0.7,1.2,0.7,1.2,1.3c0,0.7-1.4,0.7-1.4,1.3c0,0.7-0.1,0.7-0.1,1.3c0,0.7,1.1,0.7,1.1,1.3 c0,0.7-0.3,0.7-0.3,1.3c0,0.7,0.1,0.7,0.1,1.3c0,0.7,0.2,0.7,0.2,1.3c0,0.7,0.1,0.7,0.1,1.3c0,0.7-0.2,0.7-0.2,1.3 c0,0.7-0.4,0.7-0.4,1.3c0,0.7-0.2,0.7-0.2,1.3c0,0.7-0.6,0.7-0.6,1.3c0,0.7,0,0.7,0,1.3c0,0.7,0.4,0.7,0.4,1.3 c0,0.7,0.3,0.7,0.3,1.3c0,0.7,1,0.7,1,1.3c0,0.7-0.3,0.7-0.3,1.3c0,0.7,0,0.7,0,1.3c0,0.7-0.3,0.7-0.3,1.3c0,0.7-0.9,0.7-0.9,1.3 c0,0.7,0.8,0.7,0.8,1.3c0,0.7-0.2,0.7-0.2,1.3s-0.6,0.7-0.6,1.3c0,0.7,0.1,0.7,0.1,1.3c0,0.7,0.1,0.7,0.1,1.3s0.2,0.7,0.2,1.3 c0,0.7-0.4,0.7-0.4,1.3c0,0.7,0.1,0.7,0.1,1.3c0,0.7,0.9,0.7,0.9,1.3c0,0.7-0.2,0.7-0.2,1.3c0,0.7-0.1,0.7-0.1,1.3 c0,0.7,0.2,0.7,0.2,1.3s-0.6,0.7-0.6,1.3s0.2,0.7,0.2,1.3c0,0.7,0.6,0.7,0.6,1.3s-0.6,0.7-0.6,1.3c0,0.7,0.5,0.7,0.5,1.3 c0,0.7-1.1,0.7-1.1,1.3c0,0.2-3.2,0.3-3.2,0.3C230.6,394.7,227.9,394.6,227.9,394.4z" fill="inherit"/></g><g fill="#c38f41" id="change5_2"><path d="M242.9,84.4c2.8,4.7,2.1,5.1,4.9,9.7c2.8,4.7,2.6,4.8,5.4,9.4c2.8,4.7,2.4,4.9,5.2,9.6 c2.8,4.7,2.8,4.7,5.5,9.3c2.7,4.7,2.7,4.7,5.5,9.4c2.9,4.6,2.9,4.6,5.7,9.2c2.8,4.7,3.6,4.2,6.4,8.8c2.8,4.7,3.1,4.5,5.9,9.1 c2.8,4.7,2,5.1,4.8,9.8c2.8,4.7,3.6,4.2,6.4,8.8c2.9,4.6,2.9,4.6,5.7,9.2c2.8,4.7,2.6,4.8,5.4,9.4c2.8,4.7,3.1,4.5,5.9,9.2 c2.8,4.7,1.4,5.5,4.2,10.2c2.8,4.7,3.9,4,6.7,8.7c2.8,4.7,2.7,4.7,5.5,9.4c2.8,4.7,2.8,4.7,5.5,9.4c0.5,0.9,0.9,1.6,1.3,2.2 c0.6,1,1.1,1.9,1.6,2.8c0.9,1.6,1.6,3,2.6,4.8c-1.1,0.5-3.1,1.5-6,3c-1,0.5-1.8,0.9-2.5,1.3c-0.5,0.2-0.9,0.4-1.3,0.6 c-0.8,0.3-1.4,0.6-2,0.9c-1.2,0.5-2.5,1.1-4.9,2.4c-4.8,2.5-4.1,3.9-8.9,6.4c-4.8,2.5-5.1,2-9.9,4.5c-4.8,2.5-5.1,2-9.9,4.5 c-4.8,2.5-4.8,2.5-9.6,5c-4.8,2.5-5.1,2-9.9,4.6c-4.8,2.5-4.8,2.5-9.6,5c-4.8,2.5-4.3,3.5-9.1,6.1c-4.8,2.5-5.1,1.9-9.9,4.5 c-2.4,1.3-3.6,1.8-4.9,2.4c-0.6,0.3-1.2,0.6-2,0.9c-0.4,0.2-0.8,0.4-1.3,0.6c-0.8,0.4-1.6,0.8-2.6,1.4c-0.5,0.3-1,0.5-1,0.5 c-4.9-2.5-5.2-2.7-10.5-5.4c-4.8-2.5-5-2.2-9.8-4.7c-4.8-2.5-5.2-1.7-10-4.3c-4.8-2.5-4.5-3.2-9.3-5.7c-4.8-2.5-5-2.1-9.8-4.7 c-4.8-2.5-4.4-3.4-9.2-5.9c-4.8-2.5-5-2.2-9.8-4.8c-4.8-2.6-4.8-2.6-9.5-5.2c-4.8-2.5-4.6-3-9.4-5.5c-2.4-1.3-3.8-1.6-5.2-1.8 c-0.7-0.1-1.4-0.3-2.2-0.5c-0.4-0.1-0.9-0.3-1.3-0.5c-0.5-0.2-0.8-0.4-2.2-1.1c-3.8-2-6.1-3.2-7.7-4c1.7-2.9,2.9-4.9,5.8-9.8 c2.8-4.7,4.1-3.9,6.9-8.6c2.8-4.7,1.5-5.4,4.3-10.1c2.8-4.7,3-4.5,5.8-9.2c2.8-4.7,3-4.6,5.7-9.2c2.8-4.7,3.3-4.4,6.1-9 c2.8-4.7,3.1-4.5,5.9-9.1c2.8-4.7,3.1-4.5,5.9-9.2c2.8-4.7,2.1-5.1,4.9-9.7c2.8-4.7,2.4-4.9,5.1-9.6c2.7-4.7,2.7-4.7,5.4-9.4 c2.7-4.7,2.7-4.7,5.5-9.4c2.8-4.7,3.2-4.4,5.9-9.1c2.8-4.7,3-4.5,5.8-9.2c2.8-4.7,3.2-4.4,6-9.1c2.8-4.7,2.6-4.8,5.3-9.5 c2.8-4.7,2.2-5,4.9-9.7c2.8-4.7,3-4.5,5.8-9.2c0.8-1.3,4.8-0.2,4.8-0.2c1.8,1.1,3.5,3.4,2.7,4.7c-2.8,4.7-4.2,3.8-7,8.5 c-2.8,4.7-2.8,4.7-5.6,9.3c-2.8,4.7-2.8,4.7-5.5,9.3c-2.8,4.7-1.4,5.5-4.2,10.2c-2.8,4.7-4,3.9-6.8,8.6c-2.8,4.6-2.8,4.6-5.7,9.3 c-2.8,4.7-3,4.5-5.8,9.2c-2.8,4.7-1.2,5.6-4,10.3c-2.8,4.7-3.1,4.5-5.9,9.1c-2.8,4.7-2.8,4.7-5.6,9.3c-2.8,4.7-3.8,4-6.6,8.7 c-2.8,4.7-2.8,4.7-5.6,9.3c-2.8,4.7-3,4.5-5.8,9.2c-2.8,4.7-2.1,5.1-4.9,9.7c-2.8,4.7-3.5,4.2-6.3,8.9c-2.8,4.7-2.1,5-4.9,9.7 c-2.8,4.7-2.2,5-5,9.7c-0.2,0.3-0.4,0.7-0.6,1l-0.1,0.2c0,0,0,0,0,0l0,0c-0.1,0-0.2,0.1-0.2,0.1c-0.2,0.1-0.4,0.2-0.7,0.4 c-0.1,0.1,0.1,0.4,0.6,0.6c0.4,0.2,0.8,0.4,1.1,0.5c0.5,0.2,0.9,0.4,1.3,0.5c0.8,0.3,1.5,0.5,2.1,0.7c1.3,0.4,2.7,0.7,5.1,2 c4.8,2.5,4.2,3.7,9,6.3c4.8,2.6,4.8,2.6,9.6,5.2c4.8,2.5,5.3,1.6,10.1,4.1c4.8,2.5,4.6,2.8,9.4,5.4c4.8,2.5,4.8,2.5,9.6,5 c4.8,2.5,4.9,2.4,9.7,4.9c4.8,2.5,4.8,2.5,9.6,5c4.8,2.5,4.7,2.7,9.5,5.3c2.3,1.2,3.4,1.9,4.5,2.6c0.6,0.3,1.1,0.7,1.8,1.1 c0.5,0.3,0.3,0.2,0.4,0.3c0.1,0.1,0.2,0.1,0.3,0.2c0,0,0.1,0,0.1-0.1c1.7-0.9,2.6-1.3,3.5-1.7c1.2-0.6,2.4-1.2,4.8-2.5 c4.8-2.5,5.1-1.9,9.9-4.5c4.8-2.5,4.8-2.5,9.6-5c4.8-2.5,4.6-2.9,9.4-5.4c4.8-2.5,4.7-2.8,9.5-5.3c4.8-2.5,4.3-3.4,9.1-6 c4.8-2.5,5-2.3,9.8-4.8c4.8-2.5,4.8-2.5,9.6-5c4.8-2.5,4.9-2.3,9.7-4.8c2.4-1.3,3.7-1.7,5-2.1c0.7-0.2,1.3-0.4,2.1-0.7 c0.4-0.2,0.8-0.3,1.3-0.6c0.2-0.1,0.5-0.2,0.8-0.4c0.6-0.3,0.8-0.5,0.8-0.7c-0.3-0.3-0.6-0.5-0.8-0.7c-0.1-0.1-0.2-0.2-0.3-0.3 c0,0.1-0.2-0.4-0.4-0.6c-0.2-0.3-0.4-0.7-0.6-1c-2.7-4.7-2.7-4.7-5.5-9.4c-2.8-4.7-2.3-5-5.1-9.6c-2.9-4.6-2.9-4.6-5.7-9.2 c-2.8-4.6-2.8-4.6-5.7-9.3c-2.8-4.7-3-4.6-5.8-9.2c-2.8-4.7-2.5-4.9-5.3-9.5c-2.9-4.6-2.9-4.6-5.7-9.2c-2.8-4.7-3.6-4.2-6.4-8.8 c-2.7-4.7-2.7-4.7-5.5-9.4c-2.8-4.7-2.8-4.7-5.5-9.3c-2.8-4.7-3-4.5-5.8-9.2c-2.8-4.7-2.3-5-5.1-9.6c-2.8-4.7-3-4.5-5.8-9.2 c-2.8-4.7-3.3-4.4-6.1-9c-2.8-4.7-2.3-5-5.1-9.6c-2.8-4.7-3.2-4.4-6-9c-2.8-4.7-1.8-5.2-4.6-9.9c-0.8-1.3,1.5-3.7,1.5-3.7 C239.4,83.7,242.2,83.1,242.9,84.4z" fill="inherit"/><path d="M232.7,303c0-1.9,0.8-1.9,0.8-3.9c0-1.9,0.3-1.9,0.3-3.9c0-1.9,0.5-1.9,0.5-3.9s0.1-1.9,0.1-3.9 c0-1.9,0.1-1.9,0.1-3.9c0-1.9-0.1-1.9-0.1-3.9c0-1.9-0.9-1.9-0.9-3.9c0-1.9-0.3-1.9-0.3-3.9c0-1.9,0.9-1.9,0.9-3.9 c0-1.9-1-1.9-1-3.9c0-1.9-0.2-1.9-0.2-3.9c0-1.9,0.2-1.9,0.2-3.9c0-1.9-0.3-1.9-0.3-3.9c0-1.9,1.6-1.9,1.6-3.9 c0-1.9-1.2-1.9-1.2-3.9c0-1.9,0.2-1.9,0.2-3.9s0.1-1.9,0.1-3.9c0-1.9,0.5-1.9,0.5-3.9c0-1.9,0.4-1.9,0.4-3.9s-1.6-1.9-1.6-3.9 c0-1.9,0.6-1.9,0.6-3.9c0-1.9,0.6-1.9,0.6-3.9c0-1.9,0.1-1.9,0.1-3.9c0-1.9,0.5-1.9,0.5-3.9c0-1.9,0.1-1.9,0.1-3.9 c0-1.9-1.1-1.9-1.1-3.9c0-1.9,0.7-1.9,0.7-3.9c0-1.9,0.3-1.9,0.3-3.9c0-1.9-0.1-1.9-0.1-3.9c0-1.9-0.4-1.9-0.4-3.9 c0-1.9-0.9-1.9-0.9-3.9s0.7-1.9,0.7-3.9c0-1.9-0.5-1.9-0.5-3.9c0-1.9,0.9-1.9,0.9-3.9c0-1.9-0.4-1.9-0.4-3.9 c0-1.9,0.2-1.9,0.2-3.9c0-1.9,0.5-1.9,0.5-3.9c0-1.9-1.6-1.9-1.6-3.9c0-1.9-0.1-1.9-0.1-3.9c0-1.9,1.5-1.9,1.5-3.9 c0-1.9-1.5-1.9-1.5-3.9c0-1.9,0.3-1.9,0.3-3.9c0-1.9,0.2-1.9,0.2-3.9c0-1.9,0.6-1.9,0.6-3.9s0.4-1.9,0.4-3.9 c0-1.9,0.3-1.9,0.3-3.9c0-1.9-0.8-1.9-0.8-3.9c0-1.9-0.5-1.9-0.5-3.9c0-1.9-0.2-1.9-0.2-3.9c0-1.9-0.1-1.9-0.1-3.9 c0-1.9,0.4-1.9,0.4-3.9c0-1.9,0.3-1.9,0.3-3.9c0-1.9,0.5-1.9,0.5-3.9s-0.3-1.9-0.3-3.9c0-1.9-0.7-1.9-0.7-3.9 c0-1.9,0.2-1.9,0.2-3.9c0-0.5,4-0.9,4-0.9c2.2,0,4.8,0.4,4.8,0.9c0,1.9-1.6,1.9-1.6,3.9c0,1.9,0,1.9,0,3.9c0,1.9,0,1.9,0,3.9 s1.6,1.9,1.6,3.9c0,1.9-1.4,1.9-1.4,3.9c0,1.9-0.1,1.9-0.1,3.9c0,1.9-0.2,1.9-0.2,3.9c0,1.9,1.8,1.9,1.8,3.9 c0,1.9-0.4,1.9-0.4,3.9c0,1.9,0,1.9,0,3.9c0,1.9-1.2,1.9-1.2,3.9c0,1.9,0,1.9,0,3.9c0,1.9-0.3,1.9-0.3,3.9c0,1.9,0.8,1.9,0.8,3.9 c0,1.9-0.8,1.9-0.8,3.9c0,1.9,0.7,1.9,0.7,3.9s0.7,1.9,0.7,3.9c0,1.9-0.8,1.9-0.8,3.9c0,1.9,1.2,1.9,1.2,3.9 c0,1.9-1.4,1.9-1.4,3.9c0,1.9-0.1,1.9-0.1,3.9c0,1.9,1.1,1.9,1.1,3.9c0,1.9-0.3,1.9-0.3,3.9s0.1,1.9,0.1,3.9 c0,1.9,0.2,1.9,0.2,3.9c0,1.9,0.1,1.9,0.1,3.9c0,1.9-0.2,1.9-0.2,3.9c0,1.9-0.4,1.9-0.4,3.9c0,1.9-0.2,1.9-0.2,3.9 c0,1.9-0.6,1.9-0.6,3.9c0,1.9,0,1.9,0,3.9c0,1.9,0.4,1.9,0.4,3.9c0,1.9,0.3,1.9,0.3,3.9c0,1.9,1,1.9,1,3.9c0,1.9-0.3,1.9-0.3,3.9 c0,1.9,0,1.9,0,3.9c0,1.9-0.3,1.9-0.3,3.9c0,1.9-0.9,1.9-0.9,3.9s0.8,1.9,0.8,3.9c0,1.9-0.2,1.9-0.2,3.9c0,1.9-0.6,1.9-0.6,3.9 c0,1.9,0.1,1.9,0.1,3.9c0,1.9,0.1,1.9,0.1,3.9c0,1.9,0.2,1.9,0.2,3.9c0,1.9-0.4,1.9-0.4,3.9s0.1,1.9,0.1,3.9s0.9,1.9,0.9,3.9 c0,1.9-0.2,1.9-0.2,3.9c0,1.9-0.1,1.9-0.1,3.9s0.2,1.9,0.2,3.9c0,1.9-0.6,1.9-0.6,3.9c0,1.9,0.2,1.9,0.2,3.9 c0,1.9,0.6,1.9,0.6,3.9c0,1.9-0.6,1.9-0.6,3.9c0,1.9,0.5,1.9,0.5,3.9c0,1.9-1.1,1.9-1.1,3.9c0,0.5-3.2,0.9-3.2,0.9 C235.4,303.8,232.7,303.5,232.7,303z" fill="inherit"/><path d="M334.8,255.3c-1.8-0.8-1.4-1.6-3.2-2.4c-1.8-0.8-1.7-1.1-3.4-1.9c-1.8-0.8-1.6-1.3-3.3-2.1 c-1.8-0.9-1.8-0.9-3.5-1.7c-1.8-0.8-1.7-1-3.5-1.8c-1.8-0.8-1.8-0.7-3.6-1.5c-1.8-0.8-2.2,0-3.9-0.8c-1.8-0.8-1.9-0.5-3.7-1.4 c-1.8-0.8-1.4-1.7-3.1-2.5c-1.8-0.8-2.2,0.1-4-0.8c-1.8-0.8-1.8-0.7-3.6-1.5c-1.8-0.8-1.7-1-3.5-1.8c-1.8-0.8-1.9-0.6-3.7-1.4 c-1.8-0.8-1.1-2.3-2.8-3.2c-1.8-0.8-2.3,0.3-4.1-0.6c-1.8-0.8-1.7-1-3.5-1.8c-1.7-0.9-1.7-0.9-3.5-1.7c-1.8-0.8-1.6-1.3-3.3-2.1 c-1.8-0.8-1.6-1.2-3.4-2c-1.8-0.8-2.4,0.6-4.2-0.3c-1.8-0.8-1.5-1.4-3.3-2.2c-1.8-0.8-1.5-1.4-3.3-2.2c-1.8-0.9-1.8-0.9-3.5-1.7 c-1.8-0.8-1.5-1.3-3.3-2.2c-1.8-0.9-1.8-0.9-3.5-1.7c-1.8-0.8-2.3,0.2-4-0.6c-1.8-0.8-1.5-1.4-3.2-2.3c-0.4-0.2-0.8-0.4-1-0.5 c-0.3-0.2-0.5-0.3-0.5-0.4c-0.1-0.1-0.3-0.3-0.6-0.5l0,0c-0.7,0.3-0.2,0.2-2.1,1.1c-1.8,0.8-1.6,1.2-3.4,2 c-1.8,0.8-1.4,1.7-3.1,2.5c-1.8,0.8-2.1,0.2-3.8,1c-1.8,0.8-1.6,1.3-3.3,2.1c-1.8,0.8-2.2,0-3.9,0.8c-1.8,0.8-1.6,1.2-3.4,2 c-1.8,0.8-1.8,0.7-3.6,1.5c-1.8,0.8-2,0.4-3.7,1.2c-1.8,0.8-1.1,2.3-2.9,3.1c-1.7,0.9-1.7,0.9-3.5,1.7c-1.8,0.8-2.4-0.5-4.2,0.3 c-1.8,0.8-1.1,2.2-2.9,3c-1.8,0.8-1.9,0.6-3.7,1.4c-1.8,0.8-1.9,0.6-3.6,1.5c-1.8,0.8-2,0.3-3.8,1.1c-1.8,0.8-1.9,0.5-3.7,1.3 c-1.8,0.8-1.9,0.5-3.7,1.4c-1.8,0.8-1.4,1.5-3.2,2.4c-1.8,0.8-1.6,1.3-3.3,2.1c-1.8,0.8-1.7,1-3.5,1.8c-1.7,0.9-1.7,0.9-3.5,1.7 c-1.8,0.8-2,0.4-3.7,1.3c-1.8,0.8-1.9,0.6-3.6,1.4c-1.8,0.8-2,0.4-3.7,1.2c-1.8,0.8-1.7,1.1-3.4,1.9c-1.8,0.8-1.5,1.5-3.2,2.3 c-1.8,0.8-1.9,0.6-3.6,1.4c-0.5,0.2-2.6-3.2-2.6-3.2c-0.9-1.9-1.7-4.5-1.2-4.7c1.8-0.8,2.5,0.6,4.2-0.2c1.8-0.8,1.8-0.8,3.5-1.7 c1.8-0.8,1.8-0.8,3.5-1.7c1.8-0.8,1.1-2.3,2.8-3.1c1.8-0.8,2.4,0.5,4.1-0.4c1.8-0.8,1.8-0.7,3.6-1.5c1.8-0.8,1.9-0.6,3.6-1.5 c1.8-0.8,1-2.5,2.7-3.3c1.8-0.8,1.9-0.5,3.7-1.3c1.8-0.8,1.8-0.8,3.5-1.7c1.8-0.8,2.3,0.3,4-0.6c1.8-0.8,1.8-0.8,3.5-1.6 c1.8-0.8,1.9-0.6,3.6-1.4c1.8-0.8,1.4-1.6,3.2-2.4c1.8-0.8,2.1-0.1,3.9-0.9c1.8-0.8,1.4-1.5,3.2-2.3c1.8-0.8,1.5-1.4,3.2-2.3 c1.8-0.8,2.1-0.1,3.9-1c1.8-0.8,1.2-1.9,3-2.8c1.8-0.8,2.3,0.4,4.1-0.4c1.8-0.8,1.8-0.8,3.6-1.6c1.8-0.8,1.3-1.8,3.1-2.6 c1.8-0.8,1.9-0.5,3.7-1.4c1.8-0.9,1.8-0.9,3.5-1.7c1.8-0.8,1.7-1,3.5-1.8c1.7-0.9,1.7-0.9,3.5-1.8c1.8-0.8,1.9-0.6,3.6-1.5 c1.5-0.7,2.3-0.7,5.3-2.1c0,0,0,0,0,0c1.6,0.8,2.4,1.2,3.2,1.6c0.3,0.2,0.6,0.3,0.9,0.5c0.3,0.1,0.6,0.3,1,0.5 c1.8,0.8,1.5,1.4,3.3,2.3c1.8,0.9,1.8,0.9,3.5,1.7c1.8,0.8,1.9,0.4,3.7,1.3c1.8,0.8,1.9,0.6,3.7,1.4c1.8,0.8,2.2-0.1,4,0.7 c1.8,0.8,1.6,1.1,3.4,1.9c1.8,0.9,1.8,0.9,3.5,1.7c1.8,0.8,1.7,1.1,3.4,1.9c1.8,0.8,1.4,1.7,3.1,2.5c1.8,0.8,2.1,0.2,3.9,1 c1.8,0.8,1.7,1,3.5,1.8c1.8,0.8,1.5,1.4,3.3,2.2c1.8,0.8,1.8,0.7,3.6,1.5c1.8,0.8,1.8,0.8,3.6,1.6c1.8,0.8,1.8,0.7,3.6,1.5 s1.6,1.2,3.4,2c1.8,0.8,1.8,0.7,3.6,1.5c1.8,0.8,2.2,0,3.9,0.8c1.8,0.8,1.7,1,3.5,1.8c1.8,0.9,1.8,0.9,3.5,1.7 c1.8,0.8,1.9,0.6,3.6,1.5c1.8,0.8,1.5,1.4,3.3,2.2c1.8,0.8,1.9,0.6,3.6,1.5s2,0.3,3.8,1.1c1.8,0.8,1.5,1.4,3.3,2.2 c1.8,0.8,2,0.4,3.8,1.2c1.8,0.8,1.3,1.8,3.1,2.7c0.5,0.2-0.6,3.3-0.6,3.3C336.8,253.2,335.3,255.5,334.8,255.3z" fill="inherit"/><path d="M142.5,268.1c4.3,2.4,3.9,3.1,8.2,5.4c4.3,2.4,4.2,2.6,8.5,4.9c4.3,2.4,4.1,2.8,8.4,5.1 c4.3,2.4,4.3,2.4,8.6,4.8c4.3,2.4,4.3,2.4,8.6,4.8c4.4,2.3,4.4,2.3,8.7,4.6c4.3,2.4,4.8,1.5,9.1,3.9c4.3,2.4,4.5,2,8.8,4.4 c4.3,2.4,3.9,3.2,8.2,5.5c4.3,2.4,4.8,1.5,9.1,3.8c4.3,2.3,4.4,2.2,8.7,4.5c0,0,0.1,0.1,0.1,0.1l0.1,0l0,0l0.6-0.3 c0.9-0.5,2-1,3.6-1.8c4.4-2.3,4.2-2.6,8.6-4.9c4.4-2.3,5.1-0.9,9.5-3.2c4.4-2.3,3.8-3.4,8.1-5.7c4.4-2.3,4.4-2.1,8.8-4.5 c4.4-2.3,4.4-2.3,8.7-4.5c4.4-2.3,4.6-1.9,8.9-4.2c4.4-2.3,4.5-2,8.9-4.3c4.4-2.3,3.6-3.7,8-6c2.2-1.2,3.3-1.6,4.5-2 c0.3-0.1,0.6-0.2,0.9-0.3c0.2-0.1,0.3-0.1,0.5-0.2c0.3-0.1,0.6-0.3,0.9-0.4c1.3-0.6,2.8-1.4,4.9-2.5c6.7-3.5,7.6-3.5,12.4-5.9 c0,0.1,0.3,0.2,0.7,0.3c2,0.6,2,0.6,4.1,1.2c0,0,0,0,0,0.1c0.2,2.1-0.4,2.5-0.8,4.9c-0.1,0.4-0.1,0.7-0.1,0.8 c-3.6,4.5-4.2,5.3-8.4,10.6c-1.2,1.6-2.1,2.7-2.8,3.8c-0.2,0.3-0.3,0.5-0.4,0.6c-0.1,0.2-0.2,0.3-0.2,0.5 c-0.1,0.3-0.3,0.6-0.4,0.9c-0.5,1.1-1.1,2.3-2.6,4.2c-3.1,3.9-3.6,3.4-6.6,7.3c-3.1,3.9-3.3,3.6-6.4,7.5c-3,3.9-3,3.9-6,7.8 c-3.1,3.9-2.7,4.1-5.8,8c-3.1,3.9-2.3,4.4-5.4,8.3c-3.1,3.9-3.6,3.4-6.7,7.3c-3.1,3.9-2.7,4.2-5.7,8c-3.1,3.9-3.8,3.3-6.8,7.2 c-3.1,3.9-2.8,4.1-5.8,8c-3.1,3.8-3.1,3.8-6.2,7.6c-3.1,3.9-3.4,3.6-6.5,7.4c-3.1,3.9-1.8,4.9-4.9,8.7c-3,3.9-3,3.9-6,7.8 c-0.4,0.5-0.8,1-1.2,1.4c-0.5,0.6-0.9,1.1-1.3,1.5c-0.8,0.9-1.5,1.6-2.1,2.2c-1.2,1.1-2.2,1.8-3.4,3c-0.8-1.3-1.7-2.7-3-4.3 c-1.2-1.6-2.2-2.8-3.1-3.7c-0.5-0.6-0.7-0.6-1-0.9c-0.3-0.2-0.5-0.4-0.8-0.6c-1-0.7-2.1-1.5-3.6-3.4c-3-3.9-2.8-4.1-5.8-8 c-3-3.9-2.8-4-5.8-7.9c-3-3.9-2.5-4.3-5.5-8.2c-3-3.9-2.7-4.1-5.7-8c-3-3.9-2.7-4.1-5.7-8c-3-3.9-3.6-3.4-6.6-7.3 c-3-3.9-3.4-3.6-6.4-7.5c-3.1-3.9-3.1-3.9-6.1-7.7c-3-3.9-3-3.9-6.1-7.7c-3-3.9-2.7-4.2-5.7-8.1c-3-3.9-2.8-4.1-5.8-8 c-3-3.9-2.6-4.2-5.6-8.1c-3-3.9-3.2-3.7-6.2-7.6c-3-3.9-3.6-3.5-6.6-7.4c-3-3.9-2.8-4.1-5.8-8c-0.8-1.1,1.7-4.3,1.7-4.3 c1.7-1.3,4.4-2.1,5.2-1c3,3.9,1.7,4.9,4.7,8.8c3,3.9,3,3.9,6,7.8c3,3.9,3,3.9,6,7.8c3,3.9,4.3,2.9,7.3,6.8c3,3.9,1.9,4.8,4.9,8.7 c2.9,3.9,2.9,3.9,5.9,7.9c3,3.9,2.8,4,5.8,7.9c3,3.9,4.5,2.8,7.5,6.7c3,3.9,2.7,4.1,5.7,8c3,3.9,3,3.9,6,7.8c3,3.9,2,4.6,5,8.5 c3,3.9,3,3.9,6,7.8c3,3.9,2.8,4.1,5.8,8c3,3.9,3.6,3.4,6.6,7.3c3,3.9,2.3,4.4,5.3,8.3c1.5,2,2.4,2.8,3.3,3.7 c0.2,0.2,0.4,0.4,0.7,0.7c0.1,0.1,0.2,0.2,0.4,0.4l0.2,0.2l0.1,0c0.2,0.1,0.3,0.2,0.5,0.5c0.2,0.3,0.4,0.4,0.4,0.3 c0.1-0.3,0.2-0.6,0.3-0.9c0-0.1,0-0.2,0.1-0.3l0-0.1l0-0.1c0.1-0.2,0.2-0.3,0.4-0.5c3.1-3.9,3.7-3.4,6.7-7.2 c3.1-3.9,2.1-4.6,5.1-8.5c3.1-3.9,4.1-3,7.2-6.9c3.1-3.8,3.1-3.8,6.2-7.7c3.1-3.9,2.2-4.5,5.3-8.4c3.1-3.9,3.3-3.6,6.4-7.5 c3-3.9,3-3.9,6-7.8c3.1-3.9,2.9-4,6-7.8c3-3.9,3-3.9,6-7.8c3.1-3.9,3.2-3.7,6.3-7.6c3.1-3.9,3.3-3.6,6.4-7.5 c3.1-3.8,3.1-3.8,6.2-7.6c3.1-3.9,3.6-3.5,6.6-7.3c2.5-3.1,2.5-3.1,4.9-6.1c1-1.3,0.6-1.3,1-2c0,0,0.1-0.1,0.2-0.3 c0.9-1.1,0-0.5,0.7-1.3c0,0,0,0,0,0c-0.5,0.3-1.6,1.2-2.4,1.9c-0.9,0.7-1.5,1.3-1.5,1.3s0,0,0,0c0.1-0.1,0.2-0.4-0.1-0.3 c-2.9,1.5-2.9,1.5-5.9,3c-4.4,2.3-4.5,2.1-8.8,4.4s-4.8,1.5-9.1,3.8c-4.4,2.3-4,3-8.3,5.3c-4.4,2.2-4.4,2.2-8.8,4.5 c-4.4,2.3-4.6,1.8-9,4.1c-4.3,2.4-4.3,2.4-8.6,4.7c-4.3,2.3-4.3,2.3-8.7,4.7c-4.4,2.3-4.3,2.5-8.6,4.8c-1.6,0.9-2.7,1.3-3.6,1.8 l-0.7,0.3c-0.4,0.2-0.8,0.4-1.2,0.6c-0.8,0.4-1.6,0.8-2.7,1.3c-0.5-0.3-1.8-1.1-3.7-2.1c-4.4-2.3-4.4-2.3-8.8-4.6 c-4.3-2.4-4.8-1.5-9.1-3.9c-4.3-2.4-4.3-2.4-8.6-4.8c-4.3-2.4-4.3-2.4-8.6-4.8c-4.3-2.4-4.4-2.2-8.8-4.5c-4.3-2.4-4-2.9-8.4-5.2 c-4.3-2.4-4.4-2.2-8.8-4.5c-4.3-2.4-4.6-1.8-8.9-4.2c-4.3-2.4-4-2.9-8.4-5.2c-4.3-2.4-4.6-1.9-8.9-4.2c-4.3-2.4-3.8-3.3-8.1-5.7 c-1.2-0.6-0.4-3.9-0.4-3.9C139.3,269.4,141.3,267.5,142.5,268.1z" fill="inherit"/><path d="M232.7,400.1c0-0.7,0.8-0.7,0.8-1.3c0-0.7,0.3-0.7,0.3-1.3c0-0.7,0.5-0.7,0.5-1.3s0.1-0.7,0.1-1.3 c0-0.7,0.1-0.7,0.1-1.3s-0.1-0.7-0.1-1.3c0-0.7-0.9-0.7-0.9-1.3c0-0.7-0.3-0.7-0.3-1.3c0-0.7,0.9-0.7,0.9-1.3c0-0.7-1-0.7-1-1.3 c0-0.7-0.2-0.7-0.2-1.3c0-0.7,0.2-0.7,0.2-1.3c0-0.7-0.3-0.7-0.3-1.3c0-0.7,1.6-0.7,1.6-1.3c0-0.7-1.2-0.7-1.2-1.3 c0-0.7,0.2-0.7,0.2-1.3c0-0.7,0.1-0.7,0.1-1.3c0-0.7,0.5-0.7,0.5-1.3c0-0.7,0.4-0.7,0.4-1.3c0-0.7-1.6-0.7-1.6-1.3 c0-0.7,0.6-0.7,0.6-1.3c0-0.7,0.6-0.7,0.6-1.3s0.1-0.7,0.1-1.3c0-0.7,0.5-0.7,0.5-1.3c0-0.7,0.1-0.7,0.1-1.3 c0-0.7-1.1-0.7-1.1-1.3c0-0.7,0.7-0.7,0.7-1.3c0-0.7,0.3-0.7,0.3-1.3c0-0.7-0.1-0.7-0.1-1.3c0-0.7-0.4-0.7-0.4-1.3 s-0.9-0.7-0.9-1.3c0-0.7,0.7-0.7,0.7-1.3c0-0.7-0.5-0.7-0.5-1.3c0-0.7,0.9-0.7,0.9-1.3c0-0.7-0.4-0.7-0.4-1.3 c0-0.7,0.2-0.7,0.2-1.3c0-0.7,0.5-0.7,0.5-1.3c0-0.7-1.6-0.7-1.6-1.3c0-0.7-0.1-0.7-0.1-1.3c0-0.7,1.5-0.7,1.5-1.3 c0-0.7-1.5-0.7-1.5-1.3c0-0.7,0.3-0.7,0.3-1.3c0-0.7,0.2-0.7,0.2-1.3c0-0.7,0.6-0.7,0.6-1.3c0-0.7,0.4-0.7,0.4-1.3 c0-0.7,0.3-0.7,0.3-1.3c0-0.7-0.8-0.7-0.8-1.3c0-0.7-0.5-0.7-0.5-1.3c0-0.7-0.2-0.7-0.2-1.3c0-0.7-0.1-0.7-0.1-1.3 c0-0.7,0.4-0.7,0.4-1.3c0-0.7,0.3-0.7,0.3-1.3s0.5-0.7,0.5-1.3c0-0.7-0.3-0.7-0.3-1.3c0-0.7-0.7-0.7-0.7-1.3 c0-0.7,0.2-0.7,0.2-1.3c0-0.2,4-0.3,4-0.3c2.2,0,4.8,0.1,4.8,0.3c0,0.7-1.6,0.7-1.6,1.3c0,0.7,0,0.7,0,1.3s0,0.7,0,1.3 c0,0.7,1.6,0.7,1.6,1.3s-1.4,0.7-1.4,1.3c0,0.7-0.1,0.7-0.1,1.3c0,0.7-0.2,0.7-0.2,1.3c0,0.7,1.8,0.7,1.8,1.3 c0,0.7-0.4,0.7-0.4,1.3c0,0.7,0,0.7,0,1.3c0,0.7-1.2,0.7-1.2,1.3s0,0.7,0,1.3c0,0.7-0.3,0.7-0.3,1.3c0,0.7,0.8,0.7,0.8,1.3 c0,0.7-0.8,0.7-0.8,1.3c0,0.7,0.7,0.7,0.7,1.3c0,0.7,0.7,0.7,0.7,1.3c0,0.7-0.8,0.7-0.8,1.3c0,0.7,1.2,0.7,1.2,1.3 c0,0.7-1.4,0.7-1.4,1.3c0,0.7-0.1,0.7-0.1,1.3c0,0.7,1.1,0.7,1.1,1.3c0,0.7-0.3,0.7-0.3,1.3c0,0.7,0.1,0.7,0.1,1.3 c0,0.7,0.2,0.7,0.2,1.3s0.1,0.7,0.1,1.3c0,0.7-0.2,0.7-0.2,1.3c0,0.7-0.4,0.7-0.4,1.3c0,0.7-0.2,0.7-0.2,1.3 c0,0.7-0.6,0.7-0.6,1.3c0,0.7,0,0.7,0,1.3c0,0.7,0.4,0.7,0.4,1.3s0.3,0.7,0.3,1.3c0,0.7,1,0.7,1,1.3c0,0.7-0.3,0.7-0.3,1.3 c0,0.7,0,0.7,0,1.3c0,0.7-0.3,0.7-0.3,1.3s-0.9,0.7-0.9,1.3c0,0.7,0.8,0.7,0.8,1.3c0,0.7-0.2,0.7-0.2,1.3c0,0.7-0.6,0.7-0.6,1.3 c0,0.7,0.1,0.7,0.1,1.3c0,0.7,0.1,0.7,0.1,1.3s0.2,0.7,0.2,1.3c0,0.7-0.4,0.7-0.4,1.3c0,0.7,0.1,0.7,0.1,1.3s0.9,0.7,0.9,1.3 c0,0.7-0.2,0.7-0.2,1.3c0,0.7-0.1,0.7-0.1,1.3c0,0.7,0.2,0.7,0.2,1.3s-0.6,0.7-0.6,1.3s0.2,0.7,0.2,1.3c0,0.7,0.6,0.7,0.6,1.3 c0,0.7-0.6,0.7-0.6,1.3c0,0.7,0.5,0.7,0.5,1.3c0,0.7-1.1,0.7-1.1,1.3c0,0.2-3.2,0.3-3.2,0.3C235.4,400.4,232.7,400.3,232.7,400.1z" fill="inherit"/></g><g id="change4_2"><path d="M233.3,203.9c-29.9,13.9-59.8,27.8-89.6,41.7c-1.3,0.6-2.9,1.9-2.1,3.2c0.2,0.4,0.6,0.6,1,0.8 c29.2,16.6,58.8,32.5,88.8,47.7c1,0.5,2.4,1,3.3,0.3c0.6-0.5,0.7-1.3,0.8-2.1c1.5-12.4,3.1-24.8,3.3-37.3 c0.1-5.9-0.1-11.8-0.2-17.6c-0.1-4.8-0.3-9.5-0.4-14.3c-0.2-6.9-0.4-13.8-2.4-20.4c-0.4-1.2-1.8-2.5-2.5-1.6" fill="#eac836"/></g><g><g id="change5_3"><path d="M146.2,278.1c29.5,38.1,59,76.1,88.5,114.2c2.2-3.4,2.4-7.6,2.4-11.7c0.3-15.5,0.5-31,0.8-46.5 c0.1-5,0-10.5-3.4-14.3c-1.5-1.7-3.5-2.8-5.5-3.9c-25.5-14-51.6-26.7-78.2-38.3c-0.7-0.3-1.6-0.6-2.1,0c-0.5,0.6,1,1.4,0.9,0.6" fill="#c38f41"/></g><g id="change2_3"><path d="M238.7,203.7c-1.1,31.3-1.5,62.6-1.4,93.9c32.2-14.5,63.7-30.6,94.3-48.2c1.2-2.4-1.7-4.8-4.1-6 c-28.7-13.9-57.6-27.5-86.5-40.9" fill="#dfb461"/></g><g id="change1_9"><path d="M237.8,89.3c0.3,34,0.5,67.9,0.8,101.9c0,3,0.1,6.2,1.7,8.6c1.5,2.3,4,3.6,6.4,4.8 c28.9,14.3,58.2,27.8,87.9,40.4c-27.8-54-60.6-105.5-97.8-153.6" fill="#fff"/></g><g id="change2_4"><path d="M237.8,90.3c0.1,33.4,0.1,66.9,0.2,100.3c0,2.4,0,4.9-1.2,7c-1.2,2-3.3,3.2-5.3,4.4 c-28.8,16.2-58.6,30.5-89.3,42.6c28.2-52.7,58.2-104.6,89.9-155.3c1-1.6,4.3-2.7,4.1-0.8" fill="#dfb461"/></g><g id="change2_2"><path d="M237.3,321.5c-0.3,20.4-0.5,40.7-0.8,61.1c0,3.5,0.1,7.4,2.6,9.9c24.8-31.2,49.5-62.3,74.3-93.5 c5.7-7.2,11.5-14.5,15.9-22.6c-30.6,14-60.9,28.6-90.9,43.8" fill="#dfb461"/></g><g fill="#040000" id="change3_4"><path d="M339.3,245.4c-0.5-0.8-1-1.7-1.6-2.8c-0.4-0.6-0.8-1.3-1.3-2.2c-2.8-4.7-2.8-4.7-5.5-9.4 c-2.8-4.7-2.7-4.7-5.5-9.4c-2.8-4.7-3.9-4-6.7-8.7c-2.8-4.7-1.4-5.5-4.2-10.2c-2.8-4.7-3.1-4.5-5.9-9.2c-2.8-4.7-2.6-4.8-5.4-9.4 c-2.9-4.6-2.9-4.6-5.7-9.2c-2.8-4.7-3.6-4.2-6.4-8.8c-2.8-4.7-2-5.1-4.8-9.8c-2.8-4.7-3.1-4.5-5.9-9.1c-2.8-4.7-3.6-4.2-6.4-8.8 c-2.9-4.6-2.9-4.6-5.7-9.2c-2.7-4.7-2.7-4.7-5.5-9.4c-2.8-4.7-2.8-4.7-5.5-9.3c-2.8-4.7-2.4-4.9-5.2-9.6 c-2.8-4.7-2.6-4.8-5.4-9.4c-2.7-4.5-2.1-5.1-4.6-9.4l-0.5-1.4l-3.8-2.7h-2.4c0,0-1.6,2-3.2,3.9c-0.2,0.1-0.4,0.2-0.5,0.4 c-0.1,0.2-0.3,0.4-0.4,0.7c-0.1,0.1-0.2,0.3-0.3,0.4l0.1,0c-2.2,3.6-2.6,3.9-5.2,8.2c-2.8,4.7-2.2,5-4.9,9.7 c-2.8,4.7-2.6,4.8-5.3,9.5c-2.8,4.7-3.2,4.4-6,9.1c-2.8,4.7-3,4.5-5.8,9.2c-2.8,4.7-3.2,4.4-5.9,9.1c-2.7,4.7-2.7,4.7-5.5,9.4 c-2.7,4.7-2.7,4.7-5.4,9.4c-2.8,4.7-2.4,4.9-5.1,9.6c-2.8,4.7-2.1,5.1-4.9,9.7c-2.8,4.7-3.1,4.5-5.9,9.2s-3.1,4.5-5.9,9.1 c-2.8,4.7-3.3,4.4-6.1,9c-2.8,4.7-3,4.6-5.7,9.2c-2.8,4.7-3,4.5-5.8,9.2c-2.8,4.7-1.5,5.4-4.3,10.1c-2.8,4.7-4.1,3.9-6.9,8.6 c-2.9,4.9-4.1,6.9-5.8,9.8c1.5,0.8,3.8,2,7.7,4c1.4,0.7,1.7,0.9,2.2,1.1c0.5,0.2,0.9,0.4,1.3,0.5c0.8,0.3,1.5,0.4,2.2,0.5 c1.4,0.3,2.8,0.6,5.2,1.8c4.8,2.5,4.6,3,9.4,5.5c4.8,2.6,4.8,2.6,9.5,5.2c4.8,2.5,5,2.2,9.8,4.8c4.8,2.5,4.4,3.4,9.2,5.9 c4.8,2.5,5,2.1,9.8,4.7c4.8,2.5,4.5,3.2,9.3,5.7c4.8,2.5,5.2,1.7,10,4.3c4.8,2.5,5,2.2,9.8,4.7c5.2,2.7,5.6,2.9,10.5,5.4 c0,0,0.5-0.3,1-0.5c1-0.5,1.8-1,2.6-1.4c0.5-0.2,0.9-0.5,1.3-0.6c0.8-0.4,1.4-0.6,2-0.9c1.2-0.6,2.5-1.1,4.9-2.4 c4.8-2.5,5.1-1.9,9.9-4.5c4.8-2.5,4.3-3.5,9.1-6.1c4.8-2.5,4.8-2.5,9.6-5c4.8-2.5,5.1-2,9.9-4.6c4.8-2.5,4.8-2.5,9.6-5 c4.8-2.5,5.1-2,9.9-4.5c4.8-2.5,5.1-2,9.9-4.5c4.8-2.5,4.1-3.9,8.9-6.4c2.4-1.3,3.7-1.8,4.9-2.4c0.6-0.3,1.2-0.6,2-0.9 c0.4-0.2,0.8-0.4,1.3-0.6c0.7-0.4,1.6-0.8,2.5-1.3c2.9-1.5,4.9-2.5,6-3C340.9,248.3,340.1,247,339.3,245.4z M239.4,133.5 c0-1.9,0.3-1.9,0.3-3.9c0-1.9,0-1.9,0-3.9c0-1.9,1.2-1.9,1.2-3.9c0-1.9,0-1.9,0-3.9c0-1.9,0.4-1.9,0.4-3.9c0-1.9-1.8-1.9-1.8-3.9 c0-1.9,0.2-1.9,0.2-3.9c0-1.9,0.1-1.9,0.1-3.9s1.4-1.9,1.4-3.9c0-0.1,0-0.1,0-0.2c1.5,2.2,2.2,2.9,4.4,6.4c2.8,4.7,2.3,5,5.1,9.6 c2.8,4.7,3.3,4.4,6.1,9c2.8,4.7,3,4.5,5.8,9.2c2.8,4.7,2.3,5,5.1,9.6c2.8,4.7,3,4.5,5.8,9.2c2.8,4.7,2.8,4.7,5.5,9.3 c2.7,4.7,2.7,4.7,5.5,9.4c2.8,4.7,3.6,4.2,6.4,8.8c2.9,4.6,2.9,4.6,5.7,9.2c2.8,4.7,2.5,4.9,5.3,9.5c2.8,4.7,3,4.6,5.8,9.2 c2.8,4.6,2.8,4.6,5.7,9.3c2.9,4.6,2.9,4.6,5.7,9.2c2.8,4.7,2.3,5,5.1,9.6c1,1.7,1.6,2.8,2.1,3.7c-1-0.3-1.5-0.1-2.9-0.8 c-1.8-0.8-1.9-0.6-3.6-1.5c-1.8-0.8-1.5-1.4-3.3-2.2c-1.8-0.8-1.9-0.6-3.6-1.5c-1.8-0.9-1.8-0.9-3.5-1.7c-1.8-0.8-1.7-1-3.5-1.8 c-1.8-0.8-2.2,0-3.9-0.8c-1.8-0.8-1.8-0.7-3.6-1.5c-1.8-0.8-1.6-1.2-3.4-2c-1.8-0.8-1.8-0.7-3.6-1.5c-1.8-0.8-1.8-0.8-3.6-1.6 c-1.8-0.8-1.8-0.7-3.6-1.5c-1.8-0.8-1.5-1.4-3.3-2.2c-1.8-0.8-1.7-1-3.5-1.8s-2.1-0.2-3.9-1c-1.8-0.8-1.4-1.7-3.1-2.5 c-1.8-0.8-1.7-1.1-3.4-1.9c-1.8-0.9-1.8-0.9-3.5-1.7c-1.8-0.8-1.6-1.1-3.4-1.9c-1.8-0.8-2.2,0.1-4-0.7c-1.8-0.8-1.9-0.6-3.7-1.4 c-1.8-0.8-1.9-0.4-3.7-1.3c-1.8-0.9-1.8-0.9-3.5-1.7c-1.8-0.8-1.5-1.4-3.3-2.3c-0.4-0.2-0.8-0.4-1-0.5c-0.4-0.2-0.6-0.3-0.9-0.5 c-0.1-0.1-0.3-0.2-0.5-0.2c0.2-1.1,0.6-1.4,0.6-3c0-1.9,0.2-1.9,0.2-3.9c0-1.9,0.4-1.9,0.4-3.9c0-1.9,0.2-1.9,0.2-3.9 c0-1.9-0.1-1.9-0.1-3.9c0-1.9-0.2-1.9-0.2-3.9c0-1.9-0.1-1.9-0.1-3.9c0-1.9,0.3-1.9,0.3-3.9c0-1.9-1.1-1.9-1.1-3.9 c0-1.9,0.1-1.9,0.1-3.9c0-1.9,1.4-1.9,1.4-3.9s-1.2-1.9-1.2-3.9c0-1.9,0.8-1.9,0.8-3.9c0-1.9-0.7-1.9-0.7-3.9s-0.7-1.9-0.7-3.9 c0-1.9,0.8-1.9,0.8-3.9C240.2,135.5,239.4,135.5,239.4,133.5z M149.2,235.6c2.8-4.7,2.1-5,4.9-9.7c2.8-4.7,3.5-4.2,6.3-8.9 c2.8-4.7,2.1-5.1,4.9-9.7c2.8-4.7,3-4.5,5.8-9.2c2.8-4.7,2.8-4.7,5.6-9.3c2.8-4.7,3.8-4,6.6-8.7c2.8-4.7,2.8-4.7,5.6-9.3 c2.8-4.7,3.1-4.5,5.9-9.1c2.8-4.7,1.2-5.6,4-10.3c2.8-4.7,3-4.5,5.8-9.2c2.8-4.6,2.8-4.6,5.7-9.3c2.8-4.7,4-3.9,6.8-8.6 c2.8-4.7,1.4-5.5,4.2-10.2c2.8-4.7,2.8-4.7,5.5-9.3c2.8-4.7,2.8-4.7,5.6-9.3c0.3-0.5,0.6-1,0.9-1.4c0,0.2,0,0.5,0,0.8 c0,1.9-0.5,1.9-0.5,3.9c0,1.9-0.3,1.9-0.3,3.9c0,1.9-0.4,1.9-0.4,3.9c0,1.9,0.1,1.9,0.1,3.9c0,1.9,0.2,1.9,0.2,3.9 c0,1.9,0.5,1.9,0.5,3.9c0,1.9,0.8,1.9,0.8,3.9s-0.3,1.9-0.3,3.9c0,1.9-0.4,1.9-0.4,3.9c0,1.9-0.6,1.9-0.6,3.9 c0,1.9-0.2,1.9-0.2,3.9c0,1.9-0.3,1.9-0.3,3.9c0,1.9,1.5,1.9,1.5,3.9c0,1.9-1.5,1.9-1.5,3.9c0,1.9,0.1,1.9,0.1,3.9 s1.6,1.9,1.6,3.9c0,1.9-0.5,1.9-0.5,3.9s-0.2,1.9-0.2,3.9c0,1.9,0.4,1.9,0.4,3.9c0,1.9-0.9,1.9-0.9,3.9c0,1.9,0.5,1.9,0.5,3.9 c0,1.9-0.7,1.9-0.7,3.9c0,1.9,0.9,1.9,0.9,3.9c0,1.9,0.4,1.9,0.4,3.9c0,1.9,0.1,1.9,0.1,3.9c0,1.9-0.3,1.9-0.3,3.9 c0,1.8-0.5,1.9-0.7,3.4c-0.3,0.1-0.5,0.2-0.8,0.4c-1.8,0.8-1.9,0.6-3.6,1.5c-1.7,0.9-1.7,0.9-3.5,1.8c-1.8,0.8-1.7,1-3.5,1.8 c-1.8,0.9-1.8,0.9-3.5,1.7c-1.8,0.8-1.9,0.5-3.7,1.4c-1.8,0.8-1.3,1.8-3.1,2.6c-1.8,0.8-1.8,0.8-3.6,1.6 c-1.8,0.8-2.3-0.4-4.1,0.4s-1.2,1.9-3,2.8c-1.8,0.8-2.1,0.1-3.9,1c-1.8,0.8-1.5,1.4-3.2,2.3s-1.4,1.5-3.2,2.3 c-1.8,0.8-2.1,0.1-3.9,0.9c-1.8,0.8-1.4,1.6-3.2,2.4c-1.8,0.8-1.9,0.6-3.6,1.4c-1.8,0.8-1.8,0.8-3.5,1.6c-1.8,0.8-2.3-0.3-4,0.6 c-1.8,0.8-1.8,0.8-3.5,1.7c-1.8,0.8-1.9,0.5-3.7,1.3c-1.8,0.8-1,2.5-2.7,3.3c-1.8,0.8-1.9,0.6-3.6,1.5c-1.8,0.8-1.8,0.7-3.6,1.5 c-1.8,0.8-2.4-0.5-4.1,0.4c-1.8,0.8-1.1,2.3-2.8,3.1c-0.2,0.1-0.4,0.2-0.6,0.3C147.2,239.3,147.8,238.1,149.2,235.6z M233.1,226.6c0,1.9-0.4,1.9-0.4,3.9c0,1.9-0.5,1.9-0.5,3.9s-0.1,1.9-0.1,3.9c0,1.9-0.2,1.9-0.2,3.9c0,1.9,1.2,1.9,1.2,3.9 c0,1.9-1.6,1.9-1.6,3.9c0,1.9,0.3,1.9,0.3,3.9c0,1.9-0.2,1.9-0.2,3.9c0,1.9,0.2,1.9,0.2,3.9c0,1.9,1,1.9,1,3.9 c0,1.9-0.9,1.9-0.9,3.9c0,1.9,0.3,1.9,0.3,3.9c0,1.9,0.9,1.9,0.9,3.9c0,1.9,0.1,1.9,0.1,3.9s-0.1,1.9-0.1,3.9s-0.1,1.9-0.1,3.9 c0,1.9-0.5,1.9-0.5,3.9c0,0.9-0.1,1.4-0.1,1.8c-0.8-0.5-1.8-1-3.2-1.8c-4.8-2.5-4.7-2.7-9.5-5.3c-4.8-2.5-4.8-2.5-9.6-5 c-4.8-2.5-4.9-2.4-9.7-4.9c-4.8-2.5-4.8-2.5-9.6-5c-4.8-2.5-4.6-2.8-9.4-5.4c-4.8-2.5-5.3-1.6-10.1-4.1c-4.8-2.6-4.8-2.6-9.6-5.2 c-4.8-2.5-4.2-3.7-9-6.3c-2.4-1.3-3.7-1.6-5.1-2c-0.7-0.2-1.3-0.4-2.1-0.7c0,0-0.1,0-0.1-0.1c0.3-0.2,0.6-0.4,1.1-0.7 c1.8-0.8,1.7-1.1,3.4-1.9c1.8-0.8,2-0.4,3.7-1.2c1.8-0.8,1.9-0.6,3.6-1.4c1.8-0.8,2-0.4,3.7-1.3c1.7-0.9,1.7-0.9,3.5-1.7 c1.8-0.8,1.7-1,3.5-1.8c1.8-0.8,1.6-1.3,3.3-2.1c1.8-0.8,1.4-1.5,3.2-2.4c1.8-0.8,1.9-0.5,3.7-1.4c1.8-0.8,1.9-0.5,3.7-1.3 c1.8-0.8,2-0.3,3.8-1.1c1.8-0.8,1.9-0.6,3.6-1.5c1.8-0.8,1.9-0.6,3.7-1.4c1.8-0.8,1.1-2.2,2.9-3c1.8-0.8,2.4,0.5,4.2-0.3 c1.7-0.9,1.7-0.9,3.5-1.7c1.8-0.8,1.1-2.3,2.9-3.1c1.8-0.8,2-0.4,3.7-1.2c1.8-0.8,1.8-0.7,3.6-1.5c1.8-0.8,1.6-1.2,3.4-2 c1.8-0.8,2.2,0,3.9-0.8c1.8-0.8,1.6-1.3,3.3-2.1c1.8-0.8,2.1-0.2,3.8-1s1.4-1.7,3.1-2.5c1.2-0.5,1.5-0.9,2.1-1.3 c0,0.1,0,0.3,0,0.4c0,1.9-0.5,1.9-0.5,3.9c0,1.9-0.1,1.9-0.1,3.9c0,1.9-0.6,1.9-0.6,3.9c0,1.9-0.6,1.9-0.6,3.9 C231.6,224.7,233.1,224.7,233.1,226.6z M321.6,251.8c-4.8,2.5-4.9,2.3-9.7,4.8c-4.8,2.5-4.8,2.5-9.6,5c-4.8,2.5-5,2.3-9.8,4.8 c-4.8,2.5-4.3,3.4-9.1,6c-4.8,2.5-4.7,2.8-9.5,5.3c-4.8,2.5-4.6,2.9-9.4,5.4c-4.8,2.5-4.8,2.5-9.6,5c-4.8,2.5-5.1,2-9.9,4.5 c-2,1.1-3.2,1.7-4.3,2.2c-0.1-0.6-0.3-1-0.3-2.1c0-1.9,0.6-1.9,0.6-3.9c0-1.9-0.6-1.9-0.6-3.9c0-1.9-0.2-1.9-0.2-3.9 c0-1.9,0.6-1.9,0.6-3.9c0-1.9-0.2-1.9-0.2-3.9c0-1.9,0.1-1.9,0.1-3.9c0-1.9,0.2-1.9,0.2-3.9c0-1.9-0.9-1.9-0.9-3.9 s-0.1-1.9-0.1-3.9c0-1.9,0.4-1.9,0.4-3.9c0-1.9-0.2-1.9-0.2-3.9c0-1.9-0.1-1.9-0.1-3.9c0-1.9-0.1-1.9-0.1-3.9 c0-1.9,0.6-1.9,0.6-3.9c0-1.9,0.2-1.9,0.2-3.9c0-1.9-0.8-1.9-0.8-3.9s0.9-1.9,0.9-3.9c0-1.9,0.3-1.9,0.3-3.9c0-1.9,0-1.9,0-3.9 c0-1.9,0.3-1.9,0.3-3.9c0-1.9-1-1.9-1-3.9c0-1.9-0.3-1.9-0.3-3.9c0-0.1,0-0.2,0-0.4c0.8,0.6,0.9,1.1,2.3,1.7 c1.8,0.8,2.3-0.2,4,0.6c1.8,0.9,1.8,0.9,3.5,1.7c1.8,0.8,1.5,1.3,3.3,2.2c1.8,0.9,1.8,0.9,3.5,1.7c1.8,0.8,1.5,1.4,3.3,2.2 c1.8,0.8,1.5,1.4,3.3,2.2c1.8,0.8,2.4-0.6,4.2,0.3c1.8,0.8,1.6,1.2,3.4,2c1.8,0.8,1.6,1.3,3.3,2.1c1.7,0.9,1.7,0.9,3.5,1.7 c1.8,0.8,1.7,1,3.5,1.8c1.8,0.8,2.3-0.3,4.1,0.6c1.8,0.8,1.1,2.3,2.8,3.2c1.8,0.8,1.9,0.6,3.7,1.4c1.8,0.8,1.7,1,3.5,1.8 c1.8,0.8,1.8,0.7,3.6,1.5c1.8,0.8,2.2-0.1,4,0.8c1.8,0.8,1.4,1.7,3.1,2.5c1.8,0.8,1.9,0.5,3.7,1.4c1.8,0.8,2.2,0,3.9,0.8 c1.8,0.8,1.8,0.7,3.6,1.5c1.8,0.8,1.7,1,3.5,1.8c1.8,0.9,1.8,0.9,3.5,1.7c1.8,0.8,1.6,1.3,3.3,2.1c0.6,0.3,1,0.5,1.4,0.7 c-0.7,0.2-1.2,0.4-1.8,0.6C325.4,250.1,324,250.5,321.6,251.8z" fill="inherit"/><path d="M339,268.3C339,268.2,339,268.2,339,268.3c-2.1-0.6-2-0.6-4.1-1.2c-0.4-0.1-0.7-0.2-0.7-0.3 c-4.8,2.4-5.7,2.4-12.4,5.9c-2,1.1-3.6,1.8-4.9,2.5c-0.3,0.2-0.6,0.3-0.9,0.4c-0.2,0.1-0.3,0.1-0.5,0.2c-0.3,0.1-0.6,0.2-0.9,0.3 c-1.2,0.4-2.3,0.9-4.5,2c-4.4,2.3-3.6,3.7-8,6c-4.4,2.3-4.5,2-8.9,4.3c-4.4,2.3-4.6,1.9-8.9,4.2c-4.4,2.3-4.4,2.3-8.7,4.5 c-4.4,2.3-4.4,2.1-8.8,4.5c-4.4,2.3-3.8,3.4-8.1,5.7c-4.4,2.3-5.1,0.9-9.5,3.2c-4.4,2.3-4.2,2.6-8.6,4.9 c-1.6,0.9-2.6,1.4-3.6,1.8l-0.6,0.3l0,0l-0.1,0c0,0,0-0.1-0.1-0.1c-4.3-2.3-4.4-2.2-8.7-4.5c-4.3-2.4-4.8-1.5-9.1-3.8 c-4.3-2.4-3.9-3.2-8.2-5.5c-4.3-2.4-4.5-2-8.8-4.4c-4.3-2.4-4.8-1.5-9.1-3.9c-4.4-2.3-4.4-2.3-8.7-4.6c-4.3-2.4-4.3-2.4-8.6-4.8 c-4.3-2.4-4.3-2.4-8.6-4.8c-4.3-2.4-4.1-2.8-8.4-5.1c-4.3-2.4-4.2-2.6-8.5-4.9c-4.3-2.4-3.9-3.1-8.2-5.4 c-1.2-0.6-3.2,1.3-4.2,3.2c0,0,0,0,0,0c-0.2,0.2-2.5,3.3-1.7,4.3c3,3.9,2.8,4.1,5.8,8s3.6,3.5,6.6,7.4c3,3.9,3.2,3.7,6.2,7.6 c3,3.9,2.6,4.2,5.6,8.1c3,3.9,2.8,4.1,5.8,8c3,3.9,2.7,4.2,5.7,8.1c3,3.9,3,3.9,6.1,7.7c3.1,3.9,3.1,3.9,6.1,7.7 c3,3.9,3.4,3.6,6.4,7.5c3,3.9,3.6,3.4,6.6,7.3c3,3.9,2.7,4.1,5.7,8c3,3.9,2.7,4.1,5.7,8c3,3.9,2.5,4.3,5.5,8.2 c3,3.9,2.8,4,5.8,7.9c3,3.9,2.8,4.1,5.8,8c1.5,2,2.5,2.7,3.6,3.4c0.3,0.2,0.5,0.4,0.8,0.6c0.3,0.3,0.4,0.3,1,0.9 c0.5,0.5,1,1,1.5,1.7c-0.1,0.1-0.1,0.2-0.1,0.4c0,0.1,0.2,0.1,0.6,0.1c0.4,0.5,0.8,0.9,1.2,1.5c1.3,1.7,2.2,3,3,4.3 c1.2-1.2,2.2-1.9,3.4-3c0.6-0.6,1.3-1.3,2.1-2.2c0.4-0.5,0.9-1,1.3-1.5c0.4-0.4,0.7-0.9,1.2-1.4c3-3.9,3-3.9,6-7.8 c3.1-3.9,1.8-4.9,4.9-8.7c3.1-3.9,3.4-3.6,6.5-7.4c3.1-3.8,3.1-3.8,6.2-7.6c3.1-3.9,2.8-4.1,5.8-8c3.1-3.9,3.8-3.3,6.8-7.2 c3.1-3.9,2.7-4.2,5.7-8c3.1-3.9,3.6-3.4,6.7-7.3c3.1-3.9,2.3-4.4,5.4-8.3c3.1-3.9,2.7-4.1,5.8-8c3-3.9,3-3.9,6-7.8 c3.1-3.9,3.3-3.6,6.4-7.5c3.1-3.9,3.6-3.4,6.6-7.3c1.5-1.9,2.1-3.1,2.6-4.2c0.1-0.3,0.3-0.6,0.4-0.9c0.1-0.1,0.2-0.3,0.2-0.5 c0.1-0.1,0.2-0.3,0.4-0.6c0.7-1.1,1.5-2.2,2.8-3.8c4.2-5.3,4.9-6.1,8.4-10.6c0-0.1,0.1-0.4,0.1-0.8 C338.6,270.7,339.2,270.4,339,268.3z M225.6,377.4c-3-3.9-3.6-3.4-6.6-7.3c-3-3.9-2.8-4.1-5.8-8c-3-3.9-3-3.9-6-7.8 c-3-3.9-2-4.6-5-8.5c-3-3.9-3-3.9-6-7.8c-3-3.9-2.7-4.1-5.7-8c-3-3.9-4.5-2.8-7.5-6.7c-3-3.9-2.8-4-5.8-7.9 c-2.9-3.9-2.9-3.9-5.9-7.9c-3-3.9-1.9-4.8-4.9-8.7c-3-3.9-4.3-2.9-7.3-6.8c-3-3.9-3-3.9-6-7.8c-1.5-1.9-2.2-2.9-2.9-3.8 c1.1,0.5,2.3,0.9,4.4,2.1c4.3,2.4,4,2.9,8.4,5.2c4.3,2.4,4.6,1.8,8.9,4.2c4.3,2.4,4.4,2.2,8.8,4.5c4.3,2.4,4,2.9,8.4,5.2 c4.3,2.4,4.4,2.2,8.8,4.5c4.3,2.4,4.3,2.4,8.6,4.8c4.3,2.4,4.3,2.4,8.6,4.8c4.3,2.4,4.8,1.5,9.1,3.9c4.2,2.2,4.4,2.3,8.2,4.3 c0,0.1,0,0.2,0,0.3c0,0.7,0.7,0.7,0.7,1.3c0,0.7,0.3,0.7,0.3,1.3c0,0.7-0.5,0.7-0.5,1.3c0,0.7-0.3,0.7-0.3,1.3 c0,0.7-0.4,0.7-0.4,1.3c0,0.7,0.1,0.7,0.1,1.3c0,0.7,0.2,0.7,0.2,1.3s0.5,0.7,0.5,1.3c0,0.7,0.8,0.7,0.8,1.3 c0,0.7-0.3,0.7-0.3,1.3c0,0.7-0.4,0.7-0.4,1.3s-0.6,0.7-0.6,1.3s-0.2,0.7-0.2,1.3c0,0.7-0.3,0.7-0.3,1.3c0,0.7,1.5,0.7,1.5,1.3 c0,0.7-1.5,0.7-1.5,1.3c0,0.7,0.1,0.7,0.1,1.3s1.6,0.7,1.6,1.3c0,0.7-0.5,0.7-0.5,1.3s-0.2,0.7-0.2,1.3c0,0.7,0.4,0.7,0.4,1.3 s-0.9,0.7-0.9,1.3s0.5,0.7,0.5,1.3c0,0.7-0.7,0.7-0.7,1.3c0,0.7,0.9,0.7,0.9,1.3c0,0.7,0.4,0.7,0.4,1.3c0,0.7,0.1,0.7,0.1,1.3 c0,0.7-0.3,0.7-0.3,1.3c0,0.7-0.7,0.7-0.7,1.3c0,0.7,1.1,0.7,1.1,1.3c0,0.7-0.1,0.7-0.1,1.3c0,0.7-0.5,0.7-0.5,1.3 c0,0.7-0.1,0.7-0.1,1.3c0,0.7-0.6,0.7-0.6,1.3c0,0.7-0.6,0.7-0.6,1.3c0,0.7,1.6,0.7,1.6,1.3c0,0.7-0.4,0.7-0.4,1.3 c0,0.7-0.5,0.7-0.5,1.3c0,0.7-0.1,0.7-0.1,1.3c0,0.7-0.2,0.7-0.2,1.3s1.2,0.7,1.2,1.3c0,0.7-1.6,0.7-1.6,1.3 c0,0.7,0.3,0.7,0.3,1.3c0,0.7-0.2,0.7-0.2,1.3c0,0.7,0.2,0.7,0.2,1.3c0,0.7,1,0.7,1,1.3c0,0.7-0.9,0.7-0.9,1.3c0,0.1,0,0.1,0,0.2 c-0.3-0.4-0.6-0.8-1-1.3C227.9,381.8,228.6,381.3,225.6,377.4z M324.4,280.4c-0.7,0.8,0.2,0.2-0.7,1.3c-0.1,0.2-0.2,0.3-0.2,0.3 c-0.4,0.7,0,0.7-1,2c-2.5,3.1-2.5,3.1-4.9,6.1c-3.1,3.9-3.6,3.5-6.6,7.3c-3.1,3.8-3.1,3.8-6.2,7.6c-3.1,3.9-3.3,3.6-6.4,7.5 c-3.1,3.9-3.2,3.7-6.3,7.6c-3,3.9-3,3.9-6,7.8c-3.1,3.9-2.9,4-6,7.8c-3,3.9-3,3.9-6,7.8c-3.1,3.9-3.3,3.6-6.4,7.5 c-3.1,3.9-2.2,4.5-5.3,8.4c-3.1,3.8-3.1,3.8-6.2,7.7c-3.1,3.9-4.1,3-7.2,6.9c-3.1,3.9-2.1,4.6-5.1,8.5c-1.5,1.9-2.4,2.7-3.3,3.6 c0-0.1,0-0.3,0-0.5c0-0.7-0.9-0.7-0.9-1.3c0-0.7-0.1-0.7-0.1-1.3c0-0.7,0.4-0.7,0.4-1.3c0-0.7-0.2-0.7-0.2-1.3 c0-0.7-0.1-0.7-0.1-1.3s-0.1-0.7-0.1-1.3c0-0.7,0.6-0.7,0.6-1.3s0.2-0.7,0.2-1.3s-0.8-0.7-0.8-1.3c0-0.7,0.9-0.7,0.9-1.3 c0-0.7,0.3-0.7,0.3-1.3s0-0.7,0-1.3c0-0.7,0.3-0.7,0.3-1.3c0-0.7-1-0.7-1-1.3c0-0.7-0.3-0.7-0.3-1.3c0-0.7-0.4-0.7-0.4-1.3 c0-0.7,0-0.7,0-1.3s0.6-0.7,0.6-1.3c0-0.7,0.2-0.7,0.2-1.3c0-0.7,0.4-0.7,0.4-1.3c0-0.7,0.2-0.7,0.2-1.3c0-0.7-0.1-0.7-0.1-1.3 c0-0.7-0.2-0.7-0.2-1.3c0-0.7-0.1-0.7-0.1-1.3s0.3-0.7,0.3-1.3c0-0.7-1.1-0.7-1.1-1.3c0-0.7,0.1-0.7,0.1-1.3 c0-0.7,1.4-0.7,1.4-1.3c0-0.7-1.2-0.7-1.2-1.3s0.8-0.7,0.8-1.3c0-0.7-0.7-0.7-0.7-1.3c0-0.7-0.7-0.7-0.7-1.3 c0-0.7,0.8-0.7,0.8-1.3c0-0.7-0.8-0.7-0.8-1.3c0-0.7,0.3-0.7,0.3-1.3c0-0.7,0-0.7,0-1.3c0-0.7,1.2-0.7,1.2-1.3c0-0.7,0-0.7,0-1.3 c0-0.7,0.4-0.7,0.4-1.3c0-0.7-1.8-0.7-1.8-1.3c0-0.7,0.2-0.7,0.2-1.3c0-0.7,0.1-0.7,0.1-1.3s1.4-0.7,1.4-1.3 c0-0.7-1.6-0.7-1.6-1.3s0-0.7,0-1.3c0-0.4,0-0.6,0-0.8c0.2-0.1,0.4-0.2,0.7-0.3l0.7-0.3c0.9-0.4,2-0.9,3.6-1.8 c4.4-2.3,4.3-2.5,8.6-4.8c4.3-2.3,4.3-2.3,8.7-4.7c4.3-2.4,4.3-2.4,8.6-4.7c4.4-2.3,4.6-1.8,9-4.1c4.4-2.2,4.4-2.2,8.8-4.5 c4.4-2.3,4-3,8.3-5.3c4.4-2.3,4.8-1.5,9.1-3.8c4.4-2.3,4.5-2.1,8.8-4.4c2.9-1.5,2.9-1.5,5.9-3c0.3-0.2,0.2,0.1,0.1,0.3 c0,0,0,0,0,0s0.6-0.6,1.5-1.3C322.8,281.5,323.9,280.6,324.4,280.4C324.4,280.3,324.4,280.4,324.4,280.4z" fill="inherit"/></g></g></g></svg>