<?xml version="1.0" encoding="UTF-8" standalone="no"?><svg xmlns="http://www.w3.org/2000/svg" xmlns:xlink="http://www.w3.org/1999/xlink" fill="#000000" height="198.4" preserveAspectRatio="xMidYMid meet" version="1.1" viewBox="114.0 113.4 197.2 198.4" width="197.2" zoomAndPan="magnify">
 <g id="surface1">
  <g id="change1_1"><path d="m246.59 265.99c-40.58 0-74.44-33.86-74.44-74.44 0-38.71 30.83-71.28 68.9-74.19-8.84-2.58-18.18-3.97-27.85-3.97-54.8 0-99.22 44.42-99.22 99.21s44.42 99.21 99.22 99.21c49.54 0 90.6-36.32 98.01-83.78-12.91 22.51-37.23 37.96-64.62 37.96" fill="#fddc30"/></g>
  <g id="change2_1"><path d="m139.72 181.6c0 2.99-2.43 5.43-5.43 5.43s-5.43-2.44-5.43-5.43c0-3 2.43-5.44 5.43-5.44s5.43 2.44 5.43 5.44" fill="#ecc680"/></g>
  <g id="change2_2"><path d="m149.51 162.98c0 3-2.44 5.43-5.44 5.43s-5.43-2.43-5.43-5.43 2.43-5.43 5.43-5.43 5.44 2.43 5.44 5.43" fill="#ecc680"/></g>
  <g id="change2_3"><path d="m160.37 192.96c0 3.01-2.43 5.44-5.43 5.44s-5.43-2.43-5.43-5.44c0-2.99 2.43-5.42 5.43-5.42s5.43 2.43 5.43 5.42" fill="#ecc680"/></g>
 </g>
</svg>